<?xml version="1.0" encoding="UTF-8" standalone="no"?>
<!DOCTYPE svg PUBLIC "-//W3C//DTD SVG 1.1//EN"
 "http://www.w3.org/Graphics/SVG/1.1/DTD/svg11.dtd">
<!-- Generated by graphviz version 2.38.0 (20140413.2041)
 -->
<!-- Title: %3 Pages: 1 -->
<svg width="619pt" height="332pt"
 viewBox="0.00 0.00 618.83 332.00" xmlns="http://www.w3.org/2000/svg" xmlns:xlink="http://www.w3.org/1999/xlink">
<g id="graph0" class="graph" transform="scale(1 1) rotate(0) translate(4 328)">
<title>%3</title>
<polygon fill="white" stroke="none" points="-4,4 -4,-328 614.834,-328 614.834,4 -4,4"/>
<!-- z -->
<g id="node1" class="node"><title>z</title>
<ellipse fill="none" stroke="black" cx="75.3933" cy="-306" rx="27" ry="18"/>
<text text-anchor="middle" x="75.3933" y="-302.3" font-family="Times New Roman,serif" font-size="14.00">z</text>
</g>
<!-- G(copy1) -->
<g id="node2" class="node"><title>G(copy1)</title>
<ellipse fill="none" stroke="black" cx="75.3933" cy="-234" rx="46.2923" ry="18"/>
<text text-anchor="middle" x="75.3933" y="-230.3" font-family="Times New Roman,serif" font-size="14.00">G(copy1)</text>
</g>
<!-- z&#45;&gt;G(copy1) -->
<g id="edge1" class="edge"><title>z&#45;&gt;G(copy1)</title>
<path fill="none" stroke="black" d="M75.3933,-287.697C75.3933,-279.983 75.3933,-270.712 75.3933,-262.112"/>
<polygon fill="black" stroke="black" points="78.8934,-262.104 75.3933,-252.104 71.8934,-262.104 78.8934,-262.104"/>
</g>
<!-- generated_images -->
<g id="node3" class="node"><title>generated_images</title>
<ellipse fill="none" stroke="black" cx="75.3933" cy="-162" rx="75.2868" ry="18"/>
<text text-anchor="middle" x="75.3933" y="-158.3" font-family="Times New Roman,serif" font-size="14.00">generated_images</text>
</g>
<!-- G(copy1)&#45;&gt;generated_images -->
<g id="edge2" class="edge"><title>G(copy1)&#45;&gt;generated_images</title>
<path fill="none" stroke="black" d="M75.3933,-215.697C75.3933,-207.983 75.3933,-198.712 75.3933,-190.112"/>
<polygon fill="black" stroke="black" points="78.8934,-190.104 75.3933,-180.104 71.8934,-190.104 78.8934,-190.104"/>
</g>
<!-- D(copy1) -->
<g id="node4" class="node"><title>D(copy1)</title>
<ellipse fill="none" stroke="black" cx="136.393" cy="-90" rx="46.2923" ry="18"/>
<text text-anchor="middle" x="136.393" y="-86.3" font-family="Times New Roman,serif" font-size="14.00">D(copy1)</text>
</g>
<!-- generated_images&#45;&gt;D(copy1) -->
<g id="edge3" class="edge"><title>generated_images&#45;&gt;D(copy1)</title>
<path fill="none" stroke="black" d="M90.1597,-144.055C97.7626,-135.33 107.162,-124.544 115.496,-114.981"/>
<polygon fill="black" stroke="black" points="118.252,-117.146 122.183,-107.307 112.974,-112.547 118.252,-117.146"/>
</g>
<!-- D_loss -->
<g id="node5" class="node"><title>D_loss</title>
<ellipse fill="none" stroke="black" cx="228.393" cy="-18" rx="36.2938" ry="18"/>
<text text-anchor="middle" x="228.393" y="-14.3" font-family="Times New Roman,serif" font-size="14.00">D_loss</text>
</g>
<!-- D(copy1)&#45;&gt;D_loss -->
<g id="edge4" class="edge"><title>D(copy1)&#45;&gt;D_loss</title>
<path fill="none" stroke="black" d="M156.811,-73.4647C169.91,-63.4983 187.066,-50.4444 201.299,-39.6149"/>
<polygon fill="black" stroke="black" points="203.45,-42.3766 209.289,-33.5359 199.211,-36.8058 203.45,-42.3766"/>
</g>
<!-- Wd -->
<g id="node8" class="node"><title>Wd</title>
<ellipse fill="none" stroke="black" cx="195.393" cy="-162" rx="27" ry="18"/>
<text text-anchor="middle" x="195.393" y="-158.3" font-family="Times New Roman,serif" font-size="14.00">Wd</text>
</g>
<!-- D_loss&#45;&gt;Wd -->
<g id="edge9" class="edge"><title>D_loss&#45;&gt;Wd</title>
<path fill="none" stroke="blue" d="M224.38,-36.2678C218.699,-60.7143 208.261,-105.63 201.583,-134.366"/>
<polygon fill="blue" stroke="blue" points="198.163,-133.62 199.308,-144.153 204.981,-135.205 198.163,-133.62"/>
</g>
<!-- input_images -->
<g id="node6" class="node"><title>input_images</title>
<ellipse fill="none" stroke="black" cx="298.393" cy="-162" rx="58.4896" ry="18"/>
<text text-anchor="middle" x="298.393" y="-158.3" font-family="Times New Roman,serif" font-size="14.00">input_images</text>
</g>
<!-- D(copy2) -->
<g id="node7" class="node"><title>D(copy2)</title>
<ellipse fill="none" stroke="black" cx="284.393" cy="-90" rx="46.2923" ry="18"/>
<text text-anchor="middle" x="284.393" y="-86.3" font-family="Times New Roman,serif" font-size="14.00">D(copy2)</text>
</g>
<!-- input_images&#45;&gt;D(copy2) -->
<g id="edge5" class="edge"><title>input_images&#45;&gt;D(copy2)</title>
<path fill="none" stroke="black" d="M294.933,-143.697C293.39,-135.983 291.536,-126.712 289.816,-118.112"/>
<polygon fill="black" stroke="black" points="293.207,-117.224 287.814,-108.104 286.343,-118.597 293.207,-117.224"/>
</g>
<!-- D(copy2)&#45;&gt;D_loss -->
<g id="edge6" class="edge"><title>D(copy2)&#45;&gt;D_loss</title>
<path fill="none" stroke="black" d="M271.122,-72.411C264.118,-63.6554 255.394,-52.751 247.659,-43.082"/>
<polygon fill="black" stroke="black" points="250.164,-40.6104 241.184,-34.9881 244.698,-44.9833 250.164,-40.6104"/>
</g>
<!-- Wd&#45;&gt;D(copy1) -->
<g id="edge7" class="edge"><title>Wd&#45;&gt;D(copy1)</title>
<path fill="none" stroke="black" d="M182.591,-145.811C175.103,-136.927 165.475,-125.504 156.949,-115.388"/>
<polygon fill="black" stroke="black" points="159.529,-113.018 150.408,-107.628 154.177,-117.53 159.529,-113.018"/>
</g>
<!-- Wd&#45;&gt;D(copy2) -->
<g id="edge8" class="edge"><title>Wd&#45;&gt;D(copy2)</title>
<path fill="none" stroke="black" d="M212.134,-147.834C224.593,-138.034 241.886,-124.432 256.432,-112.992"/>
<polygon fill="black" stroke="black" points="258.924,-115.485 264.621,-106.552 254.597,-109.983 258.924,-115.485"/>
</g>
<!-- G_loss -->
<g id="node9" class="node"><title>G_loss</title>
<ellipse fill="none" stroke="black" cx="511.393" cy="-18" rx="37.0935" ry="18"/>
<text text-anchor="middle" x="511.393" y="-14.3" font-family="Times New Roman,serif" font-size="14.00">G_loss</text>
</g>
<!-- Wg -->
<g id="node10" class="node"><title>Wg</title>
<ellipse fill="none" stroke="black" cx="420.393" cy="-234" rx="27" ry="18"/>
<text text-anchor="middle" x="420.393" y="-230.3" font-family="Times New Roman,serif" font-size="14.00">Wg</text>
</g>
<!-- G_loss&#45;&gt;Wg -->
<g id="edge10" class="edge"><title>G_loss&#45;&gt;Wg</title>
<path fill="none" stroke="green" d="M491.411,-33.5859C464.796,-54.4783 419.23,-95.7709 403.393,-144 396.593,-164.711 402.136,-189.078 408.652,-207.074"/>
<polygon fill="green" stroke="green" points="405.485,-208.585 412.407,-216.606 411.997,-206.019 405.485,-208.585"/>
</g>
<!-- G(copy2) -->
<g id="node11" class="node"><title>G(copy2)</title>
<ellipse fill="none" stroke="black" cx="511.393" cy="-234" rx="46.2923" ry="18"/>
<text text-anchor="middle" x="511.393" y="-230.3" font-family="Times New Roman,serif" font-size="14.00">G(copy2)</text>
</g>
<!-- Wg&#45;&gt;G(copy2) -->
<g id="edge12" class="edge"><title>Wg&#45;&gt;G(copy2)</title>
<path fill="none" stroke="black" d="M447.409,-234C449.869,-234 452.33,-234 454.79,-234"/>
<polygon fill="black" stroke="black" points="454.905,-237.5 464.905,-234 454.905,-230.5 454.905,-237.5"/>
</g>
<!-- generated_images(again) -->
<g id="node13" class="node"><title>generated_images(again)</title>
<ellipse fill="none" stroke="black" cx="511.393" cy="-162" rx="99.3824" ry="18"/>
<text text-anchor="middle" x="511.393" y="-158.3" font-family="Times New Roman,serif" font-size="14.00">generated_images(again)</text>
</g>
<!-- G(copy2)&#45;&gt;generated_images(again) -->
<g id="edge13" class="edge"><title>G(copy2)&#45;&gt;generated_images(again)</title>
<path fill="none" stroke="black" d="M511.393,-215.697C511.393,-207.983 511.393,-198.712 511.393,-190.112"/>
<polygon fill="black" stroke="black" points="514.893,-190.104 511.393,-180.104 507.893,-190.104 514.893,-190.104"/>
</g>
<!-- z(again) -->
<g id="node12" class="node"><title>z(again)</title>
<ellipse fill="none" stroke="black" cx="511.393" cy="-306" rx="38.9931" ry="18"/>
<text text-anchor="middle" x="511.393" y="-302.3" font-family="Times New Roman,serif" font-size="14.00">z(again)</text>
</g>
<!-- z(again)&#45;&gt;G(copy2) -->
<g id="edge11" class="edge"><title>z(again)&#45;&gt;G(copy2)</title>
<path fill="none" stroke="black" d="M511.393,-287.697C511.393,-279.983 511.393,-270.712 511.393,-262.112"/>
<polygon fill="black" stroke="black" points="514.893,-262.104 511.393,-252.104 507.893,-262.104 514.893,-262.104"/>
</g>
<!-- D(copy3) -->
<g id="node14" class="node"><title>D(copy3)</title>
<ellipse fill="none" stroke="black" cx="511.393" cy="-90" rx="46.2923" ry="18"/>
<text text-anchor="middle" x="511.393" y="-86.3" font-family="Times New Roman,serif" font-size="14.00">D(copy3)</text>
</g>
<!-- generated_images(again)&#45;&gt;D(copy3) -->
<g id="edge14" class="edge"><title>generated_images(again)&#45;&gt;D(copy3)</title>
<path fill="none" stroke="black" d="M511.393,-143.697C511.393,-135.983 511.393,-126.712 511.393,-118.112"/>
<polygon fill="black" stroke="black" points="514.893,-118.104 511.393,-108.104 507.893,-118.104 514.893,-118.104"/>
</g>
<!-- D(copy3)&#45;&gt;G_loss -->
<g id="edge15" class="edge"><title>D(copy3)&#45;&gt;G_loss</title>
<path fill="none" stroke="black" d="M511.393,-71.6966C511.393,-63.9827 511.393,-54.7125 511.393,-46.1124"/>
<polygon fill="black" stroke="black" points="514.893,-46.1043 511.393,-36.1043 507.893,-46.1044 514.893,-46.1043"/>
</g>
</g>
</svg>
