<?xml version="1.0" encoding="UTF-8" standalone="no"?>
<!DOCTYPE svg PUBLIC "-//W3C//DTD SVG 1.1//EN"
 "http://www.w3.org/Graphics/SVG/1.1/DTD/svg11.dtd">
<!-- Generated by graphviz version 2.38.0 (20140413.2041)
 -->
<!-- Title: %3 Pages: 1 -->
<svg width="387pt" height="332pt"
 viewBox="0.00 0.00 386.76 332.00" xmlns="http://www.w3.org/2000/svg" xmlns:xlink="http://www.w3.org/1999/xlink">
<g id="graph0" class="graph" transform="scale(1 1) rotate(0) translate(4 328)">
<title>%3</title>
<polygon fill="white" stroke="none" points="-4,4 -4,-328 382.757,-328 382.757,4 -4,4"/>
<!-- Wg -->
<g id="node1" class="node"><title>Wg</title>
<ellipse fill="none" stroke="black" cx="27" cy="-234" rx="27" ry="18"/>
<text text-anchor="middle" x="27" y="-229.8" font-family="Times,serif" font-size="14.00">Wg</text>
</g>
<!-- G -->
<g id="node2" class="node"><title>G</title>
<ellipse fill="none" stroke="black" cx="99" cy="-234" rx="27" ry="18"/>
<text text-anchor="middle" x="99" y="-229.8" font-family="Times,serif" font-size="14.00">G</text>
</g>
<!-- Wg&#45;&gt;G -->
<g id="edge1" class="edge"><title>Wg&#45;&gt;G</title>
<path fill="none" stroke="black" d="M54,-234C56.6147,-234 59.2295,-234 61.8442,-234"/>
<polygon fill="black" stroke="black" points="61.9297,-237.5 71.9297,-234 61.9297,-230.5 61.9297,-237.5"/>
</g>
<!-- generated_images -->
<g id="node4" class="node"><title>generated_images</title>
<ellipse fill="none" stroke="black" cx="99" cy="-162" rx="73.8912" ry="18"/>
<text text-anchor="middle" x="99" y="-157.8" font-family="Times,serif" font-size="14.00">generated_images</text>
</g>
<!-- G&#45;&gt;generated_images -->
<g id="edge3" class="edge"><title>G&#45;&gt;generated_images</title>
<path fill="none" stroke="black" d="M99,-215.697C99,-207.983 99,-198.712 99,-190.112"/>
<polygon fill="black" stroke="black" points="102.5,-190.104 99,-180.104 95.5001,-190.104 102.5,-190.104"/>
</g>
<!-- z -->
<g id="node3" class="node"><title>z</title>
<ellipse fill="none" stroke="black" cx="99" cy="-306" rx="27" ry="18"/>
<text text-anchor="middle" x="99" y="-301.8" font-family="Times,serif" font-size="14.00">z</text>
</g>
<!-- z&#45;&gt;G -->
<g id="edge2" class="edge"><title>z&#45;&gt;G</title>
<path fill="none" stroke="black" d="M99,-287.697C99,-279.983 99,-270.712 99,-262.112"/>
<polygon fill="black" stroke="black" points="102.5,-262.104 99,-252.104 95.5001,-262.104 102.5,-262.104"/>
</g>
<!-- D(copy1) -->
<g id="node5" class="node"><title>D(copy1)</title>
<ellipse fill="none" stroke="black" cx="99" cy="-90" rx="43.9905" ry="18"/>
<text text-anchor="middle" x="99" y="-85.8" font-family="Times,serif" font-size="14.00">D(copy1)</text>
</g>
<!-- generated_images&#45;&gt;D(copy1) -->
<g id="edge4" class="edge"><title>generated_images&#45;&gt;D(copy1)</title>
<path fill="none" stroke="black" d="M99,-143.697C99,-135.983 99,-126.712 99,-118.112"/>
<polygon fill="black" stroke="black" points="102.5,-118.104 99,-108.104 95.5001,-118.104 102.5,-118.104"/>
</g>
<!-- G_loss -->
<g id="node6" class="node"><title>G_loss</title>
<ellipse fill="none" stroke="black" cx="99" cy="-18" rx="34.8545" ry="18"/>
<text text-anchor="middle" x="99" y="-13.8" font-family="Times,serif" font-size="14.00">G_loss</text>
</g>
<!-- D(copy1)&#45;&gt;G_loss -->
<g id="edge5" class="edge"><title>D(copy1)&#45;&gt;G_loss</title>
<path fill="none" stroke="black" d="M99,-71.6966C99,-63.9827 99,-54.7125 99,-46.1124"/>
<polygon fill="black" stroke="black" points="102.5,-46.1043 99,-36.1043 95.5001,-46.1044 102.5,-46.1043"/>
</g>
<!-- D_loss -->
<g id="node10" class="node"><title>D_loss</title>
<ellipse fill="none" stroke="black" cx="269" cy="-18" rx="34.8545" ry="18"/>
<text text-anchor="middle" x="269" y="-13.8" font-family="Times,serif" font-size="14.00">D_loss</text>
</g>
<!-- D(copy1)&#45;&gt;D_loss -->
<g id="edge11" class="edge"><title>D(copy1)&#45;&gt;D_loss</title>
<path fill="none" stroke="black" d="M129.001,-76.6465C158.073,-64.6758 202.187,-46.5112 233.107,-33.7797"/>
<polygon fill="black" stroke="black" points="234.732,-36.8956 242.646,-29.8517 232.066,-30.4229 234.732,-36.8956"/>
</g>
<!-- G_loss&#45;&gt;Wg -->
<g id="edge6" class="edge"><title>G_loss&#45;&gt;Wg</title>
<path fill="none" stroke="green" d="M81.223,-33.5457C69.9793,-43.463 55.7751,-57.4036 46,-72 26.7101,-100.804 22.7987,-110.007 16,-144 11.859,-164.705 15.1928,-188.45 19.2437,-206.204"/>
<polygon fill="green" stroke="green" points="15.909,-207.296 21.7292,-216.149 22.7001,-205.599 15.909,-207.296"/>
</g>
<!-- Wd -->
<g id="node7" class="node"><title>Wd</title>
<ellipse fill="none" stroke="black" cx="218" cy="-162" rx="27" ry="18"/>
<text text-anchor="middle" x="218" y="-157.8" font-family="Times,serif" font-size="14.00">Wd</text>
</g>
<!-- Wd&#45;&gt;D(copy1) -->
<g id="edge12" class="edge"><title>Wd&#45;&gt;D(copy1)</title>
<path fill="none" stroke="black" d="M198.35,-149.441C180.328,-138.84 153.279,-122.929 131.953,-110.384"/>
<polygon fill="black" stroke="black" points="133.601,-107.293 123.207,-105.239 130.052,-113.326 133.601,-107.293"/>
</g>
<!-- D(copy2) -->
<g id="node8" class="node"><title>D(copy2)</title>
<ellipse fill="none" stroke="black" cx="269" cy="-90" rx="43.9905" ry="18"/>
<text text-anchor="middle" x="269" y="-85.8" font-family="Times,serif" font-size="14.00">D(copy2)</text>
</g>
<!-- Wd&#45;&gt;D(copy2) -->
<g id="edge7" class="edge"><title>Wd&#45;&gt;D(copy2)</title>
<path fill="none" stroke="black" d="M229.319,-145.465C235.674,-136.742 243.752,-125.654 250.959,-115.762"/>
<polygon fill="black" stroke="black" points="253.943,-117.611 257.002,-107.467 248.285,-113.489 253.943,-117.611"/>
</g>
<!-- D(copy2)&#45;&gt;D_loss -->
<g id="edge9" class="edge"><title>D(copy2)&#45;&gt;D_loss</title>
<path fill="none" stroke="black" d="M269,-71.6966C269,-63.9827 269,-54.7125 269,-46.1124"/>
<polygon fill="black" stroke="black" points="272.5,-46.1043 269,-36.1043 265.5,-46.1044 272.5,-46.1043"/>
</g>
<!-- input_images -->
<g id="node9" class="node"><title>input_images</title>
<ellipse fill="none" stroke="black" cx="321" cy="-162" rx="57.5151" ry="18"/>
<text text-anchor="middle" x="321" y="-157.8" font-family="Times,serif" font-size="14.00">input_images</text>
</g>
<!-- input_images&#45;&gt;D(copy2) -->
<g id="edge8" class="edge"><title>input_images&#45;&gt;D(copy2)</title>
<path fill="none" stroke="black" d="M308.677,-144.411C302.33,-135.868 294.464,-125.278 287.413,-115.787"/>
<polygon fill="black" stroke="black" points="290.008,-113.41 281.235,-107.47 284.388,-117.585 290.008,-113.41"/>
</g>
<!-- D_loss&#45;&gt;Wd -->
<g id="edge10" class="edge"><title>D_loss&#45;&gt;Wd</title>
<path fill="none" stroke="blue" d="M289.361,-32.8745C301.33,-42.3297 315.377,-56.0105 322,-72 328.123,-86.7821 330.359,-94.3575 322,-108 319.85,-111.508 278.564,-131.899 248.668,-146.338"/>
<polygon fill="blue" stroke="blue" points="246.918,-143.296 239.426,-150.788 249.954,-149.603 246.918,-143.296"/>
</g>
</g>
</svg>
