<?xml version="1.0" encoding="UTF-8" standalone="no"?>
<!DOCTYPE svg PUBLIC "-//W3C//DTD SVG 1.1//EN"
 "http://www.w3.org/Graphics/SVG/1.1/DTD/svg11.dtd">
<!-- Generated by graphviz version 2.38.0 (20140413.2041)
 -->
<!-- Title: %3 Pages: 1 -->
<svg width="616pt" height="332pt"
 viewBox="0.00 0.00 615.93 332.00" xmlns="http://www.w3.org/2000/svg" xmlns:xlink="http://www.w3.org/1999/xlink">
<g id="graph0" class="graph" transform="scale(1 1) rotate(0) translate(4 328)">
<title>%3</title>
<polygon fill="white" stroke="none" points="-4,4 -4,-328 611.932,-328 611.932,4 -4,4"/>
<!-- z -->
<g id="node1" class="node"><title>z</title>
<ellipse fill="none" stroke="black" cx="73.9456" cy="-306" rx="27" ry="18"/>
<text text-anchor="middle" x="73.9456" y="-301.8" font-family="Times,serif" font-size="14.00">z</text>
</g>
<!-- G(copy1) -->
<g id="node2" class="node"><title>G(copy1)</title>
<ellipse fill="none" stroke="black" cx="73.9456" cy="-234" rx="43.9905" ry="18"/>
<text text-anchor="middle" x="73.9456" y="-229.8" font-family="Times,serif" font-size="14.00">G(copy1)</text>
</g>
<!-- z&#45;&gt;G(copy1) -->
<g id="edge1" class="edge"><title>z&#45;&gt;G(copy1)</title>
<path fill="none" stroke="black" d="M73.9456,-287.697C73.9456,-279.983 73.9456,-270.712 73.9456,-262.112"/>
<polygon fill="black" stroke="black" points="77.4457,-262.104 73.9456,-252.104 70.4457,-262.104 77.4457,-262.104"/>
</g>
<!-- generated_images -->
<g id="node3" class="node"><title>generated_images</title>
<ellipse fill="none" stroke="black" cx="73.9456" cy="-162" rx="73.8912" ry="18"/>
<text text-anchor="middle" x="73.9456" y="-157.8" font-family="Times,serif" font-size="14.00">generated_images</text>
</g>
<!-- G(copy1)&#45;&gt;generated_images -->
<g id="edge2" class="edge"><title>G(copy1)&#45;&gt;generated_images</title>
<path fill="none" stroke="black" d="M73.9456,-215.697C73.9456,-207.983 73.9456,-198.712 73.9456,-190.112"/>
<polygon fill="black" stroke="black" points="77.4457,-190.104 73.9456,-180.104 70.4457,-190.104 77.4457,-190.104"/>
</g>
<!-- D(copy1) -->
<g id="node4" class="node"><title>D(copy1)</title>
<ellipse fill="none" stroke="black" cx="136.946" cy="-90" rx="43.9905" ry="18"/>
<text text-anchor="middle" x="136.946" y="-85.8" font-family="Times,serif" font-size="14.00">D(copy1)</text>
</g>
<!-- generated_images&#45;&gt;D(copy1) -->
<g id="edge3" class="edge"><title>generated_images&#45;&gt;D(copy1)</title>
<path fill="none" stroke="black" d="M89.1961,-144.055C97.0483,-135.33 106.756,-124.544 115.363,-114.981"/>
<polygon fill="black" stroke="black" points="118.181,-117.081 122.269,-107.307 112.978,-112.399 118.181,-117.081"/>
</g>
<!-- D_loss -->
<g id="node5" class="node"><title>D_loss</title>
<ellipse fill="none" stroke="black" cx="226.946" cy="-18" rx="34.8545" ry="18"/>
<text text-anchor="middle" x="226.946" y="-13.8" font-family="Times,serif" font-size="14.00">D_loss</text>
</g>
<!-- D(copy1)&#45;&gt;D_loss -->
<g id="edge4" class="edge"><title>D(copy1)&#45;&gt;D_loss</title>
<path fill="none" stroke="black" d="M156.474,-73.811C169.353,-63.7943 186.382,-50.5497 200.474,-39.5893"/>
<polygon fill="black" stroke="black" points="202.633,-42.3439 208.378,-33.4417 198.335,-36.8184 202.633,-42.3439"/>
</g>
<!-- Wd -->
<g id="node8" class="node"><title>Wd</title>
<ellipse fill="none" stroke="black" cx="192.946" cy="-162" rx="27" ry="18"/>
<text text-anchor="middle" x="192.946" y="-157.8" font-family="Times,serif" font-size="14.00">Wd</text>
</g>
<!-- D_loss&#45;&gt;Wd -->
<g id="edge9" class="edge"><title>D_loss&#45;&gt;Wd</title>
<path fill="none" stroke="blue" d="M222.811,-36.2678C216.958,-60.7143 206.203,-105.63 199.323,-134.366"/>
<polygon fill="blue" stroke="blue" points="195.904,-133.613 196.979,-144.153 202.712,-135.243 195.904,-133.613"/>
</g>
<!-- input_images -->
<g id="node6" class="node"><title>input_images</title>
<ellipse fill="none" stroke="black" cx="295.946" cy="-162" rx="57.5151" ry="18"/>
<text text-anchor="middle" x="295.946" y="-157.8" font-family="Times,serif" font-size="14.00">input_images</text>
</g>
<!-- D(copy2) -->
<g id="node7" class="node"><title>D(copy2)</title>
<ellipse fill="none" stroke="black" cx="280.946" cy="-90" rx="43.9905" ry="18"/>
<text text-anchor="middle" x="280.946" y="-85.8" font-family="Times,serif" font-size="14.00">D(copy2)</text>
</g>
<!-- input_images&#45;&gt;D(copy2) -->
<g id="edge5" class="edge"><title>input_images&#45;&gt;D(copy2)</title>
<path fill="none" stroke="black" d="M292.238,-143.697C290.585,-135.983 288.598,-126.712 286.755,-118.112"/>
<polygon fill="black" stroke="black" points="290.128,-117.149 284.611,-108.104 283.284,-118.616 290.128,-117.149"/>
</g>
<!-- D(copy2)&#45;&gt;D_loss -->
<g id="edge6" class="edge"><title>D(copy2)&#45;&gt;D_loss</title>
<path fill="none" stroke="black" d="M268.148,-72.411C261.394,-63.6554 252.982,-52.751 245.523,-43.082"/>
<polygon fill="black" stroke="black" points="248.159,-40.7681 239.279,-34.9881 242.616,-45.0438 248.159,-40.7681"/>
</g>
<!-- Wd&#45;&gt;D(copy1) -->
<g id="edge7" class="edge"><title>Wd&#45;&gt;D(copy1)</title>
<path fill="none" stroke="black" d="M180.794,-145.811C173.758,-137.015 164.73,-125.73 156.696,-115.688"/>
<polygon fill="black" stroke="black" points="159.228,-113.25 150.248,-107.628 153.762,-117.623 159.228,-113.25"/>
</g>
<!-- Wd&#45;&gt;D(copy2) -->
<g id="edge8" class="edge"><title>Wd&#45;&gt;D(copy2)</title>
<path fill="none" stroke="black" d="M209.913,-147.503C222.271,-137.673 239.275,-124.147 253.547,-112.794"/>
<polygon fill="black" stroke="black" points="255.932,-115.369 261.579,-106.405 251.574,-109.891 255.932,-115.369"/>
</g>
<!-- G_loss -->
<g id="node9" class="node"><title>G_loss</title>
<ellipse fill="none" stroke="black" cx="508.946" cy="-18" rx="34.8545" ry="18"/>
<text text-anchor="middle" x="508.946" y="-13.8" font-family="Times,serif" font-size="14.00">G_loss</text>
</g>
<!-- Wg -->
<g id="node10" class="node"><title>Wg</title>
<ellipse fill="none" stroke="black" cx="419.946" cy="-234" rx="27" ry="18"/>
<text text-anchor="middle" x="419.946" y="-229.8" font-family="Times,serif" font-size="14.00">Wg</text>
</g>
<!-- G_loss&#45;&gt;Wg -->
<g id="edge10" class="edge"><title>G_loss&#45;&gt;Wg</title>
<path fill="none" stroke="green" d="M489.532,-33.2737C463.127,-54.0994 417.303,-95.642 400.946,-144 393.898,-164.836 400.135,-189.331 407.291,-207.343"/>
<polygon fill="green" stroke="green" points="404.115,-208.817 411.284,-216.619 410.545,-206.05 404.115,-208.817"/>
</g>
<!-- G(copy2) -->
<g id="node11" class="node"><title>G(copy2)</title>
<ellipse fill="none" stroke="black" cx="508.946" cy="-234" rx="43.9905" ry="18"/>
<text text-anchor="middle" x="508.946" y="-229.8" font-family="Times,serif" font-size="14.00">G(copy2)</text>
</g>
<!-- Wg&#45;&gt;G(copy2) -->
<g id="edge12" class="edge"><title>Wg&#45;&gt;G(copy2)</title>
<path fill="none" stroke="black" d="M447.063,-234C449.51,-234 451.958,-234 454.405,-234"/>
<polygon fill="black" stroke="black" points="454.467,-237.5 464.467,-234 454.467,-230.5 454.467,-237.5"/>
</g>
<!-- generated_images(again) -->
<g id="node13" class="node"><title>generated_images(again)</title>
<ellipse fill="none" stroke="black" cx="508.946" cy="-162" rx="98.9725" ry="18"/>
<text text-anchor="middle" x="508.946" y="-157.8" font-family="Times,serif" font-size="14.00">generated_images(again)</text>
</g>
<!-- G(copy2)&#45;&gt;generated_images(again) -->
<g id="edge13" class="edge"><title>G(copy2)&#45;&gt;generated_images(again)</title>
<path fill="none" stroke="black" d="M508.946,-215.697C508.946,-207.983 508.946,-198.712 508.946,-190.112"/>
<polygon fill="black" stroke="black" points="512.446,-190.104 508.946,-180.104 505.446,-190.104 512.446,-190.104"/>
</g>
<!-- z(again) -->
<g id="node12" class="node"><title>z(again)</title>
<ellipse fill="none" stroke="black" cx="508.946" cy="-306" rx="39.1454" ry="18"/>
<text text-anchor="middle" x="508.946" y="-301.8" font-family="Times,serif" font-size="14.00">z(again)</text>
</g>
<!-- z(again)&#45;&gt;G(copy2) -->
<g id="edge11" class="edge"><title>z(again)&#45;&gt;G(copy2)</title>
<path fill="none" stroke="black" d="M508.946,-287.697C508.946,-279.983 508.946,-270.712 508.946,-262.112"/>
<polygon fill="black" stroke="black" points="512.446,-262.104 508.946,-252.104 505.446,-262.104 512.446,-262.104"/>
</g>
<!-- D(copy3) -->
<g id="node14" class="node"><title>D(copy3)</title>
<ellipse fill="none" stroke="black" cx="508.946" cy="-90" rx="43.9905" ry="18"/>
<text text-anchor="middle" x="508.946" y="-85.8" font-family="Times,serif" font-size="14.00">D(copy3)</text>
</g>
<!-- generated_images(again)&#45;&gt;D(copy3) -->
<g id="edge14" class="edge"><title>generated_images(again)&#45;&gt;D(copy3)</title>
<path fill="none" stroke="black" d="M508.946,-143.697C508.946,-135.983 508.946,-126.712 508.946,-118.112"/>
<polygon fill="black" stroke="black" points="512.446,-118.104 508.946,-108.104 505.446,-118.104 512.446,-118.104"/>
</g>
<!-- D(copy3)&#45;&gt;G_loss -->
<g id="edge15" class="edge"><title>D(copy3)&#45;&gt;G_loss</title>
<path fill="none" stroke="black" d="M508.946,-71.6966C508.946,-63.9827 508.946,-54.7125 508.946,-46.1124"/>
<polygon fill="black" stroke="black" points="512.446,-46.1043 508.946,-36.1043 505.446,-46.1044 512.446,-46.1043"/>
</g>
</g>
</svg>
