<?xml version="1.0" encoding="UTF-8" standalone="no"?>
<!DOCTYPE svg PUBLIC "-//W3C//DTD SVG 1.1//EN"
 "http://www.w3.org/Graphics/SVG/1.1/DTD/svg11.dtd">
<!-- Generated by graphviz version 2.38.0 (20140413.2041)
 -->
<!-- Title: %3 Pages: 1 -->
<svg width="388pt" height="332pt"
 viewBox="0.00 0.00 388.49 332.00" xmlns="http://www.w3.org/2000/svg" xmlns:xlink="http://www.w3.org/1999/xlink">
<g id="graph0" class="graph" transform="scale(1 1) rotate(0) translate(4 328)">
<title>%3</title>
<polygon fill="white" stroke="none" points="-4,4 -4,-328 384.495,-328 384.495,4 -4,4"/>
<!-- Wg -->
<g id="node1" class="node"><title>Wg</title>
<ellipse fill="none" stroke="black" cx="27" cy="-234" rx="27" ry="18"/>
<text text-anchor="middle" x="27" y="-230.3" font-family="Times New Roman,serif" font-size="14.00">Wg</text>
</g>
<!-- G -->
<g id="node2" class="node"><title>G</title>
<ellipse fill="none" stroke="black" cx="99" cy="-234" rx="27" ry="18"/>
<text text-anchor="middle" x="99" y="-230.3" font-family="Times New Roman,serif" font-size="14.00">G</text>
</g>
<!-- Wg&#45;&gt;G -->
<g id="edge1" class="edge"><title>Wg&#45;&gt;G</title>
<path fill="none" stroke="black" d="M54,-234C56.6147,-234 59.2295,-234 61.8442,-234"/>
<polygon fill="black" stroke="black" points="61.9297,-237.5 71.9297,-234 61.9297,-230.5 61.9297,-237.5"/>
</g>
<!-- generated_images -->
<g id="node4" class="node"><title>generated_images</title>
<ellipse fill="none" stroke="black" cx="99" cy="-162" rx="75.2868" ry="18"/>
<text text-anchor="middle" x="99" y="-158.3" font-family="Times New Roman,serif" font-size="14.00">generated_images</text>
</g>
<!-- G&#45;&gt;generated_images -->
<g id="edge3" class="edge"><title>G&#45;&gt;generated_images</title>
<path fill="none" stroke="black" d="M99,-215.697C99,-207.983 99,-198.712 99,-190.112"/>
<polygon fill="black" stroke="black" points="102.5,-190.104 99,-180.104 95.5001,-190.104 102.5,-190.104"/>
</g>
<!-- z -->
<g id="node3" class="node"><title>z</title>
<ellipse fill="none" stroke="black" cx="99" cy="-306" rx="27" ry="18"/>
<text text-anchor="middle" x="99" y="-302.3" font-family="Times New Roman,serif" font-size="14.00">z</text>
</g>
<!-- z&#45;&gt;G -->
<g id="edge2" class="edge"><title>z&#45;&gt;G</title>
<path fill="none" stroke="black" d="M99,-287.697C99,-279.983 99,-270.712 99,-262.112"/>
<polygon fill="black" stroke="black" points="102.5,-262.104 99,-252.104 95.5001,-262.104 102.5,-262.104"/>
</g>
<!-- D(copy1) -->
<g id="node5" class="node"><title>D(copy1)</title>
<ellipse fill="none" stroke="black" cx="99" cy="-90" rx="46.2923" ry="18"/>
<text text-anchor="middle" x="99" y="-86.3" font-family="Times New Roman,serif" font-size="14.00">D(copy1)</text>
</g>
<!-- generated_images&#45;&gt;D(copy1) -->
<g id="edge4" class="edge"><title>generated_images&#45;&gt;D(copy1)</title>
<path fill="none" stroke="black" d="M99,-143.697C99,-135.983 99,-126.712 99,-118.112"/>
<polygon fill="black" stroke="black" points="102.5,-118.104 99,-108.104 95.5001,-118.104 102.5,-118.104"/>
</g>
<!-- G_loss -->
<g id="node6" class="node"><title>G_loss</title>
<ellipse fill="none" stroke="black" cx="99" cy="-18" rx="37.0935" ry="18"/>
<text text-anchor="middle" x="99" y="-14.3" font-family="Times New Roman,serif" font-size="14.00">G_loss</text>
</g>
<!-- D(copy1)&#45;&gt;G_loss -->
<g id="edge5" class="edge"><title>D(copy1)&#45;&gt;G_loss</title>
<path fill="none" stroke="black" d="M99,-71.6966C99,-63.9827 99,-54.7125 99,-46.1124"/>
<polygon fill="black" stroke="black" points="102.5,-46.1043 99,-36.1043 95.5001,-46.1044 102.5,-46.1043"/>
</g>
<!-- D_loss -->
<g id="node10" class="node"><title>D_loss</title>
<ellipse fill="none" stroke="black" cx="270" cy="-18" rx="36.2938" ry="18"/>
<text text-anchor="middle" x="270" y="-14.3" font-family="Times New Roman,serif" font-size="14.00">D_loss</text>
</g>
<!-- D(copy1)&#45;&gt;D_loss -->
<g id="edge11" class="edge"><title>D(copy1)&#45;&gt;D_loss</title>
<path fill="none" stroke="black" d="M129.571,-76.4854C158.611,-64.598 202.31,-46.7094 233.236,-34.0494"/>
<polygon fill="black" stroke="black" points="234.865,-37.1646 242.794,-30.137 232.213,-30.6864 234.865,-37.1646"/>
</g>
<!-- G_loss&#45;&gt;Wg -->
<g id="edge6" class="edge"><title>G_loss&#45;&gt;Wg</title>
<path fill="none" stroke="green" d="M80.2021,-33.6011C68.5398,-43.4379 53.9363,-57.2687 44,-72 24.709,-100.6 21.5644,-110.132 15,-144 10.9576,-164.856 14.618,-188.724 18.9266,-206.489"/>
<polygon fill="green" stroke="green" points="15.5472,-207.4 21.485,-216.175 22.315,-205.613 15.5472,-207.4"/>
</g>
<!-- Wd -->
<g id="node7" class="node"><title>Wd</title>
<ellipse fill="none" stroke="black" cx="219" cy="-162" rx="27" ry="18"/>
<text text-anchor="middle" x="219" y="-158.3" font-family="Times New Roman,serif" font-size="14.00">Wd</text>
</g>
<!-- Wd&#45;&gt;D(copy1) -->
<g id="edge12" class="edge"><title>Wd&#45;&gt;D(copy1)</title>
<path fill="none" stroke="black" d="M199.184,-149.441C181.128,-138.908 154.084,-123.132 132.644,-110.626"/>
<polygon fill="black" stroke="black" points="134.243,-107.506 123.841,-105.491 130.716,-113.553 134.243,-107.506"/>
</g>
<!-- D(copy2) -->
<g id="node8" class="node"><title>D(copy2)</title>
<ellipse fill="none" stroke="black" cx="270" cy="-90" rx="46.2923" ry="18"/>
<text text-anchor="middle" x="270" y="-86.3" font-family="Times New Roman,serif" font-size="14.00">D(copy2)</text>
</g>
<!-- Wd&#45;&gt;D(copy2) -->
<g id="edge7" class="edge"><title>Wd&#45;&gt;D(copy2)</title>
<path fill="none" stroke="black" d="M230.319,-145.465C236.674,-136.742 244.752,-125.654 251.959,-115.762"/>
<polygon fill="black" stroke="black" points="254.943,-117.611 258.002,-107.467 249.285,-113.489 254.943,-117.611"/>
</g>
<!-- D(copy2)&#45;&gt;D_loss -->
<g id="edge9" class="edge"><title>D(copy2)&#45;&gt;D_loss</title>
<path fill="none" stroke="black" d="M270,-71.6966C270,-63.9827 270,-54.7125 270,-46.1124"/>
<polygon fill="black" stroke="black" points="273.5,-46.1043 270,-36.1043 266.5,-46.1044 273.5,-46.1043"/>
</g>
<!-- input_images -->
<g id="node9" class="node"><title>input_images</title>
<ellipse fill="none" stroke="black" cx="322" cy="-162" rx="58.4896" ry="18"/>
<text text-anchor="middle" x="322" y="-158.3" font-family="Times New Roman,serif" font-size="14.00">input_images</text>
</g>
<!-- input_images&#45;&gt;D(copy2) -->
<g id="edge8" class="edge"><title>input_images&#45;&gt;D(copy2)</title>
<path fill="none" stroke="black" d="M309.412,-144.055C303.153,-135.629 295.465,-125.28 288.546,-115.966"/>
<polygon fill="black" stroke="black" points="291.245,-113.729 282.472,-107.789 285.625,-117.904 291.245,-113.729"/>
</g>
<!-- D_loss&#45;&gt;Wd -->
<g id="edge10" class="edge"><title>D_loss&#45;&gt;Wd</title>
<path fill="none" stroke="blue" d="M291.111,-32.7074C303.525,-42.0978 318.1,-55.7692 325,-72 331.26,-86.7248 333.412,-94.3896 325,-108 323.885,-109.804 280.205,-131.284 249.272,-146.337"/>
<polygon fill="blue" stroke="blue" points="247.607,-143.255 240.142,-150.774 250.666,-149.551 247.607,-143.255"/>
</g>
</g>
</svg>
