<?xml version="1.0" encoding="UTF-8" standalone="no"?>
<!DOCTYPE svg PUBLIC "-//W3C//DTD SVG 1.1//EN"
 "http://www.w3.org/Graphics/SVG/1.1/DTD/svg11.dtd">
<!-- Generated by graphviz version 2.38.0 (20140413.2041)
 -->
<!-- Title: %3 Pages: 1 -->
<svg width="343pt" height="260pt"
 viewBox="0.00 0.00 343.01 260.00" xmlns="http://www.w3.org/2000/svg" xmlns:xlink="http://www.w3.org/1999/xlink">
<g id="graph0" class="graph" transform="scale(1 1) rotate(0) translate(4 256)">
<title>%3</title>
<polygon fill="white" stroke="none" points="-4,4 -4,-256 339.011,-256 339.011,4 -4,4"/>
<!-- tiger_face -->
<g id="node1" class="node"><title>tiger_face</title>
<ellipse fill="none" stroke="black" cx="45.4548" cy="-234" rx="45.4096" ry="18"/>
<text text-anchor="middle" x="45.4548" y="-229.8" font-family="Times,serif" font-size="14.00">tiger_face</text>
</g>
<!-- stripe detector -->
<g id="node2" class="node"><title>stripe detector</title>
<ellipse fill="none" stroke="black" cx="104.455" cy="-162" rx="60.3858" ry="18"/>
<text text-anchor="middle" x="104.455" y="-157.8" font-family="Times,serif" font-size="14.00">stripe detector</text>
</g>
<!-- tiger_face&#45;&gt;stripe detector -->
<g id="edge1" class="edge"><title>tiger_face&#45;&gt;stripe detector</title>
<path fill="none" stroke="black" d="M59.1389,-216.765C66.479,-208.056 75.674,-197.147 83.8596,-187.435"/>
<polygon fill="black" stroke="black" points="86.6666,-189.535 90.4352,-179.633 81.3142,-185.024 86.6666,-189.535"/>
</g>
<!-- eye detector -->
<g id="node5" class="node"><title>eye detector</title>
<ellipse fill="none" stroke="black" cx="236.455" cy="-162" rx="53.1353" ry="18"/>
<text text-anchor="middle" x="236.455" y="-157.8" font-family="Times,serif" font-size="14.00">eye detector</text>
</g>
<!-- tiger_face&#45;&gt;eye detector -->
<g id="edge4" class="edge"><title>tiger_face&#45;&gt;eye detector</title>
<path fill="none" stroke="black" d="M77.8553,-221.125C109.279,-209.609 157.199,-192.047 192.142,-179.24"/>
<polygon fill="black" stroke="black" points="193.444,-182.491 201.629,-175.763 191.035,-175.918 193.444,-182.491"/>
</g>
<!-- dangerous if stripe around eye, safe if not -->
<g id="node6" class="node"><title>dangerous if stripe around eye, safe if not</title>
<ellipse fill="none" stroke="black" cx="170.455" cy="-90" rx="156.913" ry="18"/>
<text text-anchor="middle" x="170.455" y="-85.8" font-family="Times,serif" font-size="14.00">dangerous if stripe around eye, safe if not</text>
</g>
<!-- stripe detector&#45;&gt;dangerous if stripe around eye, safe if not -->
<g id="edge8" class="edge"><title>stripe detector&#45;&gt;dangerous if stripe around eye, safe if not</title>
<path fill="none" stroke="black" d="M120.096,-144.411C128.277,-135.734 138.449,-124.946 147.504,-115.342"/>
<polygon fill="black" stroke="black" points="150.154,-117.633 154.467,-107.956 145.061,-112.831 150.154,-117.633"/>
</g>
<!-- stripy_cat_face -->
<g id="node3" class="node"><title>stripy_cat_face</title>
<ellipse fill="none" stroke="black" cx="173.455" cy="-234" rx="64.2441" ry="18"/>
<text text-anchor="middle" x="173.455" y="-229.8" font-family="Times,serif" font-size="14.00">stripy_cat_face</text>
</g>
<!-- stripy_cat_face&#45;&gt;stripe detector -->
<g id="edge2" class="edge"><title>stripy_cat_face&#45;&gt;stripe detector</title>
<path fill="none" stroke="black" d="M157.103,-216.411C148.338,-207.519 137.388,-196.411 127.748,-186.631"/>
<polygon fill="black" stroke="black" points="130.202,-184.135 120.689,-179.47 125.217,-189.049 130.202,-184.135"/>
</g>
<!-- stripy_cat_face&#45;&gt;eye detector -->
<g id="edge5" class="edge"><title>stripy_cat_face&#45;&gt;eye detector</title>
<path fill="none" stroke="black" d="M188.385,-216.411C196.309,-207.606 206.189,-196.628 214.928,-186.919"/>
<polygon fill="black" stroke="black" points="217.544,-189.244 221.632,-179.47 212.341,-184.562 217.544,-189.244"/>
</g>
<!-- cat_face -->
<g id="node4" class="node"><title>cat_face</title>
<ellipse fill="none" stroke="black" cx="295.455" cy="-234" rx="39.6126" ry="18"/>
<text text-anchor="middle" x="295.455" y="-229.8" font-family="Times,serif" font-size="14.00">cat_face</text>
</g>
<!-- cat_face&#45;&gt;stripe detector -->
<g id="edge3" class="edge"><title>cat_face&#45;&gt;stripe detector</title>
<path fill="none" stroke="black" d="M265.611,-222.062C234.826,-210.78 186.399,-193.032 150.661,-179.934"/>
<polygon fill="black" stroke="black" points="151.536,-176.527 140.943,-176.373 149.128,-183.1 151.536,-176.527"/>
</g>
<!-- cat_face&#45;&gt;eye detector -->
<g id="edge6" class="edge"><title>cat_face&#45;&gt;eye detector</title>
<path fill="none" stroke="black" d="M281.771,-216.765C274.431,-208.056 265.236,-197.147 257.05,-187.435"/>
<polygon fill="black" stroke="black" points="259.595,-185.024 250.474,-179.633 254.243,-189.535 259.595,-185.024"/>
</g>
<!-- eye detector&#45;&gt;dangerous if stripe around eye, safe if not -->
<g id="edge7" class="edge"><title>eye detector&#45;&gt;dangerous if stripe around eye, safe if not</title>
<path fill="none" stroke="black" d="M221.147,-144.765C212.974,-136.096 202.746,-125.248 193.621,-115.57"/>
<polygon fill="black" stroke="black" points="196.007,-112.999 186.6,-108.124 190.914,-117.801 196.007,-112.999"/>
</g>
<!-- tiger if dangerous, cat otherwise -->
<g id="node7" class="node"><title>tiger if dangerous, cat otherwise</title>
<ellipse fill="none" stroke="black" cx="170.455" cy="-18" rx="123.605" ry="18"/>
<text text-anchor="middle" x="170.455" y="-13.8" font-family="Times,serif" font-size="14.00">tiger if dangerous, cat otherwise</text>
</g>
<!-- dangerous if stripe around eye, safe if not&#45;&gt;tiger if dangerous, cat otherwise -->
<g id="edge9" class="edge"><title>dangerous if stripe around eye, safe if not&#45;&gt;tiger if dangerous, cat otherwise</title>
<path fill="none" stroke="black" d="M170.455,-71.6966C170.455,-63.9827 170.455,-54.7125 170.455,-46.1124"/>
<polygon fill="black" stroke="black" points="173.955,-46.1043 170.455,-36.1043 166.955,-46.1044 173.955,-46.1043"/>
</g>
</g>
</svg>
