<?xml version="1.0" encoding="UTF-8" standalone="no"?>
<!DOCTYPE svg PUBLIC "-//W3C//DTD SVG 1.1//EN"
 "http://www.w3.org/Graphics/SVG/1.1/DTD/svg11.dtd">
<!-- Generated by graphviz version 2.38.0 (20140413.2041)
 -->
<!-- Title: %3 Pages: 1 -->
<svg width="263pt" height="188pt"
 viewBox="0.00 0.00 263.29 188.00" xmlns="http://www.w3.org/2000/svg" xmlns:xlink="http://www.w3.org/1999/xlink">
<g id="graph0" class="graph" transform="scale(1 1) rotate(0) translate(4 184)">
<title>%3</title>
<polygon fill="white" stroke="none" points="-4,4 -4,-184 259.291,-184 259.291,4 -4,4"/>
<!-- tiger_face -->
<g id="node1" class="node"><title>tiger_face</title>
<ellipse fill="none" stroke="black" cx="76.6455" cy="-162" rx="45.4096" ry="18"/>
<text text-anchor="middle" x="76.6455" y="-157.8" font-family="Times,serif" font-size="14.00">tiger_face</text>
</g>
<!-- stripe detector -->
<g id="node2" class="node"><title>stripe detector</title>
<ellipse fill="none" stroke="black" cx="127.645" cy="-90" rx="60.3858" ry="18"/>
<text text-anchor="middle" x="127.645" y="-85.8" font-family="Times,serif" font-size="14.00">stripe detector</text>
</g>
<!-- tiger_face&#45;&gt;stripe detector -->
<g id="edge1" class="edge"><title>tiger_face&#45;&gt;stripe detector</title>
<path fill="none" stroke="black" d="M88.7318,-144.411C94.8659,-135.992 102.448,-125.585 109.285,-116.201"/>
<polygon fill="black" stroke="black" points="112.232,-118.1 115.292,-107.956 106.574,-113.978 112.232,-118.1"/>
</g>
<!-- tiger if stripe &gt; 1, cat if stripe &lt; 1 -->
<g id="node4" class="node"><title>tiger if stripe &gt; 1, cat if stripe &lt; 1</title>
<ellipse fill="none" stroke="black" cx="127.645" cy="-18" rx="127.791" ry="18"/>
<text text-anchor="middle" x="127.645" y="-13.8" font-family="Times,serif" font-size="14.00">tiger if stripe &gt; 1, cat if stripe &lt; 1</text>
</g>
<!-- stripe detector&#45;&gt;tiger if stripe &gt; 1, cat if stripe &lt; 1 -->
<g id="edge3" class="edge"><title>stripe detector&#45;&gt;tiger if stripe &gt; 1, cat if stripe &lt; 1</title>
<path fill="none" stroke="black" d="M127.645,-71.6966C127.645,-63.9827 127.645,-54.7125 127.645,-46.1124"/>
<polygon fill="black" stroke="black" points="131.146,-46.1043 127.645,-36.1043 124.146,-46.1044 131.146,-46.1043"/>
</g>
<!-- cat_face -->
<g id="node3" class="node"><title>cat_face</title>
<ellipse fill="none" stroke="black" cx="179.645" cy="-162" rx="39.6126" ry="18"/>
<text text-anchor="middle" x="179.645" y="-157.8" font-family="Times,serif" font-size="14.00">cat_face</text>
</g>
<!-- cat_face&#45;&gt;stripe detector -->
<g id="edge2" class="edge"><title>cat_face&#45;&gt;stripe detector</title>
<path fill="none" stroke="black" d="M167.585,-144.765C161.18,-136.143 153.174,-125.365 146.014,-115.727"/>
<polygon fill="black" stroke="black" points="148.775,-113.574 140.002,-107.633 143.155,-117.748 148.775,-113.574"/>
</g>
</g>
</svg>
