<?xml version="1.0" encoding="UTF-8" standalone="no"?>
<!DOCTYPE svg PUBLIC "-//W3C//DTD SVG 1.1//EN"
 "http://www.w3.org/Graphics/SVG/1.1/DTD/svg11.dtd">
<!-- Generated by graphviz version 2.38.0 (20140413.2041)
 -->
<!-- Title: %3 Pages: 1 -->
<svg width="538pt" height="260pt"
 viewBox="0.00 0.00 538.23 260.00" xmlns="http://www.w3.org/2000/svg" xmlns:xlink="http://www.w3.org/1999/xlink">
<g id="graph0" class="graph" transform="scale(1 1) rotate(0) translate(4 256)">
<title>%3</title>
<polygon fill="white" stroke="none" points="-4,4 -4,-256 534.231,-256 534.231,4 -4,4"/>
<!-- input -->
<g id="node1" class="node"><title>input</title>
<ellipse fill="none" stroke="black" cx="297.476" cy="-234" rx="28.0736" ry="18"/>
<text text-anchor="middle" x="297.476" y="-229.8" font-family="Times,serif" font-size="14.00">input</text>
</g>
<!-- leg_width -->
<g id="node2" class="node"><title>leg_width</title>
<ellipse fill="none" stroke="black" cx="45.4764" cy="-90" rx="45.4527" ry="18"/>
<text text-anchor="middle" x="45.4764" y="-85.8" font-family="Times,serif" font-size="14.00">leg_width</text>
</g>
<!-- input&#45;&gt;leg_width -->
<g id="edge1" class="edge"><title>input&#45;&gt;leg_width</title>
<path fill="none" stroke="black" d="M269.147,-231.727C206.897,-228.276 61.343,-216.405 31.4764,-180 17.1334,-162.517 23.4557,-136.396 31.6766,-116.969"/>
<polygon fill="black" stroke="black" points="34.9093,-118.316 35.9154,-107.77 28.5517,-115.387 34.9093,-118.316"/>
</g>
<!-- stripe -->
<g id="node3" class="node"><title>stripe</title>
<ellipse fill="none" stroke="black" cx="500.476" cy="-162" rx="29.5104" ry="18"/>
<text text-anchor="middle" x="500.476" y="-157.8" font-family="Times,serif" font-size="14.00">stripe</text>
</g>
<!-- input&#45;&gt;stripe -->
<g id="edge2" class="edge"><title>input&#45;&gt;stripe</title>
<path fill="none" stroke="black" d="M322.387,-225.096C353.795,-215.04 409.382,-196.936 456.476,-180 459.814,-178.8 463.282,-177.519 466.74,-176.219"/>
<polygon fill="black" stroke="black" points="468.248,-179.39 476.346,-172.558 465.755,-172.849 468.248,-179.39"/>
</g>
<!-- height -->
<g id="node4" class="node"><title>height</title>
<ellipse fill="none" stroke="black" cx="440.476" cy="-90" rx="32.4237" ry="18"/>
<text text-anchor="middle" x="440.476" y="-85.8" font-family="Times,serif" font-size="14.00">height</text>
</g>
<!-- input&#45;&gt;height -->
<g id="edge3" class="edge"><title>input&#45;&gt;height</title>
<path fill="none" stroke="black" d="M324.844,-229.155C353.888,-223.571 398.909,-210.338 423.476,-180 437.444,-162.751 441.179,-137.481 441.718,-118.27"/>
<polygon fill="black" stroke="black" points="445.218,-118.042 441.727,-108.039 438.218,-118.036 445.218,-118.042"/>
</g>
<!-- body_position -->
<g id="node5" class="node"><title>body_position</title>
<ellipse fill="none" stroke="black" cx="101.476" cy="-162" rx="60.9306" ry="18"/>
<text text-anchor="middle" x="101.476" y="-157.8" font-family="Times,serif" font-size="14.00">body_position</text>
</g>
<!-- input&#45;&gt;body_position -->
<g id="edge4" class="edge"><title>input&#45;&gt;body_position</title>
<path fill="none" stroke="black" d="M273.443,-224.417C242.439,-213.344 187.823,-193.838 148.448,-179.776"/>
<polygon fill="black" stroke="black" points="149.384,-176.393 138.789,-176.326 147.03,-182.986 149.384,-176.393"/>
</g>
<!-- leg_position -->
<g id="node6" class="node"><title>leg_position</title>
<ellipse fill="none" stroke="black" cx="234.476" cy="-162" rx="53.6643" ry="18"/>
<text text-anchor="middle" x="234.476" y="-157.8" font-family="Times,serif" font-size="14.00">leg_position</text>
</g>
<!-- input&#45;&gt;leg_position -->
<g id="edge5" class="edge"><title>input&#45;&gt;leg_position</title>
<path fill="none" stroke="black" d="M283.806,-217.811C275.732,-208.839 265.326,-197.278 256.155,-187.087"/>
<polygon fill="black" stroke="black" points="258.733,-184.719 249.441,-179.628 253.53,-189.402 258.733,-184.719"/>
</g>
<!-- tail_position -->
<g id="node7" class="node"><title>tail_position</title>
<ellipse fill="none" stroke="black" cx="360.476" cy="-162" rx="54.1489" ry="18"/>
<text text-anchor="middle" x="360.476" y="-157.8" font-family="Times,serif" font-size="14.00">tail_position</text>
</g>
<!-- input&#45;&gt;tail_position -->
<g id="edge6" class="edge"><title>input&#45;&gt;tail_position</title>
<path fill="none" stroke="black" d="M311.146,-217.811C319.221,-208.839 329.626,-197.278 338.798,-187.087"/>
<polygon fill="black" stroke="black" points="341.423,-189.402 345.511,-179.628 336.22,-184.719 341.423,-189.402"/>
</g>
<!-- elephant -->
<g id="node11" class="node"><title>elephant</title>
<ellipse fill="none" stroke="black" cx="278.476" cy="-18" rx="40.123" ry="18"/>
<text text-anchor="middle" x="278.476" y="-13.8" font-family="Times,serif" font-size="14.00">elephant</text>
</g>
<!-- leg_width&#45;&gt;elephant -->
<g id="edge17" class="edge"><title>leg_width&#45;&gt;elephant</title>
<path fill="none" stroke="black" d="M79.7286,-78.1198C86.2781,-76.0669 93.0844,-73.9523 99.4764,-72 146.084,-57.7648 199.694,-41.9676 236.001,-31.3542"/>
<polygon fill="black" stroke="black" points="237.145,-34.6665 245.763,-28.5037 235.182,-27.9471 237.145,-34.6665"/>
</g>
<!-- hippo -->
<g id="node12" class="node"><title>hippo</title>
<ellipse fill="none" stroke="black" cx="122.476" cy="-18" rx="30.0035" ry="18"/>
<text text-anchor="middle" x="122.476" y="-13.8" font-family="Times,serif" font-size="14.00">hippo</text>
</g>
<!-- leg_width&#45;&gt;hippo -->
<g id="edge21" class="edge"><title>leg_width&#45;&gt;hippo</title>
<path fill="none" stroke="black" d="M62.9489,-73.1159C73.6202,-63.4147 87.4007,-50.887 99.0148,-40.3287"/>
<polygon fill="black" stroke="black" points="101.599,-42.7092 106.644,-33.3927 96.8906,-37.5296 101.599,-42.7092"/>
</g>
<!-- dog -->
<g id="node10" class="node"><title>dog</title>
<ellipse fill="none" stroke="black" cx="446.476" cy="-18" rx="27" ry="18"/>
<text text-anchor="middle" x="446.476" y="-13.8" font-family="Times,serif" font-size="14.00">dog</text>
</g>
<!-- stripe&#45;&gt;dog -->
<g id="edge14" class="edge"><title>stripe&#45;&gt;dog</title>
<path fill="none" stroke="black" d="M498.718,-143.7C496.414,-125.338 491.434,-95.7505 481.476,-72 477.192,-61.78 470.877,-51.416 464.787,-42.5963"/>
<polygon fill="black" stroke="black" points="467.537,-40.4257 458.854,-34.3537 461.855,-44.5147 467.537,-40.4257"/>
</g>
<!-- height&#45;&gt;dog -->
<g id="edge15" class="edge"><title>height&#45;&gt;dog</title>
<path fill="none" stroke="black" d="M441.96,-71.6966C442.621,-63.9827 443.415,-54.7125 444.152,-46.1124"/>
<polygon fill="black" stroke="black" points="447.643,-46.3667 445.01,-36.1043 440.669,-45.7689 447.643,-46.3667"/>
</g>
<!-- height&#45;&gt;elephant -->
<g id="edge19" class="edge"><title>height&#45;&gt;elephant</title>
<path fill="none" stroke="black" d="M415.872,-78.3685C389.275,-66.8761 346.574,-48.4251 315.832,-35.1413"/>
<polygon fill="black" stroke="black" points="316.874,-31.779 306.306,-31.0253 314.098,-38.2048 316.874,-31.779"/>
</g>
<!-- mule -->
<g id="node13" class="node"><title>mule</title>
<ellipse fill="none" stroke="black" cx="373.476" cy="-18" rx="27.5804" ry="18"/>
<text text-anchor="middle" x="373.476" y="-13.8" font-family="Times,serif" font-size="14.00">mule</text>
</g>
<!-- height&#45;&gt;mule -->
<g id="edge24" class="edge"><title>height&#45;&gt;mule</title>
<path fill="none" stroke="black" d="M425.938,-73.811C416.771,-64.2335 404.78,-51.7049 394.575,-41.0437"/>
<polygon fill="black" stroke="black" points="396.97,-38.4837 387.527,-33.6796 391.913,-43.3239 396.97,-38.4837"/>
</g>
<!-- is_animal -->
<g id="node8" class="node"><title>is_animal</title>
<ellipse fill="none" stroke="black" cx="270.476" cy="-90" rx="44.4837" ry="18"/>
<text text-anchor="middle" x="270.476" y="-85.8" font-family="Times,serif" font-size="14.00">is_animal</text>
</g>
<!-- body_position&#45;&gt;is_animal -->
<g id="edge7" class="edge"><title>body_position&#45;&gt;is_animal</title>
<path fill="none" stroke="black" d="M135.27,-147.003C162.877,-135.568 201.942,-119.387 230.988,-107.356"/>
<polygon fill="black" stroke="black" points="232.524,-110.508 240.423,-103.448 229.845,-104.041 232.524,-110.508"/>
</g>
<!-- not_animal -->
<g id="node9" class="node"><title>not_animal</title>
<ellipse fill="none" stroke="black" cx="158.476" cy="-90" rx="49.7878" ry="18"/>
<text text-anchor="middle" x="158.476" y="-85.8" font-family="Times,serif" font-size="14.00">not_animal</text>
</g>
<!-- body_position&#45;&gt;not_animal -->
<g id="edge10" class="edge"><title>body_position&#45;&gt;not_animal</title>
<path fill="none" stroke="black" d="M114.985,-144.411C122.012,-135.781 130.74,-125.062 138.529,-115.497"/>
<polygon fill="black" stroke="black" points="141.465,-117.434 145.065,-107.47 136.037,-113.014 141.465,-117.434"/>
</g>
<!-- leg_position&#45;&gt;is_animal -->
<g id="edge8" class="edge"><title>leg_position&#45;&gt;is_animal</title>
<path fill="none" stroke="black" d="M243.191,-144.055C247.392,-135.887 252.522,-125.912 257.195,-116.824"/>
<polygon fill="black" stroke="black" points="260.381,-118.283 261.842,-107.789 254.156,-115.081 260.381,-118.283"/>
</g>
<!-- leg_position&#45;&gt;not_animal -->
<g id="edge11" class="edge"><title>leg_position&#45;&gt;not_animal</title>
<path fill="none" stroke="black" d="M216.849,-144.765C206.899,-135.6 194.302,-123.998 183.36,-113.919"/>
<polygon fill="black" stroke="black" points="185.472,-111.106 175.746,-106.906 180.73,-116.255 185.472,-111.106"/>
</g>
<!-- tail_position&#45;&gt;is_animal -->
<g id="edge9" class="edge"><title>tail_position&#45;&gt;is_animal</title>
<path fill="none" stroke="black" d="M340.054,-145.116C327.685,-135.495 311.742,-123.095 298.238,-112.593"/>
<polygon fill="black" stroke="black" points="300.242,-109.717 290.199,-106.34 295.944,-115.242 300.242,-109.717"/>
</g>
<!-- tail_position&#45;&gt;not_animal -->
<g id="edge12" class="edge"><title>tail_position&#45;&gt;not_animal</title>
<path fill="none" stroke="black" d="M324.363,-148.485C290.443,-136.731 239.592,-119.109 203.138,-106.477"/>
<polygon fill="black" stroke="black" points="203.859,-103.023 193.264,-103.055 201.567,-109.637 203.859,-103.023"/>
</g>
<!-- tail_position&#45;&gt;elephant -->
<g id="edge18" class="edge"><title>tail_position&#45;&gt;elephant</title>
<path fill="none" stroke="black" d="M355.124,-143.849C348.954,-125.352 337.796,-95.4105 323.476,-72 317.111,-61.5936 308.758,-51.1436 300.979,-42.3063"/>
<polygon fill="black" stroke="black" points="303.382,-39.7455 294.07,-34.6913 298.197,-44.4492 303.382,-39.7455"/>
</g>
<!-- tail_position&#45;&gt;mule -->
<g id="edge22" class="edge"><title>tail_position&#45;&gt;mule</title>
<path fill="none" stroke="black" d="M362.044,-143.871C364.26,-119.67 368.33,-75.2108 370.969,-46.3932"/>
<polygon fill="black" stroke="black" points="374.476,-46.4667 371.903,-36.1893 367.506,-45.8285 374.476,-46.4667"/>
</g>
<!-- is_animal&#45;&gt;dog -->
<g id="edge13" class="edge"><title>is_animal&#45;&gt;dog</title>
<path fill="none" stroke="black" d="M303.017,-77.51C331.577,-67.229 374.115,-51.4392 410.476,-36 412.29,-35.2301 414.145,-34.4209 416.011,-33.5908"/>
<polygon fill="black" stroke="black" points="417.645,-36.6925 425.282,-29.3497 414.733,-30.327 417.645,-36.6925"/>
</g>
<!-- is_animal&#45;&gt;elephant -->
<g id="edge16" class="edge"><title>is_animal&#45;&gt;elephant</title>
<path fill="none" stroke="black" d="M272.454,-71.6966C273.335,-63.9827 274.395,-54.7125 275.378,-46.1124"/>
<polygon fill="black" stroke="black" points="278.863,-46.4371 276.522,-36.1043 271.909,-45.6422 278.863,-46.4371"/>
</g>
<!-- is_animal&#45;&gt;hippo -->
<g id="edge20" class="edge"><title>is_animal&#45;&gt;hippo</title>
<path fill="none" stroke="black" d="M242.639,-75.8335C217.581,-63.982 180.766,-46.5695 154.497,-34.145"/>
<polygon fill="black" stroke="black" points="155.874,-30.9245 145.338,-29.8128 152.881,-37.2524 155.874,-30.9245"/>
</g>
<!-- is_animal&#45;&gt;mule -->
<g id="edge23" class="edge"><title>is_animal&#45;&gt;mule</title>
<path fill="none" stroke="black" d="M292.32,-74.1548C308.11,-63.4237 329.542,-48.8582 346.417,-37.39"/>
<polygon fill="black" stroke="black" points="348.468,-40.2277 354.772,-31.712 344.533,-34.4382 348.468,-40.2277"/>
</g>
</g>
</svg>
