<?xml version="1.0" encoding="UTF-8" standalone="no"?>
<!DOCTYPE svg PUBLIC "-//W3C//DTD SVG 1.1//EN"
 "http://www.w3.org/Graphics/SVG/1.1/DTD/svg11.dtd">
<!-- Generated by graphviz version 2.38.0 (20140413.2041)
 -->
<!-- Title: %3 Pages: 1 -->
<svg width="578pt" height="260pt"
 viewBox="0.00 0.00 577.60 260.00" xmlns="http://www.w3.org/2000/svg" xmlns:xlink="http://www.w3.org/1999/xlink">
<g id="graph0" class="graph" transform="scale(1 1) rotate(0) translate(4 256)">
<title>%3</title>
<polygon fill="white" stroke="none" points="-4,4 -4,-256 573.602,-256 573.602,4 -4,4"/>
<!-- input -->
<g id="node1" class="node"><title>input</title>
<ellipse fill="none" stroke="black" cx="272.754" cy="-234" rx="28.0736" ry="18"/>
<text text-anchor="middle" x="272.754" y="-229.8" font-family="Times,serif" font-size="14.00">input</text>
</g>
<!-- stripe -->
<g id="node2" class="node"><title>stripe</title>
<ellipse fill="none" stroke="black" cx="29.7542" cy="-162" rx="29.5104" ry="18"/>
<text text-anchor="middle" x="29.7542" y="-157.8" font-family="Times,serif" font-size="14.00">stripe</text>
</g>
<!-- input&#45;&gt;stripe -->
<g id="edge1" class="edge"><title>input&#45;&gt;stripe</title>
<path fill="none" stroke="black" d="M246.279,-227.517C206.993,-219.069 131.183,-201.567 68.7542,-180 66.5158,-179.227 64.2263,-178.38 61.9337,-177.492"/>
<polygon fill="black" stroke="black" points="63.1946,-174.226 52.614,-173.676 60.5424,-180.704 63.1946,-174.226"/>
</g>
<!-- eye -->
<g id="node3" class="node"><title>eye</title>
<ellipse fill="none" stroke="black" cx="224.754" cy="-162" rx="27" ry="18"/>
<text text-anchor="middle" x="224.754" y="-157.8" font-family="Times,serif" font-size="14.00">eye</text>
</g>
<!-- input&#45;&gt;eye -->
<g id="edge2" class="edge"><title>input&#45;&gt;eye</title>
<path fill="none" stroke="black" d="M261.862,-217.116C255.786,-208.255 248.094,-197.037 241.29,-187.115"/>
<polygon fill="black" stroke="black" points="244.145,-185.089 235.603,-178.821 238.372,-189.048 244.145,-185.089"/>
</g>
<!-- stripe_color -->
<g id="node4" class="node"><title>stripe_color</title>
<ellipse fill="none" stroke="black" cx="321.754" cy="-162" rx="52.1934" ry="18"/>
<text text-anchor="middle" x="321.754" y="-157.8" font-family="Times,serif" font-size="14.00">stripe_color</text>
</g>
<!-- input&#45;&gt;stripe_color -->
<g id="edge3" class="edge"><title>input&#45;&gt;stripe_color</title>
<path fill="none" stroke="black" d="M283.873,-217.116C289.84,-208.592 297.334,-197.886 304.078,-188.251"/>
<polygon fill="black" stroke="black" points="307.129,-189.997 309.996,-179.797 301.394,-185.983 307.129,-189.997"/>
</g>
<!-- fur -->
<g id="node5" class="node"><title>fur</title>
<ellipse fill="none" stroke="black" cx="418.754" cy="-162" rx="27" ry="18"/>
<text text-anchor="middle" x="418.754" y="-157.8" font-family="Times,serif" font-size="14.00">fur</text>
</g>
<!-- input&#45;&gt;fur -->
<g id="edge4" class="edge"><title>input&#45;&gt;fur</title>
<path fill="none" stroke="black" d="M294.612,-222.52C319.375,-210.647 359.917,-191.209 387.897,-177.794"/>
<polygon fill="black" stroke="black" points="389.72,-180.802 397.224,-173.323 386.693,-174.49 389.72,-180.802"/>
</g>
<!-- surrounding -->
<g id="node6" class="node"><title>surrounding</title>
<ellipse fill="none" stroke="black" cx="516.754" cy="-162" rx="52.6952" ry="18"/>
<text text-anchor="middle" x="516.754" y="-157.8" font-family="Times,serif" font-size="14.00">surrounding</text>
</g>
<!-- input&#45;&gt;surrounding -->
<g id="edge5" class="edge"><title>input&#45;&gt;surrounding</title>
<path fill="none" stroke="black" d="M297.947,-225.772C337.9,-214.311 416.511,-191.758 467.821,-177.038"/>
<polygon fill="black" stroke="black" points="469.052,-180.326 477.699,-174.204 467.122,-173.598 469.052,-180.326"/>
</g>
<!-- sharp_teeth -->
<g id="node7" class="node"><title>sharp_teeth</title>
<ellipse fill="none" stroke="black" cx="128.754" cy="-162" rx="50.7397" ry="18"/>
<text text-anchor="middle" x="128.754" y="-157.8" font-family="Times,serif" font-size="14.00">sharp_teeth</text>
</g>
<!-- input&#45;&gt;sharp_teeth -->
<g id="edge6" class="edge"><title>input&#45;&gt;sharp_teeth</title>
<path fill="none" stroke="black" d="M250.884,-222.369C228.573,-211.523 193.514,-194.48 166.67,-181.431"/>
<polygon fill="black" stroke="black" points="168.077,-178.223 157.553,-176.999 165.016,-184.519 168.077,-178.223"/>
</g>
<!-- dangerous -->
<g id="node8" class="node"><title>dangerous</title>
<ellipse fill="none" stroke="black" cx="229.754" cy="-90" rx="46.4046" ry="18"/>
<text text-anchor="middle" x="229.754" y="-85.8" font-family="Times,serif" font-size="14.00">dangerous</text>
</g>
<!-- stripe&#45;&gt;dangerous -->
<g id="edge7" class="edge"><title>stripe&#45;&gt;dangerous</title>
<path fill="none" stroke="black" d="M53.1189,-150.395C58.2345,-148.191 63.6476,-145.949 68.7542,-144 107.374,-129.263 152.085,-114.741 184.576,-104.636"/>
<polygon fill="black" stroke="black" points="185.727,-107.944 194.247,-101.646 183.659,-101.256 185.727,-107.944"/>
</g>
<!-- eye&#45;&gt;dangerous -->
<g id="edge8" class="edge"><title>eye&#45;&gt;dangerous</title>
<path fill="none" stroke="black" d="M225.99,-143.697C226.541,-135.983 227.203,-126.712 227.818,-118.112"/>
<polygon fill="black" stroke="black" points="231.311,-118.328 228.532,-108.104 224.329,-117.83 231.311,-118.328"/>
</g>
<!-- cute -->
<g id="node9" class="node"><title>cute</title>
<ellipse fill="none" stroke="black" cx="325.754" cy="-90" rx="27" ry="18"/>
<text text-anchor="middle" x="325.754" y="-85.8" font-family="Times,serif" font-size="14.00">cute</text>
</g>
<!-- eye&#45;&gt;cute -->
<g id="edge12" class="edge"><title>eye&#45;&gt;cute</title>
<path fill="none" stroke="black" d="M242.811,-148.485C258.512,-137.603 281.469,-121.692 299.253,-109.367"/>
<polygon fill="black" stroke="black" points="301.288,-112.215 307.513,-103.642 297.3,-106.462 301.288,-112.215"/>
</g>
<!-- stripe_color&#45;&gt;dangerous -->
<g id="edge10" class="edge"><title>stripe_color&#45;&gt;dangerous</title>
<path fill="none" stroke="black" d="M300.878,-145.116C288.234,-135.495 271.936,-123.095 258.133,-112.593"/>
<polygon fill="black" stroke="black" points="259.993,-109.61 249.916,-106.34 255.754,-115.181 259.993,-109.61"/>
</g>
<!-- stripe_color&#45;&gt;cute -->
<g id="edge14" class="edge"><title>stripe_color&#45;&gt;cute</title>
<path fill="none" stroke="black" d="M322.743,-143.697C323.184,-135.983 323.713,-126.712 324.205,-118.112"/>
<polygon fill="black" stroke="black" points="327.7,-118.288 324.777,-108.104 320.712,-117.888 327.7,-118.288"/>
</g>
<!-- fur&#45;&gt;dangerous -->
<g id="edge9" class="edge"><title>fur&#45;&gt;dangerous</title>
<path fill="none" stroke="black" d="M397.603,-150.548C392.767,-148.288 387.618,-145.984 382.754,-144 346.819,-129.341 305.145,-115.079 274.374,-105.049"/>
<polygon fill="black" stroke="black" points="275.379,-101.695 264.787,-101.946 273.223,-108.355 275.379,-101.695"/>
</g>
<!-- fur&#45;&gt;cute -->
<g id="edge13" class="edge"><title>fur&#45;&gt;cute</title>
<path fill="none" stroke="black" d="M401.262,-147.834C387.233,-137.274 367.339,-122.3 351.492,-110.373"/>
<polygon fill="black" stroke="black" points="353.263,-107.325 343.168,-104.107 349.053,-112.918 353.263,-107.325"/>
</g>
<!-- rural -->
<g id="node10" class="node"><title>rural</title>
<ellipse fill="none" stroke="black" cx="414.754" cy="-90" rx="27" ry="18"/>
<text text-anchor="middle" x="414.754" y="-85.8" font-family="Times,serif" font-size="14.00">rural</text>
</g>
<!-- surrounding&#45;&gt;rural -->
<g id="edge15" class="edge"><title>surrounding&#45;&gt;rural</title>
<path fill="none" stroke="black" d="M494.37,-145.638C478.833,-134.976 458.057,-120.718 441.625,-109.441"/>
<polygon fill="black" stroke="black" points="443.229,-106.297 433.004,-103.524 439.268,-112.068 443.229,-106.297"/>
</g>
<!-- homestay -->
<g id="node11" class="node"><title>homestay</title>
<ellipse fill="none" stroke="black" cx="511.754" cy="-90" rx="43.9992" ry="18"/>
<text text-anchor="middle" x="511.754" y="-85.8" font-family="Times,serif" font-size="14.00">homestay</text>
</g>
<!-- surrounding&#45;&gt;homestay -->
<g id="edge16" class="edge"><title>surrounding&#45;&gt;homestay</title>
<path fill="none" stroke="black" d="M515.518,-143.697C514.967,-135.983 514.305,-126.712 513.691,-118.112"/>
<polygon fill="black" stroke="black" points="517.18,-117.83 512.976,-108.104 510.197,-118.328 517.18,-117.83"/>
</g>
<!-- sharp_teeth&#45;&gt;dangerous -->
<g id="edge11" class="edge"><title>sharp_teeth&#45;&gt;dangerous</title>
<path fill="none" stroke="black" d="M151.169,-145.465C165.488,-135.541 184.223,-122.556 199.808,-111.755"/>
<polygon fill="black" stroke="black" points="201.87,-114.584 208.095,-106.011 197.882,-108.831 201.87,-114.584"/>
</g>
<!-- output -->
<g id="node12" class="node"><title>output</title>
<ellipse fill="none" stroke="black" cx="369.754" cy="-18" rx="32.9168" ry="18"/>
<text text-anchor="middle" x="369.754" y="-13.8" font-family="Times,serif" font-size="14.00">output</text>
</g>
<!-- dangerous&#45;&gt;output -->
<g id="edge17" class="edge"><title>dangerous&#45;&gt;output</title>
<path fill="none" stroke="black" d="M257.08,-75.3371C279.981,-63.8864 312.737,-47.5083 337.034,-35.3603"/>
<polygon fill="black" stroke="black" points="338.84,-38.3703 346.219,-30.7676 335.709,-32.1093 338.84,-38.3703"/>
</g>
<!-- cute&#45;&gt;output -->
<g id="edge18" class="edge"><title>cute&#45;&gt;output</title>
<path fill="none" stroke="black" d="M335.738,-73.1159C341.174,-64.4685 348.021,-53.5754 354.145,-43.833"/>
<polygon fill="black" stroke="black" points="357.146,-45.636 359.504,-35.307 351.219,-41.9108 357.146,-45.636"/>
</g>
<!-- rural&#45;&gt;output -->
<g id="edge19" class="edge"><title>rural&#45;&gt;output</title>
<path fill="none" stroke="black" d="M404.543,-73.1159C398.984,-64.4685 391.981,-53.5754 385.718,-43.833"/>
<polygon fill="black" stroke="black" points="388.589,-41.8261 380.237,-35.307 382.701,-45.6115 388.589,-41.8261"/>
</g>
<!-- homestay&#45;&gt;output -->
<g id="edge20" class="edge"><title>homestay&#45;&gt;output</title>
<path fill="none" stroke="black" d="M484.711,-75.6688C461.307,-64.1317 427.398,-47.4158 402.47,-35.1276"/>
<polygon fill="black" stroke="black" points="403.914,-31.9372 393.397,-30.6549 400.819,-38.2157 403.914,-31.9372"/>
</g>
</g>
</svg>
