<?xml version="1.0" encoding="UTF-8" standalone="no"?>
<!DOCTYPE svg PUBLIC "-//W3C//DTD SVG 1.1//EN"
 "http://www.w3.org/Graphics/SVG/1.1/DTD/svg11.dtd">
<!-- Generated by graphviz version 2.38.0 (20140413.2041)
 -->
<!-- Title: %3 Pages: 1 -->
<svg width="396pt" height="188pt"
 viewBox="0.00 0.00 395.72 188.00" xmlns="http://www.w3.org/2000/svg" xmlns:xlink="http://www.w3.org/1999/xlink">
<g id="graph0" class="graph" transform="scale(1 1) rotate(0) translate(4 184)">
<title>%3</title>
<polygon fill="white" stroke="none" points="-4,4 -4,-184 391.725,-184 391.725,4 -4,4"/>
<!-- some_vector z -->
<g id="node1" class="node"><title>some_vector z</title>
<ellipse fill="none" stroke="black" cx="70.5041" cy="-162" rx="61.3549" ry="18"/>
<text text-anchor="middle" x="70.5041" y="-157.8" font-family="Times,serif" font-size="14.00">some_vector z</text>
</g>
<!-- G -->
<g id="node2" class="node"><title>G</title>
<ellipse fill="none" stroke="black" cx="70.5041" cy="-90" rx="27" ry="18"/>
<text text-anchor="middle" x="70.5041" y="-85.8" font-family="Times,serif" font-size="14.00">G</text>
</g>
<!-- some_vector z&#45;&gt;G -->
<g id="edge1" class="edge"><title>some_vector z&#45;&gt;G</title>
<path fill="none" stroke="black" d="M70.5041,-143.697C70.5041,-135.983 70.5041,-126.712 70.5041,-118.112"/>
<polygon fill="black" stroke="black" points="74.0042,-118.104 70.5041,-108.104 67.0042,-118.104 74.0042,-118.104"/>
</g>
<!-- generated_image -->
<g id="node3" class="node"><title>generated_image</title>
<ellipse fill="none" stroke="black" cx="70.5041" cy="-18" rx="70.5081" ry="18"/>
<text text-anchor="middle" x="70.5041" y="-13.8" font-family="Times,serif" font-size="14.00">generated_image</text>
</g>
<!-- G&#45;&gt;generated_image -->
<g id="edge2" class="edge"><title>G&#45;&gt;generated_image</title>
<path fill="none" stroke="black" d="M70.5041,-71.6966C70.5041,-63.9827 70.5041,-54.7125 70.5041,-46.1124"/>
<polygon fill="black" stroke="black" points="74.0042,-46.1043 70.5041,-36.1043 67.0042,-46.1044 74.0042,-46.1043"/>
</g>
<!-- input_image -->
<g id="node4" class="node"><title>input_image</title>
<ellipse fill="none" stroke="black" cx="273.504" cy="-162" rx="54.1317" ry="18"/>
<text text-anchor="middle" x="273.504" y="-157.8" font-family="Times,serif" font-size="14.00">input_image</text>
</g>
<!-- D -->
<g id="node5" class="node"><title>D</title>
<ellipse fill="none" stroke="black" cx="273.504" cy="-90" rx="27" ry="18"/>
<text text-anchor="middle" x="273.504" y="-85.8" font-family="Times,serif" font-size="14.00">D</text>
</g>
<!-- input_image&#45;&gt;D -->
<g id="edge3" class="edge"><title>input_image&#45;&gt;D</title>
<path fill="none" stroke="black" d="M273.504,-143.697C273.504,-135.983 273.504,-126.712 273.504,-118.112"/>
<polygon fill="black" stroke="black" points="277.004,-118.104 273.504,-108.104 270.004,-118.104 277.004,-118.104"/>
</g>
<!-- p(input), 1 for real, 0 for fake -->
<g id="node6" class="node"><title>p(input), 1 for real, 0 for fake</title>
<ellipse fill="none" stroke="black" cx="273.504" cy="-18" rx="114.441" ry="18"/>
<text text-anchor="middle" x="273.504" y="-13.8" font-family="Times,serif" font-size="14.00">p(input), 1 for real, 0 for fake</text>
</g>
<!-- D&#45;&gt;p(input), 1 for real, 0 for fake -->
<g id="edge4" class="edge"><title>D&#45;&gt;p(input), 1 for real, 0 for fake</title>
<path fill="none" stroke="black" d="M273.504,-71.6966C273.504,-63.9827 273.504,-54.7125 273.504,-46.1124"/>
<polygon fill="black" stroke="black" points="277.004,-46.1043 273.504,-36.1043 270.004,-46.1044 277.004,-46.1043"/>
</g>
</g>
</svg>
