<?xml version="1.0" encoding="UTF-8" standalone="no"?>
<!DOCTYPE svg PUBLIC "-//W3C//DTD SVG 1.1//EN"
 "http://www.w3.org/Graphics/SVG/1.1/DTD/svg11.dtd">
<!-- Generated by graphviz version 2.38.0 (20140413.2041)
 -->
<!-- Title: %3 Pages: 1 -->
<svg width="269pt" height="188pt"
 viewBox="0.00 0.00 269.28 188.00" xmlns="http://www.w3.org/2000/svg" xmlns:xlink="http://www.w3.org/1999/xlink">
<g id="graph0" class="graph" transform="scale(1 1) rotate(0) translate(4 184)">
<title>%3</title>
<polygon fill="white" stroke="none" points="-4,4 -4,-184 265.277,-184 265.277,4 -4,4"/>
<!-- tiger_face -->
<g id="node1" class="node"><title>tiger_face</title>
<ellipse fill="none" stroke="black" cx="77.6384" cy="-162" rx="46.2923" ry="18"/>
<text text-anchor="middle" x="77.6384" y="-158.3" font-family="Times New Roman,serif" font-size="14.00">tiger_face</text>
</g>
<!-- stripe detector -->
<g id="node2" class="node"><title>stripe detector</title>
<ellipse fill="none" stroke="black" cx="130.638" cy="-90" rx="63.0888" ry="18"/>
<text text-anchor="middle" x="130.638" y="-86.3" font-family="Times New Roman,serif" font-size="14.00">stripe detector</text>
</g>
<!-- tiger_face&#45;&gt;stripe detector -->
<g id="edge1" class="edge"><title>tiger_face&#45;&gt;stripe detector</title>
<path fill="none" stroke="black" d="M90.1987,-144.411C96.5734,-135.992 104.453,-125.585 111.558,-116.201"/>
<polygon fill="black" stroke="black" points="114.554,-118.042 117.8,-107.956 108.973,-113.816 114.554,-118.042"/>
</g>
<!-- tiger if stripe &gt; 1, cat if stripe &lt; 1 -->
<g id="node4" class="node"><title>tiger if stripe &gt; 1, cat if stripe &lt; 1</title>
<ellipse fill="none" stroke="black" cx="130.638" cy="-18" rx="130.777" ry="18"/>
<text text-anchor="middle" x="130.638" y="-14.3" font-family="Times New Roman,serif" font-size="14.00">tiger if stripe &gt; 1, cat if stripe &lt; 1</text>
</g>
<!-- stripe detector&#45;&gt;tiger if stripe &gt; 1, cat if stripe &lt; 1 -->
<g id="edge3" class="edge"><title>stripe detector&#45;&gt;tiger if stripe &gt; 1, cat if stripe &lt; 1</title>
<path fill="none" stroke="black" d="M130.638,-71.6966C130.638,-63.9827 130.638,-54.7125 130.638,-46.1124"/>
<polygon fill="black" stroke="black" points="134.139,-46.1043 130.638,-36.1043 127.139,-46.1044 134.139,-46.1043"/>
</g>
<!-- cat_face -->
<g id="node3" class="node"><title>cat_face</title>
<ellipse fill="none" stroke="black" cx="183.638" cy="-162" rx="41.6928" ry="18"/>
<text text-anchor="middle" x="183.638" y="-158.3" font-family="Times New Roman,serif" font-size="14.00">cat_face</text>
</g>
<!-- cat_face&#45;&gt;stripe detector -->
<g id="edge2" class="edge"><title>cat_face&#45;&gt;stripe detector</title>
<path fill="none" stroke="black" d="M171.346,-144.765C164.913,-136.268 156.894,-125.677 149.678,-116.146"/>
<polygon fill="black" stroke="black" points="152.431,-113.984 143.604,-108.124 146.85,-118.209 152.431,-113.984"/>
</g>
</g>
</svg>
