<?xml version="1.0" encoding="UTF-8" standalone="no"?>
<!DOCTYPE svg PUBLIC "-//W3C//DTD SVG 1.1//EN"
 "http://www.w3.org/Graphics/SVG/1.1/DTD/svg11.dtd">
<!-- Generated by graphviz version 2.38.0 (20140413.2041)
 -->
<!-- Title: %3 Pages: 1 -->
<svg width="464pt" height="260pt"
 viewBox="0.00 0.00 463.94 260.00" xmlns="http://www.w3.org/2000/svg" xmlns:xlink="http://www.w3.org/1999/xlink">
<g id="graph0" class="graph" transform="scale(1 1) rotate(0) translate(4 256)">
<title>%3</title>
<polygon fill="white" stroke="none" points="-4,4 -4,-256 459.939,-256 459.939,4 -4,4"/>
<!-- input -->
<g id="node1" class="node"><title>input</title>
<ellipse fill="none" stroke="black" cx="222.694" cy="-234" rx="28.6953" ry="18"/>
<text text-anchor="middle" x="222.694" y="-230.3" font-family="Times New Roman,serif" font-size="14.00">input</text>
</g>
<!-- fur -->
<g id="node2" class="node"><title>fur</title>
<ellipse fill="none" stroke="black" cx="172.694" cy="-162" rx="27" ry="18"/>
<text text-anchor="middle" x="172.694" y="-158.3" font-family="Times New Roman,serif" font-size="14.00">fur</text>
</g>
<!-- input&#45;&gt;fur -->
<g id="edge1" class="edge"><title>input&#45;&gt;fur</title>
<path fill="none" stroke="black" d="M211.349,-217.116C205.02,-208.255 197.007,-197.037 189.919,-187.115"/>
<polygon fill="black" stroke="black" points="192.656,-184.924 183.995,-178.821 186.96,-188.993 192.656,-184.924"/>
</g>
<!-- body_position -->
<g id="node3" class="node"><title>body_position</title>
<ellipse fill="none" stroke="black" cx="63.6943" cy="-162" rx="63.8893" ry="18"/>
<text text-anchor="middle" x="63.6943" y="-158.3" font-family="Times New Roman,serif" font-size="14.00">body_position</text>
</g>
<!-- input&#45;&gt;body_position -->
<g id="edge2" class="edge"><title>input&#45;&gt;body_position</title>
<path fill="none" stroke="black" d="M199.914,-222.971C175.506,-212.225 136.217,-194.928 106.091,-181.665"/>
<polygon fill="black" stroke="black" points="107.224,-178.34 96.6619,-177.514 104.404,-184.747 107.224,-178.34"/>
</g>
<!-- leg_position -->
<g id="node4" class="node"><title>leg_position</title>
<ellipse fill="none" stroke="black" cx="272.694" cy="-162" rx="55.4913" ry="18"/>
<text text-anchor="middle" x="272.694" y="-158.3" font-family="Times New Roman,serif" font-size="14.00">leg_position</text>
</g>
<!-- input&#45;&gt;leg_position -->
<g id="edge3" class="edge"><title>input&#45;&gt;leg_position</title>
<path fill="none" stroke="black" d="M234.04,-217.116C240.191,-208.505 247.932,-197.667 254.868,-187.957"/>
<polygon fill="black" stroke="black" points="257.732,-189.969 260.696,-179.797 252.036,-185.9 257.732,-189.969"/>
</g>
<!-- tail_position -->
<g id="node5" class="node"><title>tail_position</title>
<ellipse fill="none" stroke="black" cx="400.694" cy="-162" rx="55.4913" ry="18"/>
<text text-anchor="middle" x="400.694" y="-158.3" font-family="Times New Roman,serif" font-size="14.00">tail_position</text>
</g>
<!-- input&#45;&gt;tail_position -->
<g id="edge4" class="edge"><title>input&#45;&gt;tail_position</title>
<path fill="none" stroke="black" d="M246.331,-223.705C274.598,-212.588 322.469,-193.763 357.422,-180.017"/>
<polygon fill="black" stroke="black" points="358.885,-183.203 366.91,-176.286 356.323,-176.688 358.885,-183.203"/>
</g>
<!-- body_fur -->
<g id="node6" class="node"><title>body_fur</title>
<ellipse fill="none" stroke="black" cx="122.694" cy="-90" rx="44.6926" ry="18"/>
<text text-anchor="middle" x="122.694" y="-86.3" font-family="Times New Roman,serif" font-size="14.00">body_fur</text>
</g>
<!-- fur&#45;&gt;body_fur -->
<g id="edge7" class="edge"><title>fur&#45;&gt;body_fur</title>
<path fill="none" stroke="black" d="M161.598,-145.465C155.367,-136.742 147.447,-125.654 140.382,-115.762"/>
<polygon fill="black" stroke="black" points="143.117,-113.57 134.457,-107.467 137.421,-117.639 143.117,-113.57"/>
</g>
<!-- leg_fur -->
<g id="node7" class="node"><title>leg_fur</title>
<ellipse fill="none" stroke="black" cx="221.694" cy="-90" rx="36.2938" ry="18"/>
<text text-anchor="middle" x="221.694" y="-86.3" font-family="Times New Roman,serif" font-size="14.00">leg_fur</text>
</g>
<!-- fur&#45;&gt;leg_fur -->
<g id="edge8" class="edge"><title>fur&#45;&gt;leg_fur</title>
<path fill="none" stroke="black" d="M183.569,-145.465C189.675,-136.742 197.437,-125.654 204.361,-115.762"/>
<polygon fill="black" stroke="black" points="207.3,-117.667 210.167,-107.467 201.565,-113.652 207.3,-117.667"/>
</g>
<!-- body_position&#45;&gt;body_fur -->
<g id="edge5" class="edge"><title>body_position&#45;&gt;body_fur</title>
<path fill="none" stroke="black" d="M77.6765,-144.411C85.0242,-135.693 94.1675,-124.845 102.291,-115.208"/>
<polygon fill="black" stroke="black" points="105.044,-117.372 108.813,-107.47 99.6916,-112.861 105.044,-117.372"/>
</g>
<!-- leg_position&#45;&gt;leg_fur -->
<g id="edge6" class="edge"><title>leg_position&#45;&gt;leg_fur</title>
<path fill="none" stroke="black" d="M260.608,-144.411C254.384,-135.868 246.669,-125.278 239.754,-115.787"/>
<polygon fill="black" stroke="black" points="242.411,-113.491 233.694,-107.47 236.754,-117.613 242.411,-113.491"/>
</g>
<!-- output -->
<g id="node8" class="node"><title>output</title>
<ellipse fill="none" stroke="black" cx="171.694" cy="-18" rx="34.394" ry="18"/>
<text text-anchor="middle" x="171.694" y="-14.3" font-family="Times New Roman,serif" font-size="14.00">output</text>
</g>
<!-- body_fur&#45;&gt;output -->
<g id="edge9" class="edge"><title>body_fur&#45;&gt;output</title>
<path fill="none" stroke="black" d="M134.307,-72.411C140.287,-63.8677 147.699,-53.2785 154.343,-43.7874"/>
<polygon fill="black" stroke="black" points="157.298,-45.6694 160.165,-35.4699 151.563,-41.6552 157.298,-45.6694"/>
</g>
<!-- leg_fur&#45;&gt;output -->
<g id="edge10" class="edge"><title>leg_fur&#45;&gt;output</title>
<path fill="none" stroke="black" d="M210.098,-72.7646C203.85,-64.0181 196.017,-53.0518 189.057,-43.3084"/>
<polygon fill="black" stroke="black" points="191.889,-41.2503 183.228,-35.1473 186.192,-45.319 191.889,-41.2503"/>
</g>
</g>
</svg>
