<?xml version="1.0" encoding="UTF-8" standalone="no"?>
<!DOCTYPE svg PUBLIC "-//W3C//DTD SVG 1.1//EN"
 "http://www.w3.org/Graphics/SVG/1.1/DTD/svg11.dtd">
<!-- Generated by graphviz version 2.38.0 (20140413.2041)
 -->
<!-- Title: %3 Pages: 1 -->
<svg width="541pt" height="260pt"
 viewBox="0.00 0.00 540.69 260.00" xmlns="http://www.w3.org/2000/svg" xmlns:xlink="http://www.w3.org/1999/xlink">
<g id="graph0" class="graph" transform="scale(1 1) rotate(0) translate(4 256)">
<title>%3</title>
<polygon fill="white" stroke="none" points="-4,4 -4,-256 536.693,-256 536.693,4 -4,4"/>
<!-- input -->
<g id="node1" class="node"><title>input</title>
<ellipse fill="none" stroke="black" cx="296.146" cy="-234" rx="28.6953" ry="18"/>
<text text-anchor="middle" x="296.146" y="-230.3" font-family="Times New Roman,serif" font-size="14.00">input</text>
</g>
<!-- leg_width -->
<g id="node2" class="node"><title>leg_width</title>
<ellipse fill="none" stroke="black" cx="46.1459" cy="-90" rx="46.2923" ry="18"/>
<text text-anchor="middle" x="46.1459" y="-86.3" font-family="Times New Roman,serif" font-size="14.00">leg_width</text>
</g>
<!-- input&#45;&gt;leg_width -->
<g id="edge1" class="edge"><title>input&#45;&gt;leg_width</title>
<path fill="none" stroke="black" d="M267.454,-231.89C203.623,-228.755 53.0588,-217.465 22.1459,-180 7.28652,-161.991 17.1588,-135.603 28.3996,-116.235"/>
<polygon fill="black" stroke="black" points="31.446,-117.964 33.7505,-107.622 25.5002,-114.269 31.446,-117.964"/>
</g>
<!-- stripe -->
<g id="node3" class="node"><title>stripe</title>
<ellipse fill="none" stroke="black" cx="502.146" cy="-162" rx="30.5947" ry="18"/>
<text text-anchor="middle" x="502.146" y="-158.3" font-family="Times New Roman,serif" font-size="14.00">stripe</text>
</g>
<!-- input&#45;&gt;stripe -->
<g id="edge2" class="edge"><title>input&#45;&gt;stripe</title>
<path fill="none" stroke="black" d="M321.082,-225.16C352.822,-215.095 409.284,-196.91 457.146,-180 460.475,-178.824 463.932,-177.572 467.384,-176.303"/>
<polygon fill="black" stroke="black" points="468.84,-179.495 476.988,-172.723 466.395,-172.936 468.84,-179.495"/>
</g>
<!-- height -->
<g id="node4" class="node"><title>height</title>
<ellipse fill="none" stroke="black" cx="442.146" cy="-90" rx="32.4942" ry="18"/>
<text text-anchor="middle" x="442.146" y="-86.3" font-family="Times New Roman,serif" font-size="14.00">height</text>
</g>
<!-- input&#45;&gt;height -->
<g id="edge3" class="edge"><title>input&#45;&gt;height</title>
<path fill="none" stroke="black" d="M323.874,-229.233C353.315,-223.717 398.995,-210.543 424.146,-180 438.285,-162.83 442.306,-137.551 443.068,-118.318"/>
<polygon fill="black" stroke="black" points="446.57,-118.115 443.195,-108.072 439.571,-118.028 446.57,-118.115"/>
</g>
<!-- body_position -->
<g id="node5" class="node"><title>body_position</title>
<ellipse fill="none" stroke="black" cx="95.1459" cy="-162" rx="63.8893" ry="18"/>
<text text-anchor="middle" x="95.1459" y="-158.3" font-family="Times New Roman,serif" font-size="14.00">body_position</text>
</g>
<!-- input&#45;&gt;body_position -->
<g id="edge4" class="edge"><title>input&#45;&gt;body_position</title>
<path fill="none" stroke="black" d="M271.499,-224.417C239.734,-213.354 183.799,-193.874 143.428,-179.815"/>
<polygon fill="black" stroke="black" points="144.377,-176.439 133.782,-176.455 142.074,-183.049 144.377,-176.439"/>
</g>
<!-- leg_position -->
<g id="node6" class="node"><title>leg_position</title>
<ellipse fill="none" stroke="black" cx="232.146" cy="-162" rx="55.4913" ry="18"/>
<text text-anchor="middle" x="232.146" y="-158.3" font-family="Times New Roman,serif" font-size="14.00">leg_position</text>
</g>
<!-- input&#45;&gt;leg_position -->
<g id="edge5" class="edge"><title>input&#45;&gt;leg_position</title>
<path fill="none" stroke="black" d="M282.573,-218.155C274.386,-209.2 263.758,-197.576 254.371,-187.309"/>
<polygon fill="black" stroke="black" points="256.827,-184.808 247.496,-179.789 251.66,-189.531 256.827,-184.808"/>
</g>
<!-- tail_position -->
<g id="node7" class="node"><title>tail_position</title>
<ellipse fill="none" stroke="black" cx="360.146" cy="-162" rx="55.4913" ry="18"/>
<text text-anchor="middle" x="360.146" y="-158.3" font-family="Times New Roman,serif" font-size="14.00">tail_position</text>
</g>
<!-- input&#45;&gt;tail_position -->
<g id="edge6" class="edge"><title>input&#45;&gt;tail_position</title>
<path fill="none" stroke="black" d="M309.719,-218.155C317.906,-209.2 328.534,-197.576 337.921,-187.309"/>
<polygon fill="black" stroke="black" points="340.631,-189.531 344.796,-179.789 335.465,-184.808 340.631,-189.531"/>
</g>
<!-- elephant -->
<g id="node11" class="node"><title>elephant</title>
<ellipse fill="none" stroke="black" cx="280.146" cy="-18" rx="40.0939" ry="18"/>
<text text-anchor="middle" x="280.146" y="-14.3" font-family="Times New Roman,serif" font-size="14.00">elephant</text>
</g>
<!-- leg_width&#45;&gt;elephant -->
<g id="edge17" class="edge"><title>leg_width&#45;&gt;elephant</title>
<path fill="none" stroke="black" d="M81.0412,-78.1456C87.7112,-76.0903 94.641,-73.9682 101.146,-72 147.79,-57.8865 201.394,-42.0679 237.689,-31.4163"/>
<polygon fill="black" stroke="black" points="238.837,-34.7273 247.448,-28.5547 236.867,-28.0102 238.837,-34.7273"/>
</g>
<!-- hippo -->
<g id="node12" class="node"><title>hippo</title>
<ellipse fill="none" stroke="black" cx="122.146" cy="-18" rx="31.6951" ry="18"/>
<text text-anchor="middle" x="122.146" y="-14.3" font-family="Times New Roman,serif" font-size="14.00">hippo</text>
</g>
<!-- leg_width&#45;&gt;hippo -->
<g id="edge21" class="edge"><title>leg_width&#45;&gt;hippo</title>
<path fill="none" stroke="black" d="M63.3915,-73.1159C73.8531,-63.4802 87.3421,-51.0562 98.7564,-40.543"/>
<polygon fill="black" stroke="black" points="101.28,-42.9769 106.264,-33.6277 96.5378,-37.828 101.28,-42.9769"/>
</g>
<!-- dog -->
<g id="node10" class="node"><title>dog</title>
<ellipse fill="none" stroke="black" cx="448.146" cy="-18" rx="27" ry="18"/>
<text text-anchor="middle" x="448.146" y="-14.3" font-family="Times New Roman,serif" font-size="14.00">dog</text>
</g>
<!-- stripe&#45;&gt;dog -->
<g id="edge14" class="edge"><title>stripe&#45;&gt;dog</title>
<path fill="none" stroke="black" d="M500.388,-143.7C498.083,-125.338 493.103,-95.7505 483.146,-72 478.861,-61.78 472.547,-51.416 466.456,-42.5963"/>
<polygon fill="black" stroke="black" points="469.206,-40.4257 460.524,-34.3537 463.525,-44.5147 469.206,-40.4257"/>
</g>
<!-- height&#45;&gt;dog -->
<g id="edge15" class="edge"><title>height&#45;&gt;dog</title>
<path fill="none" stroke="black" d="M443.629,-71.6966C444.29,-63.9827 445.085,-54.7125 445.822,-46.1124"/>
<polygon fill="black" stroke="black" points="449.313,-46.3667 446.68,-36.1043 442.339,-45.7689 449.313,-46.3667"/>
</g>
<!-- height&#45;&gt;elephant -->
<g id="edge19" class="edge"><title>height&#45;&gt;elephant</title>
<path fill="none" stroke="black" d="M417.188,-78.2159C390.6,-66.7269 348.208,-48.4096 317.61,-35.188"/>
<polygon fill="black" stroke="black" points="318.692,-31.8432 308.124,-31.0895 315.916,-38.2689 318.692,-31.8432"/>
</g>
<!-- mule -->
<g id="node13" class="node"><title>mule</title>
<ellipse fill="none" stroke="black" cx="375.146" cy="-18" rx="27.8951" ry="18"/>
<text text-anchor="middle" x="375.146" y="-14.3" font-family="Times New Roman,serif" font-size="14.00">mule</text>
</g>
<!-- height&#45;&gt;mule -->
<g id="edge24" class="edge"><title>height&#45;&gt;mule</title>
<path fill="none" stroke="black" d="M427.608,-73.811C418.441,-64.2335 406.449,-51.7049 396.245,-41.0437"/>
<polygon fill="black" stroke="black" points="398.639,-38.4837 389.196,-33.6796 393.583,-43.3239 398.639,-38.4837"/>
</g>
<!-- is_animal -->
<g id="node8" class="node"><title>is_animal</title>
<ellipse fill="none" stroke="black" cx="272.146" cy="-90" rx="44.393" ry="18"/>
<text text-anchor="middle" x="272.146" y="-86.3" font-family="Times New Roman,serif" font-size="14.00">is_animal</text>
</g>
<!-- body_position&#45;&gt;is_animal -->
<g id="edge7" class="edge"><title>body_position&#45;&gt;is_animal</title>
<path fill="none" stroke="black" d="M130.539,-147.003C159.852,-135.41 201.499,-118.94 232.041,-106.861"/>
<polygon fill="black" stroke="black" points="233.525,-110.037 241.537,-103.105 230.951,-103.528 233.525,-110.037"/>
</g>
<!-- not_animal -->
<g id="node9" class="node"><title>not_animal</title>
<ellipse fill="none" stroke="black" cx="160.146" cy="-90" rx="50.0912" ry="18"/>
<text text-anchor="middle" x="160.146" y="-86.3" font-family="Times New Roman,serif" font-size="14.00">not_animal</text>
</g>
<!-- body_position&#45;&gt;not_animal -->
<g id="edge10" class="edge"><title>body_position&#45;&gt;not_animal</title>
<path fill="none" stroke="black" d="M110.55,-144.411C118.726,-135.606 128.92,-124.628 137.935,-114.919"/>
<polygon fill="black" stroke="black" points="140.613,-117.179 144.852,-107.47 135.483,-112.416 140.613,-117.179"/>
</g>
<!-- leg_position&#45;&gt;is_animal -->
<g id="edge8" class="edge"><title>leg_position&#45;&gt;is_animal</title>
<path fill="none" stroke="black" d="M241.829,-144.055C246.546,-135.801 252.317,-125.701 257.553,-116.538"/>
<polygon fill="black" stroke="black" points="260.63,-118.208 262.552,-107.789 254.552,-114.735 260.63,-118.208"/>
</g>
<!-- leg_position&#45;&gt;not_animal -->
<g id="edge11" class="edge"><title>leg_position&#45;&gt;not_animal</title>
<path fill="none" stroke="black" d="M215.447,-144.765C206.087,-135.665 194.255,-124.162 183.94,-114.134"/>
<polygon fill="black" stroke="black" points="186.364,-111.609 176.755,-107.147 181.485,-116.628 186.364,-111.609"/>
</g>
<!-- tail_position&#45;&gt;is_animal -->
<g id="edge9" class="edge"><title>tail_position&#45;&gt;is_animal</title>
<path fill="none" stroke="black" d="M340.177,-145.116C328.083,-135.495 312.494,-123.095 299.291,-112.593"/>
<polygon fill="black" stroke="black" points="301.436,-109.826 291.431,-106.34 297.078,-115.305 301.436,-109.826"/>
</g>
<!-- tail_position&#45;&gt;not_animal -->
<g id="edge12" class="edge"><title>tail_position&#45;&gt;not_animal</title>
<path fill="none" stroke="black" d="M323.927,-148.324C290.384,-136.583 240.408,-119.092 204.49,-106.52"/>
<polygon fill="black" stroke="black" points="205.352,-103.114 194.757,-103.114 203.039,-109.721 205.352,-103.114"/>
</g>
<!-- tail_position&#45;&gt;elephant -->
<g id="edge18" class="edge"><title>tail_position&#45;&gt;elephant</title>
<path fill="none" stroke="black" d="M355.252,-143.831C349.561,-125.319 339.129,-95.3644 325.146,-72 318.881,-61.5326 310.55,-51.0698 302.759,-42.2393"/>
<polygon fill="black" stroke="black" points="305.154,-39.6707 295.832,-34.6353 299.979,-44.3848 305.154,-39.6707"/>
</g>
<!-- tail_position&#45;&gt;mule -->
<g id="edge22" class="edge"><title>tail_position&#45;&gt;mule</title>
<path fill="none" stroke="black" d="M361.955,-143.871C364.512,-119.67 369.208,-75.2108 372.252,-46.3932"/>
<polygon fill="black" stroke="black" points="375.76,-46.5016 373.33,-36.1893 368.799,-45.7662 375.76,-46.5016"/>
</g>
<!-- is_animal&#45;&gt;dog -->
<g id="edge13" class="edge"><title>is_animal&#45;&gt;dog</title>
<path fill="none" stroke="black" d="M304.405,-77.6113C332.967,-67.3328 375.665,-51.49 412.146,-36 413.959,-35.2301 415.815,-34.4209 417.681,-33.5908"/>
<polygon fill="black" stroke="black" points="419.314,-36.6925 426.952,-29.3497 416.402,-30.327 419.314,-36.6925"/>
</g>
<!-- is_animal&#45;&gt;elephant -->
<g id="edge16" class="edge"><title>is_animal&#45;&gt;elephant</title>
<path fill="none" stroke="black" d="M274.123,-71.6966C275.005,-63.9827 276.064,-54.7125 277.047,-46.1124"/>
<polygon fill="black" stroke="black" points="280.533,-46.4371 278.191,-36.1043 273.578,-45.6422 280.533,-46.4371"/>
</g>
<!-- is_animal&#45;&gt;hippo -->
<g id="edge20" class="edge"><title>is_animal&#45;&gt;hippo</title>
<path fill="none" stroke="black" d="M244.284,-75.9976C219.081,-64.2363 181.935,-46.9017 155.232,-34.44"/>
<polygon fill="black" stroke="black" points="156.449,-31.146 145.907,-30.0887 153.489,-37.4892 156.449,-31.146"/>
</g>
<!-- is_animal&#45;&gt;mule -->
<g id="edge23" class="edge"><title>is_animal&#45;&gt;mule</title>
<path fill="none" stroke="black" d="M293.99,-74.1548C309.78,-63.4237 331.212,-48.8582 348.086,-37.39"/>
<polygon fill="black" stroke="black" points="350.138,-40.2277 356.441,-31.712 346.203,-34.4382 350.138,-40.2277"/>
</g>
</g>
</svg>
