<?xml version="1.0" encoding="UTF-8" standalone="no"?>
<!DOCTYPE svg PUBLIC "-//W3C//DTD SVG 1.1//EN"
 "http://www.w3.org/Graphics/SVG/1.1/DTD/svg11.dtd">
<!-- Generated by graphviz version 2.38.0 (20140413.2041)
 -->
<!-- Title: %3 Pages: 1 -->
<svg width="454pt" height="260pt"
 viewBox="0.00 0.00 454.04 260.00" xmlns="http://www.w3.org/2000/svg" xmlns:xlink="http://www.w3.org/1999/xlink">
<g id="graph0" class="graph" transform="scale(1 1) rotate(0) translate(4 256)">
<title>%3</title>
<polygon fill="white" stroke="none" points="-4,4 -4,-256 450.039,-256 450.039,4 -4,4"/>
<!-- input -->
<g id="node1" class="node"><title>input</title>
<ellipse fill="none" stroke="black" cx="215.715" cy="-234" rx="28.0736" ry="18"/>
<text text-anchor="middle" x="215.715" y="-229.8" font-family="Times,serif" font-size="14.00">input</text>
</g>
<!-- fur -->
<g id="node2" class="node"><title>fur</title>
<ellipse fill="none" stroke="black" cx="166.715" cy="-162" rx="27" ry="18"/>
<text text-anchor="middle" x="166.715" y="-157.8" font-family="Times,serif" font-size="14.00">fur</text>
</g>
<!-- input&#45;&gt;fur -->
<g id="edge1" class="edge"><title>input&#45;&gt;fur</title>
<path fill="none" stroke="black" d="M204.596,-217.116C198.394,-208.255 190.541,-197.037 183.596,-187.115"/>
<polygon fill="black" stroke="black" points="186.392,-185.006 177.79,-178.821 180.657,-189.021 186.392,-185.006"/>
</g>
<!-- body_position -->
<g id="node3" class="node"><title>body_position</title>
<ellipse fill="none" stroke="black" cx="60.7149" cy="-162" rx="60.9306" ry="18"/>
<text text-anchor="middle" x="60.7149" y="-157.8" font-family="Times,serif" font-size="14.00">body_position</text>
</g>
<!-- input&#45;&gt;body_position -->
<g id="edge2" class="edge"><title>input&#45;&gt;body_position</title>
<path fill="none" stroke="black" d="M193.177,-222.821C169.311,-212.043 131.12,-194.796 101.864,-181.583"/>
<polygon fill="black" stroke="black" points="103.263,-178.375 92.7084,-177.449 100.382,-184.754 103.263,-178.375"/>
</g>
<!-- leg_position -->
<g id="node4" class="node"><title>leg_position</title>
<ellipse fill="none" stroke="black" cx="265.715" cy="-162" rx="53.6643" ry="18"/>
<text text-anchor="middle" x="265.715" y="-157.8" font-family="Times,serif" font-size="14.00">leg_position</text>
</g>
<!-- input&#45;&gt;leg_position -->
<g id="edge3" class="edge"><title>input&#45;&gt;leg_position</title>
<path fill="none" stroke="black" d="M227.061,-217.116C233.211,-208.505 240.952,-197.667 247.889,-187.957"/>
<polygon fill="black" stroke="black" points="250.752,-189.969 253.717,-179.797 245.056,-185.9 250.752,-189.969"/>
</g>
<!-- tail_position -->
<g id="node5" class="node"><title>tail_position</title>
<ellipse fill="none" stroke="black" cx="391.715" cy="-162" rx="54.1489" ry="18"/>
<text text-anchor="middle" x="391.715" y="-157.8" font-family="Times,serif" font-size="14.00">tail_position</text>
</g>
<!-- input&#45;&gt;tail_position -->
<g id="edge4" class="edge"><title>input&#45;&gt;tail_position</title>
<path fill="none" stroke="black" d="M239.086,-223.705C267.035,-212.588 314.369,-193.763 348.928,-180.017"/>
<polygon fill="black" stroke="black" points="350.312,-183.234 358.311,-176.286 347.725,-176.729 350.312,-183.234"/>
</g>
<!-- body_fur -->
<g id="node6" class="node"><title>body_fur</title>
<ellipse fill="none" stroke="black" cx="118.715" cy="-90" rx="42.5542" ry="18"/>
<text text-anchor="middle" x="118.715" y="-85.8" font-family="Times,serif" font-size="14.00">body_fur</text>
</g>
<!-- fur&#45;&gt;body_fur -->
<g id="edge7" class="edge"><title>fur&#45;&gt;body_fur</title>
<path fill="none" stroke="black" d="M155.823,-145.116C149.978,-136.592 142.637,-125.886 136.03,-116.251"/>
<polygon fill="black" stroke="black" points="138.775,-114.065 130.233,-107.797 133.002,-118.024 138.775,-114.065"/>
</g>
<!-- leg_fur -->
<g id="node7" class="node"><title>leg_fur</title>
<ellipse fill="none" stroke="black" cx="214.715" cy="-90" rx="35.7887" ry="18"/>
<text text-anchor="middle" x="214.715" y="-85.8" font-family="Times,serif" font-size="14.00">leg_fur</text>
</g>
<!-- fur&#45;&gt;leg_fur -->
<g id="edge8" class="edge"><title>fur&#45;&gt;leg_fur</title>
<path fill="none" stroke="black" d="M177.607,-145.116C183.537,-136.469 191.006,-125.575 197.687,-115.833"/>
<polygon fill="black" stroke="black" points="200.764,-117.534 203.533,-107.307 194.991,-113.575 200.764,-117.534"/>
</g>
<!-- body_position&#45;&gt;body_fur -->
<g id="edge5" class="edge"><title>body_position&#45;&gt;body_fur</title>
<path fill="none" stroke="black" d="M74.4601,-144.411C81.6833,-135.693 90.6716,-124.845 98.6571,-115.208"/>
<polygon fill="black" stroke="black" points="101.383,-117.403 105.068,-107.47 95.9931,-112.937 101.383,-117.403"/>
</g>
<!-- leg_position&#45;&gt;leg_fur -->
<g id="edge6" class="edge"><title>leg_position&#45;&gt;leg_fur</title>
<path fill="none" stroke="black" d="M253.629,-144.411C247.404,-135.868 239.689,-125.278 232.774,-115.787"/>
<polygon fill="black" stroke="black" points="235.432,-113.491 226.714,-107.47 229.774,-117.613 235.432,-113.491"/>
</g>
<!-- output -->
<g id="node8" class="node"><title>output</title>
<ellipse fill="none" stroke="black" cx="166.715" cy="-18" rx="32.9168" ry="18"/>
<text text-anchor="middle" x="166.715" y="-13.8" font-family="Times,serif" font-size="14.00">output</text>
</g>
<!-- body_fur&#45;&gt;output -->
<g id="edge9" class="edge"><title>body_fur&#45;&gt;output</title>
<path fill="none" stroke="black" d="M130.09,-72.411C136.033,-63.7439 143.42,-52.9711 150,-43.3754"/>
<polygon fill="black" stroke="black" points="152.983,-45.2148 155.752,-34.9881 147.21,-41.2561 152.983,-45.2148"/>
</g>
<!-- leg_fur&#45;&gt;output -->
<g id="edge10" class="edge"><title>leg_fur&#45;&gt;output</title>
<path fill="none" stroke="black" d="M203.582,-72.7646C197.645,-64.1064 190.217,-53.2731 183.586,-43.604"/>
<polygon fill="black" stroke="black" points="186.329,-41.4152 177.787,-35.1473 180.556,-45.374 186.329,-41.4152"/>
</g>
</g>
</svg>
