<?xml version="1.0" encoding="UTF-8" standalone="no"?>
<!DOCTYPE svg PUBLIC "-//W3C//DTD SVG 1.1//EN"
 "http://www.w3.org/Graphics/SVG/1.1/DTD/svg11.dtd">
<!-- Generated by graphviz version 2.38.0 (20140413.2041)
 -->
<!-- Title: %3 Pages: 1 -->
<svg width="590pt" height="260pt"
 viewBox="0.00 0.00 590.49 260.00" xmlns="http://www.w3.org/2000/svg" xmlns:xlink="http://www.w3.org/1999/xlink">
<g id="graph0" class="graph" transform="scale(1 1) rotate(0) translate(4 256)">
<title>%3</title>
<polygon fill="white" stroke="none" points="-4,4 -4,-256 586.493,-256 586.493,4 -4,4"/>
<!-- input -->
<g id="node1" class="node"><title>input</title>
<ellipse fill="none" stroke="black" cx="279.547" cy="-234" rx="28.6953" ry="18"/>
<text text-anchor="middle" x="279.547" y="-230.3" font-family="Times New Roman,serif" font-size="14.00">input</text>
</g>
<!-- stripe -->
<g id="node2" class="node"><title>stripe</title>
<ellipse fill="none" stroke="black" cx="30.5473" cy="-162" rx="30.5947" ry="18"/>
<text text-anchor="middle" x="30.5473" y="-158.3" font-family="Times New Roman,serif" font-size="14.00">stripe</text>
</g>
<!-- input&#45;&gt;stripe -->
<g id="edge1" class="edge"><title>input&#45;&gt;stripe</title>
<path fill="none" stroke="black" d="M252.619,-227.683C212.262,-219.384 133.953,-201.999 69.5473,-180 67.446,-179.282 65.3005,-178.499 63.15,-177.675"/>
<polygon fill="black" stroke="black" points="64.3943,-174.402 53.8123,-173.881 61.7595,-180.888 64.3943,-174.402"/>
</g>
<!-- eye -->
<g id="node3" class="node"><title>eye</title>
<ellipse fill="none" stroke="black" cx="229.547" cy="-162" rx="27" ry="18"/>
<text text-anchor="middle" x="229.547" y="-158.3" font-family="Times New Roman,serif" font-size="14.00">eye</text>
</g>
<!-- input&#45;&gt;eye -->
<g id="edge2" class="edge"><title>input&#45;&gt;eye</title>
<path fill="none" stroke="black" d="M268.202,-217.116C261.873,-208.255 253.86,-197.037 246.772,-187.115"/>
<polygon fill="black" stroke="black" points="249.509,-184.924 240.848,-178.821 243.813,-188.993 249.509,-184.924"/>
</g>
<!-- stripe_color -->
<g id="node4" class="node"><title>stripe_color</title>
<ellipse fill="none" stroke="black" cx="329.547" cy="-162" rx="54.6905" ry="18"/>
<text text-anchor="middle" x="329.547" y="-158.3" font-family="Times New Roman,serif" font-size="14.00">stripe_color</text>
</g>
<!-- input&#45;&gt;stripe_color -->
<g id="edge3" class="edge"><title>input&#45;&gt;stripe_color</title>
<path fill="none" stroke="black" d="M290.893,-217.116C297.044,-208.505 304.785,-197.667 311.721,-187.957"/>
<polygon fill="black" stroke="black" points="314.585,-189.969 317.549,-179.797 308.889,-185.9 314.585,-189.969"/>
</g>
<!-- fur -->
<g id="node5" class="node"><title>fur</title>
<ellipse fill="none" stroke="black" cx="429.547" cy="-162" rx="27" ry="18"/>
<text text-anchor="middle" x="429.547" y="-158.3" font-family="Times New Roman,serif" font-size="14.00">fur</text>
</g>
<!-- input&#45;&gt;fur -->
<g id="edge4" class="edge"><title>input&#45;&gt;fur</title>
<path fill="none" stroke="black" d="M301.847,-222.681C324.841,-212.028 361.727,-194.91 393.547,-180 395.331,-179.164 397.164,-178.304 399.013,-177.435"/>
<polygon fill="black" stroke="black" points="400.682,-180.517 408.237,-173.089 397.699,-174.185 400.682,-180.517"/>
</g>
<!-- surrounding -->
<g id="node6" class="node"><title>surrounding</title>
<ellipse fill="none" stroke="black" cx="528.547" cy="-162" rx="53.8905" ry="18"/>
<text text-anchor="middle" x="528.547" y="-158.3" font-family="Times New Roman,serif" font-size="14.00">surrounding</text>
</g>
<!-- input&#45;&gt;surrounding -->
<g id="edge5" class="edge"><title>input&#45;&gt;surrounding</title>
<path fill="none" stroke="black" d="M305.257,-225.772C346.113,-214.287 426.584,-191.664 478.938,-176.946"/>
<polygon fill="black" stroke="black" points="480.013,-180.28 488.692,-174.204 478.118,-173.541 480.013,-180.28"/>
</g>
<!-- sharp_teeth -->
<g id="node7" class="node"><title>sharp_teeth</title>
<ellipse fill="none" stroke="black" cx="131.547" cy="-162" rx="52.7911" ry="18"/>
<text text-anchor="middle" x="131.547" y="-158.3" font-family="Times New Roman,serif" font-size="14.00">sharp_teeth</text>
</g>
<!-- input&#45;&gt;sharp_teeth -->
<g id="edge6" class="edge"><title>input&#45;&gt;sharp_teeth</title>
<path fill="none" stroke="black" d="M257.39,-222.52C234.351,-211.624 197.84,-194.355 170.065,-181.218"/>
<polygon fill="black" stroke="black" points="171.549,-178.048 161.013,-176.936 168.556,-184.376 171.549,-178.048"/>
</g>
<!-- dangerous -->
<g id="node8" class="node"><title>dangerous</title>
<ellipse fill="none" stroke="black" cx="235.547" cy="-90" rx="48.1917" ry="18"/>
<text text-anchor="middle" x="235.547" y="-86.3" font-family="Times New Roman,serif" font-size="14.00">dangerous</text>
</g>
<!-- stripe&#45;&gt;dangerous -->
<g id="edge7" class="edge"><title>stripe&#45;&gt;dangerous</title>
<path fill="none" stroke="black" d="M53.8988,-150.36C59.0153,-148.159 64.432,-145.926 69.5473,-144 109.19,-129.076 155.125,-114.623 188.612,-104.589"/>
<polygon fill="black" stroke="black" points="189.997,-107.829 198.584,-101.622 188.001,-101.12 189.997,-107.829"/>
</g>
<!-- eye&#45;&gt;dangerous -->
<g id="edge8" class="edge"><title>eye&#45;&gt;dangerous</title>
<path fill="none" stroke="black" d="M231.03,-143.697C231.692,-135.983 232.486,-126.712 233.223,-118.112"/>
<polygon fill="black" stroke="black" points="236.714,-118.367 234.081,-108.104 229.74,-117.769 236.714,-118.367"/>
</g>
<!-- cute -->
<g id="node9" class="node"><title>cute</title>
<ellipse fill="none" stroke="black" cx="334.547" cy="-90" rx="27" ry="18"/>
<text text-anchor="middle" x="334.547" y="-86.3" font-family="Times New Roman,serif" font-size="14.00">cute</text>
</g>
<!-- eye&#45;&gt;cute -->
<g id="edge12" class="edge"><title>eye&#45;&gt;cute</title>
<path fill="none" stroke="black" d="M248.319,-148.485C264.818,-137.486 289.024,-121.349 307.593,-108.97"/>
<polygon fill="black" stroke="black" points="309.559,-111.865 315.938,-103.406 305.676,-106.041 309.559,-111.865"/>
</g>
<!-- stripe_color&#45;&gt;dangerous -->
<g id="edge10" class="edge"><title>stripe_color&#45;&gt;dangerous</title>
<path fill="none" stroke="black" d="M308.217,-145.116C295.298,-135.495 278.647,-123.095 264.543,-112.593"/>
<polygon fill="black" stroke="black" points="266.258,-109.506 256.147,-106.34 262.077,-115.12 266.258,-109.506"/>
</g>
<!-- stripe_color&#45;&gt;cute -->
<g id="edge14" class="edge"><title>stripe_color&#45;&gt;cute</title>
<path fill="none" stroke="black" d="M330.783,-143.697C331.334,-135.983 331.996,-126.712 332.611,-118.112"/>
<polygon fill="black" stroke="black" points="336.104,-118.328 333.326,-108.104 329.122,-117.83 336.104,-118.328"/>
</g>
<!-- fur&#45;&gt;dangerous -->
<g id="edge9" class="edge"><title>fur&#45;&gt;dangerous</title>
<path fill="none" stroke="black" d="M408.41,-150.513C403.574,-148.255 398.421,-145.96 393.547,-144 356.61,-129.143 313.73,-114.945 281.969,-104.989"/>
<polygon fill="black" stroke="black" points="282.658,-101.538 272.069,-101.911 280.579,-108.222 282.658,-101.538"/>
</g>
<!-- fur&#45;&gt;cute -->
<g id="edge13" class="edge"><title>fur&#45;&gt;cute</title>
<path fill="none" stroke="black" d="M412.123,-148.161C397.617,-137.473 376.755,-122.101 360.318,-109.989"/>
<polygon fill="black" stroke="black" points="362.31,-107.109 352.183,-103.995 358.157,-112.744 362.31,-107.109"/>
</g>
<!-- rural -->
<g id="node10" class="node"><title>rural</title>
<ellipse fill="none" stroke="black" cx="424.547" cy="-90" rx="27" ry="18"/>
<text text-anchor="middle" x="424.547" y="-86.3" font-family="Times New Roman,serif" font-size="14.00">rural</text>
</g>
<!-- surrounding&#45;&gt;rural -->
<g id="edge15" class="edge"><title>surrounding&#45;&gt;rural</title>
<path fill="none" stroke="black" d="M505.724,-145.638C489.634,-134.808 468.034,-120.27 451.16,-108.912"/>
<polygon fill="black" stroke="black" points="453.071,-105.98 442.821,-103.299 449.162,-111.787 453.071,-105.98"/>
</g>
<!-- homestay -->
<g id="node11" class="node"><title>homestay</title>
<ellipse fill="none" stroke="black" cx="523.547" cy="-90" rx="45.4919" ry="18"/>
<text text-anchor="middle" x="523.547" y="-86.3" font-family="Times New Roman,serif" font-size="14.00">homestay</text>
</g>
<!-- surrounding&#45;&gt;homestay -->
<g id="edge16" class="edge"><title>surrounding&#45;&gt;homestay</title>
<path fill="none" stroke="black" d="M527.311,-143.697C526.76,-135.983 526.098,-126.712 525.484,-118.112"/>
<polygon fill="black" stroke="black" points="528.973,-117.83 524.769,-108.104 521.99,-118.328 528.973,-117.83"/>
</g>
<!-- sharp_teeth&#45;&gt;dangerous -->
<g id="edge11" class="edge"><title>sharp_teeth&#45;&gt;dangerous</title>
<path fill="none" stroke="black" d="M154.371,-145.638C169.102,-135.723 188.453,-122.698 204.566,-111.853"/>
<polygon fill="black" stroke="black" points="206.793,-114.573 213.135,-106.085 202.885,-108.766 206.793,-114.573"/>
</g>
<!-- output -->
<g id="node12" class="node"><title>output</title>
<ellipse fill="none" stroke="black" cx="379.547" cy="-18" rx="34.394" ry="18"/>
<text text-anchor="middle" x="379.547" y="-14.3" font-family="Times New Roman,serif" font-size="14.00">output</text>
</g>
<!-- dangerous&#45;&gt;output -->
<g id="edge17" class="edge"><title>dangerous&#45;&gt;output</title>
<path fill="none" stroke="black" d="M263.654,-75.3371C287.169,-63.9063 320.785,-47.5652 345.761,-35.4237"/>
<polygon fill="black" stroke="black" points="347.409,-38.5147 354.872,-30.9949 344.348,-32.2191 347.409,-38.5147"/>
</g>
<!-- cute&#45;&gt;output -->
<g id="edge18" class="edge"><title>cute&#45;&gt;output</title>
<path fill="none" stroke="black" d="M344.758,-73.1159C350.318,-64.4685 357.32,-53.5754 363.583,-43.833"/>
<polygon fill="black" stroke="black" points="366.601,-45.6115 369.064,-35.307 360.712,-41.8261 366.601,-45.6115"/>
</g>
<!-- rural&#45;&gt;output -->
<g id="edge19" class="edge"><title>rural&#45;&gt;output</title>
<path fill="none" stroke="black" d="M414.336,-73.1159C408.777,-64.4685 401.774,-53.5754 395.511,-43.833"/>
<polygon fill="black" stroke="black" points="398.382,-41.8261 390.03,-35.307 392.494,-45.6115 398.382,-41.8261"/>
</g>
<!-- homestay&#45;&gt;output -->
<g id="edge20" class="edge"><title>homestay&#45;&gt;output</title>
<path fill="none" stroke="black" d="M495.783,-75.5033C472.158,-64.0189 438.158,-47.4913 413.029,-35.276"/>
<polygon fill="black" stroke="black" points="414.397,-32.0492 403.873,-30.8251 411.337,-38.3448 414.397,-32.0492"/>
</g>
</g>
</svg>
