<?xml version="1.0" encoding="UTF-8" standalone="no"?>
<!DOCTYPE svg PUBLIC "-//W3C//DTD SVG 1.1//EN"
 "http://www.w3.org/Graphics/SVG/1.1/DTD/svg11.dtd">
<!-- Generated by graphviz version 2.38.0 (20140413.2041)
 -->
<!-- Title: %3 Pages: 1 -->
<svg width="434pt" height="188pt"
 viewBox="0.00 0.00 433.62 188.00" xmlns="http://www.w3.org/2000/svg" xmlns:xlink="http://www.w3.org/1999/xlink">
<g id="graph0" class="graph" transform="scale(1 1) rotate(0) translate(4 184)">
<title>%3</title>
<polygon fill="white" stroke="none" points="-4,4 -4,-184 429.621,-184 429.621,4 -4,4"/>
<!-- some_vector z -->
<g id="node1" class="node"><title>some_vector z</title>
<ellipse fill="none" stroke="black" cx="89.4001" cy="-162" rx="61.3549" ry="18"/>
<text text-anchor="middle" x="89.4001" y="-157.8" font-family="Times,serif" font-size="14.00">some_vector z</text>
</g>
<!-- G -->
<g id="node2" class="node"><title>G</title>
<ellipse fill="none" stroke="black" cx="89.4001" cy="-90" rx="27" ry="18"/>
<text text-anchor="middle" x="89.4001" y="-85.8" font-family="Times,serif" font-size="14.00">G</text>
</g>
<!-- some_vector z&#45;&gt;G -->
<g id="edge1" class="edge"><title>some_vector z&#45;&gt;G</title>
<path fill="none" stroke="black" d="M89.4001,-143.697C89.4001,-135.983 89.4001,-126.712 89.4001,-118.112"/>
<polygon fill="black" stroke="black" points="92.9002,-118.104 89.4001,-108.104 85.9002,-118.104 92.9002,-118.104"/>
</g>
<!-- generated(fake) image -->
<g id="node3" class="node"><title>generated(fake) image</title>
<ellipse fill="none" stroke="black" cx="89.4001" cy="-18" rx="89.3002" ry="18"/>
<text text-anchor="middle" x="89.4001" y="-13.8" font-family="Times,serif" font-size="14.00">generated(fake) image</text>
</g>
<!-- G&#45;&gt;generated(fake) image -->
<g id="edge2" class="edge"><title>G&#45;&gt;generated(fake) image</title>
<path fill="none" stroke="black" d="M89.4001,-71.6966C89.4001,-63.9827 89.4001,-54.7125 89.4001,-46.1124"/>
<polygon fill="black" stroke="black" points="92.9002,-46.1043 89.4001,-36.1043 85.9002,-46.1044 92.9002,-46.1043"/>
</g>
<!-- input(real) image -->
<g id="node4" class="node"><title>input(real) image</title>
<ellipse fill="none" stroke="black" cx="311.4" cy="-162" rx="71.4944" ry="18"/>
<text text-anchor="middle" x="311.4" y="-157.8" font-family="Times,serif" font-size="14.00">input(real) image</text>
</g>
<!-- D -->
<g id="node5" class="node"><title>D</title>
<ellipse fill="none" stroke="black" cx="311.4" cy="-90" rx="27" ry="18"/>
<text text-anchor="middle" x="311.4" y="-85.8" font-family="Times,serif" font-size="14.00">D</text>
</g>
<!-- input(real) image&#45;&gt;D -->
<g id="edge3" class="edge"><title>input(real) image&#45;&gt;D</title>
<path fill="none" stroke="black" d="M311.4,-143.697C311.4,-135.983 311.4,-126.712 311.4,-118.112"/>
<polygon fill="black" stroke="black" points="314.9,-118.104 311.4,-108.104 307.9,-118.104 314.9,-118.104"/>
</g>
<!-- p(input), 1 for real, 0 for fake -->
<g id="node6" class="node"><title>p(input), 1 for real, 0 for fake</title>
<ellipse fill="none" stroke="black" cx="311.4" cy="-18" rx="114.441" ry="18"/>
<text text-anchor="middle" x="311.4" y="-13.8" font-family="Times,serif" font-size="14.00">p(input), 1 for real, 0 for fake</text>
</g>
<!-- D&#45;&gt;p(input), 1 for real, 0 for fake -->
<g id="edge4" class="edge"><title>D&#45;&gt;p(input), 1 for real, 0 for fake</title>
<path fill="none" stroke="black" d="M311.4,-71.6966C311.4,-63.9827 311.4,-54.7125 311.4,-46.1124"/>
<polygon fill="black" stroke="black" points="314.9,-46.1043 311.4,-36.1043 307.9,-46.1044 314.9,-46.1043"/>
</g>
</g>
</svg>
