<?xml version="1.0" encoding="UTF-8" standalone="no"?>
<!DOCTYPE svg PUBLIC "-//W3C//DTD SVG 1.1//EN"
 "http://www.w3.org/Graphics/SVG/1.1/DTD/svg11.dtd">
<!-- Generated by graphviz version 2.38.0 (20140413.2041)
 -->
<!-- Title: %3 Pages: 1 -->
<svg width="354pt" height="260pt"
 viewBox="0.00 0.00 353.74 260.00" xmlns="http://www.w3.org/2000/svg" xmlns:xlink="http://www.w3.org/1999/xlink">
<g id="graph0" class="graph" transform="scale(1 1) rotate(0) translate(4 256)">
<title>%3</title>
<polygon fill="white" stroke="none" points="-4,4 -4,-256 349.742,-256 349.742,4 -4,4"/>
<!-- tiger_face -->
<g id="node1" class="node"><title>tiger_face</title>
<ellipse fill="none" stroke="black" cx="46.1459" cy="-234" rx="46.2923" ry="18"/>
<text text-anchor="middle" x="46.1459" y="-230.3" font-family="Times New Roman,serif" font-size="14.00">tiger_face</text>
</g>
<!-- stripe detector -->
<g id="node2" class="node"><title>stripe detector</title>
<ellipse fill="none" stroke="black" cx="107.146" cy="-162" rx="63.0888" ry="18"/>
<text text-anchor="middle" x="107.146" y="-158.3" font-family="Times New Roman,serif" font-size="14.00">stripe detector</text>
</g>
<!-- tiger_face&#45;&gt;stripe detector -->
<g id="edge1" class="edge"><title>tiger_face&#45;&gt;stripe detector</title>
<path fill="none" stroke="black" d="M60.2939,-216.765C67.8829,-208.056 77.3895,-197.147 85.8526,-187.435"/>
<polygon fill="black" stroke="black" points="88.72,-189.472 92.6511,-179.633 83.4426,-184.873 88.72,-189.472"/>
</g>
<!-- eye detector -->
<g id="node5" class="node"><title>eye detector</title>
<ellipse fill="none" stroke="black" cx="243.146" cy="-162" rx="55.4913" ry="18"/>
<text text-anchor="middle" x="243.146" y="-158.3" font-family="Times New Roman,serif" font-size="14.00">eye detector</text>
</g>
<!-- tiger_face&#45;&gt;eye detector -->
<g id="edge4" class="edge"><title>tiger_face&#45;&gt;eye detector</title>
<path fill="none" stroke="black" d="M79.1193,-221.284C111.458,-209.793 161.043,-192.174 197.231,-179.315"/>
<polygon fill="black" stroke="black" points="198.806,-182.47 207.057,-175.823 196.462,-175.874 198.806,-182.47"/>
</g>
<!-- dangerous if stripe around eye, safe if not -->
<g id="node6" class="node"><title>dangerous if stripe around eye, safe if not</title>
<ellipse fill="none" stroke="black" cx="175.146" cy="-90" rx="161.372" ry="18"/>
<text text-anchor="middle" x="175.146" y="-86.3" font-family="Times New Roman,serif" font-size="14.00">dangerous if stripe around eye, safe if not</text>
</g>
<!-- stripe detector&#45;&gt;dangerous if stripe around eye, safe if not -->
<g id="edge8" class="edge"><title>stripe detector&#45;&gt;dangerous if stripe around eye, safe if not</title>
<path fill="none" stroke="black" d="M123.261,-144.411C131.69,-135.734 142.17,-124.946 151.5,-115.342"/>
<polygon fill="black" stroke="black" points="154.217,-117.568 158.674,-107.956 149.196,-112.69 154.217,-117.568"/>
</g>
<!-- stripy_cat_face -->
<g id="node3" class="node"><title>stripy_cat_face</title>
<ellipse fill="none" stroke="black" cx="177.146" cy="-234" rx="66.8882" ry="18"/>
<text text-anchor="middle" x="177.146" y="-230.3" font-family="Times New Roman,serif" font-size="14.00">stripy_cat_face</text>
</g>
<!-- stripy_cat_face&#45;&gt;stripe detector -->
<g id="edge2" class="edge"><title>stripy_cat_face&#45;&gt;stripe detector</title>
<path fill="none" stroke="black" d="M160.557,-216.411C151.665,-207.519 140.557,-196.411 130.777,-186.631"/>
<polygon fill="black" stroke="black" points="133.162,-184.066 123.616,-179.47 128.212,-189.016 133.162,-184.066"/>
</g>
<!-- stripy_cat_face&#45;&gt;eye detector -->
<g id="edge5" class="edge"><title>stripy_cat_face&#45;&gt;eye detector</title>
<path fill="none" stroke="black" d="M192.787,-216.411C201.089,-207.606 211.439,-196.628 220.594,-186.919"/>
<polygon fill="black" stroke="black" points="223.304,-189.147 227.617,-179.47 218.21,-184.345 223.304,-189.147"/>
</g>
<!-- cat_face -->
<g id="node4" class="node"><title>cat_face</title>
<ellipse fill="none" stroke="black" cx="304.146" cy="-234" rx="41.6928" ry="18"/>
<text text-anchor="middle" x="304.146" y="-230.3" font-family="Times New Roman,serif" font-size="14.00">cat_face</text>
</g>
<!-- cat_face&#45;&gt;stripe detector -->
<g id="edge3" class="edge"><title>cat_face&#45;&gt;stripe detector</title>
<path fill="none" stroke="black" d="M272.931,-221.908C241.061,-210.584 191.189,-192.863 154.463,-179.813"/>
<polygon fill="black" stroke="black" points="155.549,-176.485 144.955,-176.435 153.206,-183.081 155.549,-176.485"/>
</g>
<!-- cat_face&#45;&gt;eye detector -->
<g id="edge6" class="edge"><title>cat_face&#45;&gt;eye detector</title>
<path fill="none" stroke="black" d="M289.998,-216.765C282.409,-208.056 272.902,-197.147 264.439,-187.435"/>
<polygon fill="black" stroke="black" points="266.849,-184.873 257.641,-179.633 261.572,-189.472 266.849,-184.873"/>
</g>
<!-- eye detector&#45;&gt;dangerous if stripe around eye, safe if not -->
<g id="edge7" class="edge"><title>eye detector&#45;&gt;dangerous if stripe around eye, safe if not</title>
<path fill="none" stroke="black" d="M227.031,-144.411C218.602,-135.734 208.122,-124.946 198.792,-115.342"/>
<polygon fill="black" stroke="black" points="201.096,-112.69 191.618,-107.956 196.075,-117.568 201.096,-112.69"/>
</g>
<!-- tiger if dangerous, cat otherwise -->
<g id="node7" class="node"><title>tiger if dangerous, cat otherwise</title>
<ellipse fill="none" stroke="black" cx="175.146" cy="-18" rx="126.178" ry="18"/>
<text text-anchor="middle" x="175.146" y="-14.3" font-family="Times New Roman,serif" font-size="14.00">tiger if dangerous, cat otherwise</text>
</g>
<!-- dangerous if stripe around eye, safe if not&#45;&gt;tiger if dangerous, cat otherwise -->
<g id="edge9" class="edge"><title>dangerous if stripe around eye, safe if not&#45;&gt;tiger if dangerous, cat otherwise</title>
<path fill="none" stroke="black" d="M175.146,-71.6966C175.146,-63.9827 175.146,-54.7125 175.146,-46.1124"/>
<polygon fill="black" stroke="black" points="178.646,-46.1043 175.146,-36.1043 171.646,-46.1044 178.646,-46.1043"/>
</g>
</g>
</svg>
