<?xml version="1.0" encoding="utf-8" standalone="no"?>
<!DOCTYPE svg PUBLIC "-//W3C//DTD SVG 1.1//EN"
  "http://www.w3.org/Graphics/SVG/1.1/DTD/svg11.dtd">
<!-- Created with matplotlib (http://matplotlib.org/) -->
<svg height="432pt" version="1.1" viewBox="0 0 576 432" width="576pt" xmlns="http://www.w3.org/2000/svg" xmlns:xlink="http://www.w3.org/1999/xlink">
 <defs>
  <style type="text/css">
*{stroke-linecap:butt;stroke-linejoin:round;stroke-miterlimit:100000;}
  </style>
 </defs>
 <g id="figure_1">
  <g id="patch_1">
   <path d="M 0 432 
L 576 432 
L 576 0 
L 0 0 
z
" style="fill:#ffffff;"/>
  </g>
  <g id="axes_1">
   <g id="patch_2">
    <path d="M 72 388.8 
L 518.4 388.8 
L 518.4 43.2 
L 72 43.2 
z
" style="fill:#ffffff;"/>
   </g>
   <g id="line2d_1">
    <path clip-path="url(#p936b9cbfe4)" d="M 72 216 
L 83.219256 215.89162 
L 94.438511 215.566479 
L 105.657766 215.024579 
L 116.877023 214.265917 
L 128.096277 213.290496 
L 139.315531 212.098314 
L 150.534791 210.689372 
L 161.754046 209.063669 
L 173.373988 207.151396 
L 184.993942 205.006602 
L 196.613878 202.629289 
L 208.233826 200.019455 
L 219.853762 197.177105 
L 231.47371 194.102231 
L 243.093658 190.794839 
L 254.713594 187.254928 
L 266.333554 183.482495 
L 277.95349 179.477541 
L 289.573414 175.240075 
L 301.193386 170.77008 
L 312.813335 166.067573 
L 324.833946 160.958219 
L 336.854582 155.600041 
L 348.875194 149.993029 
L 360.895854 144.13717 
L 372.916466 138.03251 
L 384.937126 131.678983 
L 396.957714 125.076642 
L 408.97835 118.225473 
L 420.99901 111.125471 
L 433.420334 103.527389 
L 445.841633 95.663581 
L 458.262933 87.534119 
L 470.684257 79.138937 
L 472.287008 78.036344 
L 472.287008 78.036344 
" style="fill:none;stroke:#0000ff;stroke-linecap:square;"/>
   </g>
   <g id="line2d_2">
    <path clip-path="url(#p936b9cbfe4)" d="M 72 216.066212 
L 74.804814 216.117923 
L 77.20894 215.930011 
L 79.613066 215.761116 
L 81.616506 215.890575 
L 83.219256 215.968262 
L 84.822007 215.800557 
L 86.825445 215.565621 
L 88.428198 215.617339 
L 91.233011 215.769014 
L 99.246766 215.713242 
L 106.859832 215.813457 
L 113.270832 215.87971 
L 115.274274 216.15159 
L 117.277711 216.650194 
L 120.483214 217.489663 
L 125.291468 218.390084 
L 126.894213 218.686799 
L 128.496971 218.736546 
L 132.904531 218.691659 
L 136.110028 218.653138 
L 142.120352 218.282562 
L 146.928607 217.812536 
L 149.733422 217.348632 
L 152.137543 216.731037 
L 154.140982 215.960595 
L 155.74374 215.119301 
L 157.747173 213.787114 
L 161.754046 210.951473 
L 164.558861 209.348334 
L 166.161606 208.675855 
L 167.363682 208.412505 
L 168.966427 208.35818 
L 171.771242 208.602772 
L 176.579497 209.22589 
L 181.788427 210.116594 
L 184.593242 210.780781 
L 186.997369 211.585135 
L 189.00082 212.505476 
L 190.60356 213.452378 
L 192.206311 214.621404 
L 193.809063 216.042773 
L 195.411814 217.742144 
L 197.014578 219.729744 
L 199.018005 222.560049 
L 202.223508 227.182167 
L 203.826259 229.085107 
L 205.028323 230.197369 
L 206.230387 230.985681 
L 207.43245 231.439594 
L 208.634502 231.594553 
L 209.836577 231.508068 
L 211.439329 231.118766 
L 214.244132 230.097514 
L 223.059265 226.691969 
L 225.062704 225.588719 
L 226.665468 224.480267 
L 228.268207 223.10804 
L 229.870958 221.420193 
L 231.47371 219.381538 
L 233.076461 216.978622 
L 234.679213 214.214657 
L 236.682652 210.257616 
L 238.686079 205.742543 
L 243.494346 194.305853 
L 244.696397 192.197746 
L 245.898461 190.659552 
L 246.699825 189.948958 
L 247.501225 189.47375 
L 248.3026 189.219206 
L 249.103976 189.174042 
L 249.905352 189.328891 
L 250.706728 189.668511 
L 251.908779 190.456121 
L 258.720473 195.647946 
L 261.925988 197.96636 
L 263.929415 199.708603 
L 265.532166 201.398336 
L 267.134918 203.450523 
L 268.737657 205.949709 
L 270.340409 208.953669 
L 271.943184 212.472949 
L 273.946612 217.532796 
L 275.950051 223.217104 
L 277.95349 229.502179 
L 279.95693 236.461224 
L 283.563096 249.341563 
L 284.765184 252.771344 
L 285.967223 255.417532 
L 286.768623 256.729628 
L 287.569999 257.680186 
L 288.371375 258.262124 
L 289.172751 258.461707 
L 289.974126 258.270042 
L 290.775502 257.701423 
L 291.576853 256.810165 
L 292.778941 255.085065 
L 295.583756 250.906052 
L 297.987884 247.871554 
L 301.59405 243.419702 
L 303.597514 240.526689 
L 305.200265 237.786954 
L 306.803017 234.531939 
L 308.405744 230.651958 
L 310.008495 226.086483 
L 311.611247 220.858957 
L 313.614686 213.577763 
L 316.419525 202.525911 
L 318.823628 192.319993 
L 320.827068 182.888336 
L 324.833946 163.293811 
L 326.03601 158.570663 
L 327.238098 154.843433 
L 328.039449 153.024799 
L 328.840825 151.837741 
L 329.241513 151.507166 
L 329.642201 151.362398 
L 330.042889 151.407124 
L 330.443576 151.64045 
L 330.844264 152.055714 
L 331.64564 153.374048 
L 332.447016 155.190204 
L 336.854582 166.309886 
L 342.8649 179.565269 
L 344.467652 183.933905 
L 346.070403 189.019322 
L 347.673155 194.95566 
L 349.275882 201.785105 
L 351.279345 211.404688 
L 361.296542 262.587615 
L 362.899294 272.806947 
L 365.303396 290.106957 
L 367.306836 304.223399 
L 368.508924 310.954493 
L 369.310275 314.050771 
L 369.710963 315.073568 
L 370.111651 315.714671 
L 370.512339 315.964522 
L 370.913027 315.827401 
L 371.313714 315.322768 
L 371.714427 314.484619 
L 372.515778 312.002421 
L 373.717866 307.102321 
L 376.522657 295.328799 
L 381.731599 274.660664 
L 383.33435 267.042153 
L 384.937126 258.338255 
L 386.539878 248.426362 
L 388.543293 234.453613 
L 394.152923 193.731871 
L 395.755674 184.465706 
L 397.358426 176.696865 
L 400.964617 160.364031 
L 402.166656 153.117084 
L 403.368768 143.918006 
L 404.570807 132.436815 
L 405.772871 118.785544 
L 408.97835 80.49726 
L 409.77975 74.000593 
L 410.180413 71.692975 
L 410.58115 70.078229 
L 410.981813 69.174664 
L 411.382501 68.970782 
L 411.783165 69.426839 
L 412.183852 70.477741 
L 412.985253 74.015476 
L 414.187316 81.511585 
L 419.396258 118.166778 
L 421.399649 133.517966 
L 423.403113 150.726309 
L 425.406601 170.098589 
L 427.810704 195.73933 
L 431.016182 230.245114 
L 432.618934 245.273385 
L 433.820997 254.7619 
L 435.023085 262.486102 
L 436.225149 268.466039 
L 437.427188 272.963328 
L 438.629276 276.483676 
L 440.232027 280.948981 
L 441.033379 283.69216 
L 441.83473 287.154978 
L 442.63613 291.588231 
L 443.437482 297.164479 
L 444.639594 307.72898 
L 446.242321 324.78696 
L 447.845073 341.666119 
L 448.646424 348.422504 
L 449.447824 353.213273 
L 449.848536 354.716512 
L 450.249224 355.571617 
L 450.649888 355.764466 
L 451.050575 355.30519 
L 451.451288 354.230289 
L 451.851976 352.601317 
L 452.653327 348.019375 
L 453.855391 339.237891 
L 457.060918 315.012439 
L 461.869124 279.681618 
L 463.872563 263.077741 
L 465.876027 244.577876 
L 468.280154 219.815766 
L 472.287008 177.273049 
L 472.287008 177.273049 
" style="fill:none;stroke:#008000;stroke-linecap:square;"/>
   </g>
   <g id="line2d_3">
    <path clip-path="url(#p936b9cbfe4)" d="M 72 216.130808 
L 77.20894 216.284795 
L 90.431636 216.050535 
L 94.839199 216.074199 
L 106.859832 215.240105 
L 110.065332 214.980527 
L 118.079086 214.118946 
L 121.284589 214.25485 
L 123.288029 214.512947 
L 125.692156 215.09094 
L 130.099716 216.156532 
L 140.517601 218.212632 
L 149.332734 220.109009 
L 156.144415 221.918863 
L 157.747173 222.070964 
L 159.349912 222.027493 
L 160.952676 221.748743 
L 162.154733 221.330217 
L 163.356797 220.692435 
L 164.959548 219.551796 
L 170.168491 215.557284 
L 172.17193 214.394359 
L 174.976745 213.054692 
L 179.384312 211.222623 
L 184.593242 209.052377 
L 187.798757 207.440915 
L 194.610438 203.773442 
L 196.21319 203.265604 
L 197.415253 203.076431 
L 198.617317 203.081761 
L 199.819381 203.318612 
L 201.021444 203.848591 
L 201.82282 204.405321 
L 203.024884 205.591497 
L 204.226959 207.181221 
L 205.829699 209.7272 
L 209.435877 215.586599 
L 211.038641 217.746442 
L 212.641392 219.59109 
L 214.244132 221.146509 
L 216.247583 222.767139 
L 219.853762 225.296856 
L 223.059265 227.634228 
L 225.864092 229.982054 
L 229.069583 233.019585 
L 232.275086 236.036259 
L 233.877837 237.286422 
L 235.079901 238.019308 
L 236.281964 238.533327 
L 237.484028 238.793523 
L 238.686079 238.754912 
L 239.487479 238.526748 
L 240.288831 238.097409 
L 241.090207 237.423713 
L 241.891582 236.463435 
L 242.69297 235.189812 
L 243.895034 232.70856 
L 245.497773 228.589446 
L 250.306027 215.445983 
L 251.908779 211.869096 
L 253.511543 208.813425 
L 255.11427 206.328755 
L 256.717046 204.291143 
L 259.521848 201.19054 
L 262.326663 198.028769 
L 264.730791 194.964343 
L 267.134918 191.514362 
L 271.943184 184.422245 
L 273.545924 182.533457 
L 274.747975 181.43412 
L 275.950051 180.65502 
L 277.152115 180.226244 
L 277.95349 180.152351 
L 278.754866 180.269381 
L 279.556242 180.609386 
L 280.357593 181.220138 
L 281.158993 182.162665 
L 281.960345 183.500484 
L 282.761745 185.281522 
L 283.563096 187.518626 
L 284.765184 191.6553 
L 286.367935 198.244638 
L 290.374814 215.389064 
L 292.378253 222.634491 
L 293.580293 226.359372 
L 294.782356 229.49959 
L 295.984444 232.124195 
L 297.587196 235.104601 
L 303.597514 245.705228 
L 306.001641 250.700432 
L 311.210583 261.890999 
L 312.813335 264.61905 
L 314.015374 266.219054 
L 315.217437 267.391712 
L 316.018813 267.932896 
L 316.820189 268.285331 
L 317.621565 268.451427 
L 318.42294 268.425587 
L 319.224316 268.186763 
L 320.025692 267.691568 
L 320.827068 266.871314 
L 321.628468 265.637138 
L 322.429819 263.895974 
L 323.23117 261.572713 
L 324.032571 258.629624 
L 325.234634 253.077869 
L 326.436698 246.331796 
L 328.440113 233.495907 
L 331.244952 215.741674 
L 333.248391 204.443874 
L 334.450431 198.761849 
L 335.652519 194.036033 
L 336.854582 190.071119 
L 338.858022 184.414597 
L 343.265588 172.468588 
L 346.070403 164.053914 
L 349.275882 154.493424 
L 350.878658 150.441097 
L 352.080697 147.975399 
L 353.282785 146.085896 
L 354.084161 145.151895 
L 354.885512 144.461681 
L 355.686888 143.986267 
L 356.888976 143.589601 
L 358.091015 143.444002 
L 359.693766 143.467395 
L 360.895854 143.696563 
L 361.69723 144.087313 
L 362.498581 144.832669 
L 363.299957 146.120954 
L 364.101333 148.162434 
L 364.902709 151.1625 
L 365.704084 155.285605 
L 366.505484 160.607895 
L 367.707524 170.659191 
L 369.310275 186.573964 
L 374.118529 235.807477 
L 375.320617 245.167314 
L 376.522657 252.850298 
L 378.125408 261.316302 
L 380.128847 270.487355 
L 384.937126 291.100767 
L 386.940541 298.890996 
L 388.142605 302.885709 
L 389.344668 306.144663 
L 390.146068 307.844034 
L 390.94742 309.145354 
L 391.748771 310.056895 
L 392.550171 310.609621 
L 393.351523 310.856614 
L 394.152923 310.870834 
L 397.358426 310.553339 
L 398.159801 310.937646 
L 398.961177 311.727857 
L 399.762553 313.008848 
L 400.563929 314.82709 
L 401.365304 317.166315 
L 402.968056 322.845296 
L 403.769407 325.560299 
L 404.570807 327.511445 
L 404.971471 327.991488 
L 405.372159 328.021022 
L 405.772871 327.512024 
L 406.173559 326.385381 
L 406.574222 324.577194 
L 406.974959 322.044142 
L 407.77631 314.76535 
L 408.577662 304.728888 
L 409.77975 285.577839 
L 411.382501 255.015195 
L 413.786604 207.250564 
L 414.988692 187.473127 
L 416.190755 171.700875 
L 417.392795 159.288866 
L 418.594858 149.283432 
L 419.796922 140.894566 
L 421.399649 131.349046 
L 423.002449 123.13015 
L 424.605201 116.094984 
L 425.80724 111.677605 
L 427.009304 108.10666 
L 427.810704 106.235368 
L 428.612055 104.780049 
L 429.413455 103.726803 
L 430.214806 103.040703 
L 431.016182 102.66564 
L 431.817558 102.526517 
L 435.023085 102.349285 
L 435.824437 101.820899 
L 436.625837 100.841579 
L 437.427188 99.273092 
L 438.228539 96.976005 
L 439.029939 93.819217 
L 439.83134 89.697219 
L 440.632691 84.55648 
L 441.83473 75.055036 
L 444.639594 50.965495 
L 445.040233 48.676725 
L 445.440945 47.073039 
L 445.841633 46.295786 
L 446.242321 46.47276 
L 446.643033 47.709237 
L 447.043697 50.078074 
L 447.444385 53.613672 
L 448.245785 64.110722 
L 449.047136 78.689961 
L 450.249224 106.327241 
L 454.256078 208.34531 
L 455.458142 229.43637 
L 456.259518 240.345369 
L 457.461581 253.138052 
L 458.663621 262.987168 
L 459.865709 271.027799 
L 461.46846 280.165568 
L 463.872563 292.242248 
L 466.677402 305.055781 
L 469.081529 314.980613 
L 472.287008 327.037351 
L 472.287008 327.037351 
" style="fill:none;stroke:#ff0000;stroke-linecap:square;"/>
   </g>
   <g id="line2d_4">
    <path clip-path="url(#p936b9cbfe4)" d="M 72 215.865824 
L 76.407565 215.721383 
L 81.215818 215.801268 
L 83.619944 215.908631 
L 85.623383 215.707779 
L 87.226133 215.576723 
L 89.229572 215.678566 
L 91.633698 215.752885 
L 98.445387 215.442245 
L 112.068771 214.546943 
L 116.476338 214.140534 
L 122.887338 213.792845 
L 124.890774 213.61261 
L 127.695589 213.255577 
L 132.503843 212.934428 
L 166.962994 208.433974 
L 172.572606 207.542385 
L 183.391178 205.201742 
L 199.018005 202.422762 
L 203.425584 201.277901 
L 208.233826 200.356031 
L 213.04208 199.039505 
L 223.459953 196.032252 
L 234.278537 193.495333 
L 237.884704 192.714424 
L 239.888155 192.012028 
L 242.69297 190.943339 
L 244.696397 190.469218 
L 247.100525 189.923664 
L 249.103976 189.227356 
L 251.508091 188.416626 
L 254.713594 187.438352 
L 263.128039 184.423143 
L 269.539033 182.282972 
L 273.946612 180.860566 
L 278.354154 179.566077 
L 280.357593 178.679856 
L 282.761745 177.597717 
L 284.364472 177.138007 
L 286.768623 176.491187 
L 288.371375 175.751042 
L 290.374814 174.771655 
L 291.576853 174.415788 
L 294.381693 173.746811 
L 296.385108 172.953822 
L 300.792674 171.140334 
L 306.001641 169.068308 
L 309.607807 167.319335 
L 313.614686 165.383784 
L 316.419525 164.325211 
L 319.224316 163.276884 
L 323.631883 161.437039 
L 326.436698 160.619012 
L 327.638761 159.967943 
L 330.844264 157.948298 
L 332.046328 157.65524 
L 334.049767 157.314719 
L 335.251831 156.892632 
L 337.25527 155.903965 
L 340.460773 154.339553 
L 347.673155 151.114072 
L 350.077282 149.660523 
L 354.484824 146.879551 
L 356.0876 146.180737 
L 360.495166 144.516405 
L 364.101333 142.644939 
L 367.306836 141.497954 
L 368.909587 140.428596 
L 370.111651 139.666503 
L 371.313714 139.193587 
L 373.317129 138.634378 
L 374.519242 137.962002 
L 375.721281 136.990916 
L 378.926784 134.232242 
L 380.529535 133.239276 
L 382.132287 132.568496 
L 383.735038 132.151771 
L 387.741917 131.328427 
L 388.943981 130.836488 
L 390.546756 129.892329 
L 393.351523 128.072987 
L 394.553611 127.55575 
L 396.156362 127.168501 
L 398.159801 126.74951 
L 399.361865 126.227767 
L 400.563929 125.351315 
L 402.166656 123.71709 
L 403.368768 122.528507 
L 404.170119 122.022445 
L 404.971471 121.88759 
L 405.772871 122.130991 
L 407.77631 123.165195 
L 408.577662 123.245185 
L 409.77975 123.307736 
L 410.58115 123.644671 
L 411.783165 124.603005 
L 412.584565 125.210094 
L 413.38594 125.473038 
L 413.786604 125.424649 
L 414.588004 124.963416 
L 415.389355 124.107957 
L 416.992107 121.845651 
L 418.594858 119.714054 
L 419.796922 118.562151 
L 420.598298 118.06794 
L 421.399649 117.802588 
L 422.201049 117.758615 
L 423.002449 117.914365 
L 424.204488 118.435477 
L 426.60864 119.67684 
L 427.409991 119.834162 
L 428.211391 119.73607 
L 429.012743 119.354711 
L 429.814143 118.712487 
L 431.016182 117.414502 
L 434.221685 113.770082 
L 437.427188 110.295934 
L 440.632691 106.617705 
L 441.434091 105.975765 
L 442.235442 105.619898 
L 442.63613 105.58963 
L 443.036842 105.682829 
L 443.437482 105.919644 
L 443.838194 106.320405 
L 444.238882 106.903444 
L 445.040233 108.66861 
L 445.841633 111.238452 
L 447.043697 116.172753 
L 448.245785 120.998657 
L 449.047136 123.306912 
L 449.848536 124.774739 
L 453.454727 129.391836 
L 454.256078 129.878045 
L 455.05743 129.9201 
L 455.85883 129.650132 
L 458.262933 128.501093 
L 459.064333 128.319954 
L 459.865709 128.299033 
L 461.067772 128.554774 
L 462.269836 129.077831 
L 464.673963 130.282456 
L 465.475314 130.478414 
L 466.276714 130.428808 
L 467.078066 130.043864 
L 467.879466 129.247756 
L 468.680817 127.994716 
L 469.482217 126.282349 
L 470.684257 122.960353 
L 472.287008 117.570484 
L 472.287008 117.570484 
" style="fill:none;stroke:#00bfbf;stroke-linecap:square;"/>
   </g>
   <g id="patch_3">
    <path d="M 72 43.2 
L 518.4 43.2 
" style="fill:none;stroke:#000000;stroke-linecap:square;stroke-linejoin:miter;"/>
   </g>
   <g id="patch_4">
    <path d="M 518.4 388.8 
L 518.4 43.2 
" style="fill:none;stroke:#000000;stroke-linecap:square;stroke-linejoin:miter;"/>
   </g>
   <g id="patch_5">
    <path d="M 72 388.8 
L 518.4 388.8 
" style="fill:none;stroke:#000000;stroke-linecap:square;stroke-linejoin:miter;"/>
   </g>
   <g id="patch_6">
    <path d="M 72 388.8 
L 72 43.2 
" style="fill:none;stroke:#000000;stroke-linecap:square;stroke-linejoin:miter;"/>
   </g>
   <g id="matplotlib.axis_1">
    <g id="xtick_1">
     <g id="line2d_5">
      <defs>
       <path d="M 0 0 
L 0 -4 
" id="m34c46231e1" style="stroke:#000000;stroke-width:0.5;"/>
      </defs>
      <g>
       <use style="stroke:#000000;stroke-width:0.5;" x="72.0" xlink:href="#m34c46231e1" y="388.8"/>
      </g>
     </g>
     <g id="line2d_6">
      <defs>
       <path d="M 0 0 
L 0 4 
" id="mf08ca76bf2" style="stroke:#000000;stroke-width:0.5;"/>
      </defs>
      <g>
       <use style="stroke:#000000;stroke-width:0.5;" x="72.0" xlink:href="#mf08ca76bf2" y="43.2"/>
      </g>
     </g>
     <g id="text_1">
      <!-- 0 -->
      <defs>
       <path d="M 31.78125 66.40625 
Q 24.171875 66.40625 20.328125 58.90625 
Q 16.5 51.421875 16.5 36.375 
Q 16.5 21.390625 20.328125 13.890625 
Q 24.171875 6.390625 31.78125 6.390625 
Q 39.453125 6.390625 43.28125 13.890625 
Q 47.125 21.390625 47.125 36.375 
Q 47.125 51.421875 43.28125 58.90625 
Q 39.453125 66.40625 31.78125 66.40625 
M 31.78125 74.21875 
Q 44.046875 74.21875 50.515625 64.515625 
Q 56.984375 54.828125 56.984375 36.375 
Q 56.984375 17.96875 50.515625 8.265625 
Q 44.046875 -1.421875 31.78125 -1.421875 
Q 19.53125 -1.421875 13.0625 8.265625 
Q 6.59375 17.96875 6.59375 36.375 
Q 6.59375 54.828125 13.0625 64.515625 
Q 19.53125 74.21875 31.78125 74.21875 
" id="BitstreamVeraSans-Roman-30"/>
      </defs>
      <g transform="translate(68.1825 401.918125)scale(0.12 -0.12)">
       <use xlink:href="#BitstreamVeraSans-Roman-30"/>
      </g>
     </g>
    </g>
    <g id="xtick_2">
     <g id="line2d_7">
      <g>
       <use style="stroke:#000000;stroke-width:0.5;" x="135.771428571" xlink:href="#m34c46231e1" y="388.8"/>
      </g>
     </g>
     <g id="line2d_8">
      <g>
       <use style="stroke:#000000;stroke-width:0.5;" x="135.771428571" xlink:href="#mf08ca76bf2" y="43.2"/>
      </g>
     </g>
     <g id="text_2">
      <!-- 5 -->
      <defs>
       <path d="M 10.796875 72.90625 
L 49.515625 72.90625 
L 49.515625 64.59375 
L 19.828125 64.59375 
L 19.828125 46.734375 
Q 21.96875 47.46875 24.109375 47.828125 
Q 26.265625 48.1875 28.421875 48.1875 
Q 40.625 48.1875 47.75 41.5 
Q 54.890625 34.8125 54.890625 23.390625 
Q 54.890625 11.625 47.5625 5.09375 
Q 40.234375 -1.421875 26.90625 -1.421875 
Q 22.3125 -1.421875 17.546875 -0.640625 
Q 12.796875 0.140625 7.71875 1.703125 
L 7.71875 11.625 
Q 12.109375 9.234375 16.796875 8.0625 
Q 21.484375 6.890625 26.703125 6.890625 
Q 35.15625 6.890625 40.078125 11.328125 
Q 45.015625 15.765625 45.015625 23.390625 
Q 45.015625 31 40.078125 35.4375 
Q 35.15625 39.890625 26.703125 39.890625 
Q 22.75 39.890625 18.8125 39.015625 
Q 14.890625 38.140625 10.796875 36.28125 
z
" id="BitstreamVeraSans-Roman-35"/>
      </defs>
      <g transform="translate(131.953928571 401.918125)scale(0.12 -0.12)">
       <use xlink:href="#BitstreamVeraSans-Roman-35"/>
      </g>
     </g>
    </g>
    <g id="xtick_3">
     <g id="line2d_9">
      <g>
       <use style="stroke:#000000;stroke-width:0.5;" x="199.542857143" xlink:href="#m34c46231e1" y="388.8"/>
      </g>
     </g>
     <g id="line2d_10">
      <g>
       <use style="stroke:#000000;stroke-width:0.5;" x="199.542857143" xlink:href="#mf08ca76bf2" y="43.2"/>
      </g>
     </g>
     <g id="text_3">
      <!-- 10 -->
      <defs>
       <path d="M 12.40625 8.296875 
L 28.515625 8.296875 
L 28.515625 63.921875 
L 10.984375 60.40625 
L 10.984375 69.390625 
L 28.421875 72.90625 
L 38.28125 72.90625 
L 38.28125 8.296875 
L 54.390625 8.296875 
L 54.390625 0 
L 12.40625 0 
z
" id="BitstreamVeraSans-Roman-31"/>
      </defs>
      <g transform="translate(191.907857143 401.918125)scale(0.12 -0.12)">
       <use xlink:href="#BitstreamVeraSans-Roman-31"/>
       <use x="63.623046875" xlink:href="#BitstreamVeraSans-Roman-30"/>
      </g>
     </g>
    </g>
    <g id="xtick_4">
     <g id="line2d_11">
      <g>
       <use style="stroke:#000000;stroke-width:0.5;" x="263.314285714" xlink:href="#m34c46231e1" y="388.8"/>
      </g>
     </g>
     <g id="line2d_12">
      <g>
       <use style="stroke:#000000;stroke-width:0.5;" x="263.314285714" xlink:href="#mf08ca76bf2" y="43.2"/>
      </g>
     </g>
     <g id="text_4">
      <!-- 15 -->
      <g transform="translate(255.679285714 401.918125)scale(0.12 -0.12)">
       <use xlink:href="#BitstreamVeraSans-Roman-31"/>
       <use x="63.623046875" xlink:href="#BitstreamVeraSans-Roman-35"/>
      </g>
     </g>
    </g>
    <g id="xtick_5">
     <g id="line2d_13">
      <g>
       <use style="stroke:#000000;stroke-width:0.5;" x="327.085714286" xlink:href="#m34c46231e1" y="388.8"/>
      </g>
     </g>
     <g id="line2d_14">
      <g>
       <use style="stroke:#000000;stroke-width:0.5;" x="327.085714286" xlink:href="#mf08ca76bf2" y="43.2"/>
      </g>
     </g>
     <g id="text_5">
      <!-- 20 -->
      <defs>
       <path d="M 19.1875 8.296875 
L 53.609375 8.296875 
L 53.609375 0 
L 7.328125 0 
L 7.328125 8.296875 
Q 12.9375 14.109375 22.625 23.890625 
Q 32.328125 33.6875 34.8125 36.53125 
Q 39.546875 41.84375 41.421875 45.53125 
Q 43.3125 49.21875 43.3125 52.78125 
Q 43.3125 58.59375 39.234375 62.25 
Q 35.15625 65.921875 28.609375 65.921875 
Q 23.96875 65.921875 18.8125 64.3125 
Q 13.671875 62.703125 7.8125 59.421875 
L 7.8125 69.390625 
Q 13.765625 71.78125 18.9375 73 
Q 24.125 74.21875 28.421875 74.21875 
Q 39.75 74.21875 46.484375 68.546875 
Q 53.21875 62.890625 53.21875 53.421875 
Q 53.21875 48.921875 51.53125 44.890625 
Q 49.859375 40.875 45.40625 35.40625 
Q 44.1875 33.984375 37.640625 27.21875 
Q 31.109375 20.453125 19.1875 8.296875 
" id="BitstreamVeraSans-Roman-32"/>
      </defs>
      <g transform="translate(319.450714286 401.918125)scale(0.12 -0.12)">
       <use xlink:href="#BitstreamVeraSans-Roman-32"/>
       <use x="63.623046875" xlink:href="#BitstreamVeraSans-Roman-30"/>
      </g>
     </g>
    </g>
    <g id="xtick_6">
     <g id="line2d_15">
      <g>
       <use style="stroke:#000000;stroke-width:0.5;" x="390.857142857" xlink:href="#m34c46231e1" y="388.8"/>
      </g>
     </g>
     <g id="line2d_16">
      <g>
       <use style="stroke:#000000;stroke-width:0.5;" x="390.857142857" xlink:href="#mf08ca76bf2" y="43.2"/>
      </g>
     </g>
     <g id="text_6">
      <!-- 25 -->
      <g transform="translate(383.222142857 401.918125)scale(0.12 -0.12)">
       <use xlink:href="#BitstreamVeraSans-Roman-32"/>
       <use x="63.623046875" xlink:href="#BitstreamVeraSans-Roman-35"/>
      </g>
     </g>
    </g>
    <g id="xtick_7">
     <g id="line2d_17">
      <g>
       <use style="stroke:#000000;stroke-width:0.5;" x="454.628571429" xlink:href="#m34c46231e1" y="388.8"/>
      </g>
     </g>
     <g id="line2d_18">
      <g>
       <use style="stroke:#000000;stroke-width:0.5;" x="454.628571429" xlink:href="#mf08ca76bf2" y="43.2"/>
      </g>
     </g>
     <g id="text_7">
      <!-- 30 -->
      <defs>
       <path d="M 40.578125 39.3125 
Q 47.65625 37.796875 51.625 33 
Q 55.609375 28.21875 55.609375 21.1875 
Q 55.609375 10.40625 48.1875 4.484375 
Q 40.765625 -1.421875 27.09375 -1.421875 
Q 22.515625 -1.421875 17.65625 -0.515625 
Q 12.796875 0.390625 7.625 2.203125 
L 7.625 11.71875 
Q 11.71875 9.328125 16.59375 8.109375 
Q 21.484375 6.890625 26.8125 6.890625 
Q 36.078125 6.890625 40.9375 10.546875 
Q 45.796875 14.203125 45.796875 21.1875 
Q 45.796875 27.640625 41.28125 31.265625 
Q 36.765625 34.90625 28.71875 34.90625 
L 20.21875 34.90625 
L 20.21875 43.015625 
L 29.109375 43.015625 
Q 36.375 43.015625 40.234375 45.921875 
Q 44.09375 48.828125 44.09375 54.296875 
Q 44.09375 59.90625 40.109375 62.90625 
Q 36.140625 65.921875 28.71875 65.921875 
Q 24.65625 65.921875 20.015625 65.03125 
Q 15.375 64.15625 9.8125 62.3125 
L 9.8125 71.09375 
Q 15.4375 72.65625 20.34375 73.4375 
Q 25.25 74.21875 29.59375 74.21875 
Q 40.828125 74.21875 47.359375 69.109375 
Q 53.90625 64.015625 53.90625 55.328125 
Q 53.90625 49.265625 50.4375 45.09375 
Q 46.96875 40.921875 40.578125 39.3125 
" id="BitstreamVeraSans-Roman-33"/>
      </defs>
      <g transform="translate(446.993571429 401.918125)scale(0.12 -0.12)">
       <use xlink:href="#BitstreamVeraSans-Roman-33"/>
       <use x="63.623046875" xlink:href="#BitstreamVeraSans-Roman-30"/>
      </g>
     </g>
    </g>
    <g id="xtick_8">
     <g id="line2d_19">
      <g>
       <use style="stroke:#000000;stroke-width:0.5;" x="518.4" xlink:href="#m34c46231e1" y="388.8"/>
      </g>
     </g>
     <g id="line2d_20">
      <g>
       <use style="stroke:#000000;stroke-width:0.5;" x="518.4" xlink:href="#mf08ca76bf2" y="43.2"/>
      </g>
     </g>
     <g id="text_8">
      <!-- 35 -->
      <g transform="translate(510.765 401.918125)scale(0.12 -0.12)">
       <use xlink:href="#BitstreamVeraSans-Roman-33"/>
       <use x="63.623046875" xlink:href="#BitstreamVeraSans-Roman-35"/>
      </g>
     </g>
    </g>
   </g>
   <g id="matplotlib.axis_2">
    <g id="ytick_1">
     <g id="line2d_21">
      <defs>
       <path d="M 0 0 
L 4 0 
" id="m2b49a8077f" style="stroke:#000000;stroke-width:0.5;"/>
      </defs>
      <g>
       <use style="stroke:#000000;stroke-width:0.5;" x="72.0" xlink:href="#m2b49a8077f" y="388.8"/>
      </g>
     </g>
     <g id="line2d_22">
      <defs>
       <path d="M 0 0 
L -4 0 
" id="m60c0f1c422" style="stroke:#000000;stroke-width:0.5;"/>
      </defs>
      <g>
       <use style="stroke:#000000;stroke-width:0.5;" x="518.4" xlink:href="#m60c0f1c422" y="388.8"/>
      </g>
     </g>
     <g id="text_9">
      <!-- −0.8 -->
      <defs>
       <path d="M 10.59375 35.5 
L 73.1875 35.5 
L 73.1875 27.203125 
L 10.59375 27.203125 
z
" id="BitstreamVeraSans-Roman-2212"/>
       <path d="M 31.78125 34.625 
Q 24.75 34.625 20.71875 30.859375 
Q 16.703125 27.09375 16.703125 20.515625 
Q 16.703125 13.921875 20.71875 10.15625 
Q 24.75 6.390625 31.78125 6.390625 
Q 38.8125 6.390625 42.859375 10.171875 
Q 46.921875 13.96875 46.921875 20.515625 
Q 46.921875 27.09375 42.890625 30.859375 
Q 38.875 34.625 31.78125 34.625 
M 21.921875 38.8125 
Q 15.578125 40.375 12.03125 44.71875 
Q 8.5 49.078125 8.5 55.328125 
Q 8.5 64.0625 14.71875 69.140625 
Q 20.953125 74.21875 31.78125 74.21875 
Q 42.671875 74.21875 48.875 69.140625 
Q 55.078125 64.0625 55.078125 55.328125 
Q 55.078125 49.078125 51.53125 44.71875 
Q 48 40.375 41.703125 38.8125 
Q 48.828125 37.15625 52.796875 32.3125 
Q 56.78125 27.484375 56.78125 20.515625 
Q 56.78125 9.90625 50.3125 4.234375 
Q 43.84375 -1.421875 31.78125 -1.421875 
Q 19.734375 -1.421875 13.25 4.234375 
Q 6.78125 9.90625 6.78125 20.515625 
Q 6.78125 27.484375 10.78125 32.3125 
Q 14.796875 37.15625 21.921875 38.8125 
M 18.3125 54.390625 
Q 18.3125 48.734375 21.84375 45.5625 
Q 25.390625 42.390625 31.78125 42.390625 
Q 38.140625 42.390625 41.71875 45.5625 
Q 45.3125 48.734375 45.3125 54.390625 
Q 45.3125 60.0625 41.71875 63.234375 
Q 38.140625 66.40625 31.78125 66.40625 
Q 25.390625 66.40625 21.84375 63.234375 
Q 18.3125 60.0625 18.3125 54.390625 
" id="BitstreamVeraSans-Roman-38"/>
       <path d="M 10.6875 12.40625 
L 21 12.40625 
L 21 0 
L 10.6875 0 
z
" id="BitstreamVeraSans-Roman-2e"/>
      </defs>
      <g transform="translate(38.860625 392.11125)scale(0.12 -0.12)">
       <use xlink:href="#BitstreamVeraSans-Roman-2212"/>
       <use x="83.7890625" xlink:href="#BitstreamVeraSans-Roman-30"/>
       <use x="147.412109375" xlink:href="#BitstreamVeraSans-Roman-2e"/>
       <use x="179.19921875" xlink:href="#BitstreamVeraSans-Roman-38"/>
      </g>
     </g>
    </g>
    <g id="ytick_2">
     <g id="line2d_23">
      <g>
       <use style="stroke:#000000;stroke-width:0.5;" x="72.0" xlink:href="#m2b49a8077f" y="345.6"/>
      </g>
     </g>
     <g id="line2d_24">
      <g>
       <use style="stroke:#000000;stroke-width:0.5;" x="518.4" xlink:href="#m60c0f1c422" y="345.6"/>
      </g>
     </g>
     <g id="text_10">
      <!-- −0.6 -->
      <defs>
       <path d="M 33.015625 40.375 
Q 26.375 40.375 22.484375 35.828125 
Q 18.609375 31.296875 18.609375 23.390625 
Q 18.609375 15.53125 22.484375 10.953125 
Q 26.375 6.390625 33.015625 6.390625 
Q 39.65625 6.390625 43.53125 10.953125 
Q 47.40625 15.53125 47.40625 23.390625 
Q 47.40625 31.296875 43.53125 35.828125 
Q 39.65625 40.375 33.015625 40.375 
M 52.59375 71.296875 
L 52.59375 62.3125 
Q 48.875 64.0625 45.09375 64.984375 
Q 41.3125 65.921875 37.59375 65.921875 
Q 27.828125 65.921875 22.671875 59.328125 
Q 17.53125 52.734375 16.796875 39.40625 
Q 19.671875 43.65625 24.015625 45.921875 
Q 28.375 48.1875 33.59375 48.1875 
Q 44.578125 48.1875 50.953125 41.515625 
Q 57.328125 34.859375 57.328125 23.390625 
Q 57.328125 12.15625 50.6875 5.359375 
Q 44.046875 -1.421875 33.015625 -1.421875 
Q 20.359375 -1.421875 13.671875 8.265625 
Q 6.984375 17.96875 6.984375 36.375 
Q 6.984375 53.65625 15.1875 63.9375 
Q 23.390625 74.21875 37.203125 74.21875 
Q 40.921875 74.21875 44.703125 73.484375 
Q 48.484375 72.75 52.59375 71.296875 
" id="BitstreamVeraSans-Roman-36"/>
      </defs>
      <g transform="translate(38.860625 348.91125)scale(0.12 -0.12)">
       <use xlink:href="#BitstreamVeraSans-Roman-2212"/>
       <use x="83.7890625" xlink:href="#BitstreamVeraSans-Roman-30"/>
       <use x="147.412109375" xlink:href="#BitstreamVeraSans-Roman-2e"/>
       <use x="179.19921875" xlink:href="#BitstreamVeraSans-Roman-36"/>
      </g>
     </g>
    </g>
    <g id="ytick_3">
     <g id="line2d_25">
      <g>
       <use style="stroke:#000000;stroke-width:0.5;" x="72.0" xlink:href="#m2b49a8077f" y="302.4"/>
      </g>
     </g>
     <g id="line2d_26">
      <g>
       <use style="stroke:#000000;stroke-width:0.5;" x="518.4" xlink:href="#m60c0f1c422" y="302.4"/>
      </g>
     </g>
     <g id="text_11">
      <!-- −0.4 -->
      <defs>
       <path d="M 37.796875 64.3125 
L 12.890625 25.390625 
L 37.796875 25.390625 
z
M 35.203125 72.90625 
L 47.609375 72.90625 
L 47.609375 25.390625 
L 58.015625 25.390625 
L 58.015625 17.1875 
L 47.609375 17.1875 
L 47.609375 0 
L 37.796875 0 
L 37.796875 17.1875 
L 4.890625 17.1875 
L 4.890625 26.703125 
z
" id="BitstreamVeraSans-Roman-34"/>
      </defs>
      <g transform="translate(38.860625 305.71125)scale(0.12 -0.12)">
       <use xlink:href="#BitstreamVeraSans-Roman-2212"/>
       <use x="83.7890625" xlink:href="#BitstreamVeraSans-Roman-30"/>
       <use x="147.412109375" xlink:href="#BitstreamVeraSans-Roman-2e"/>
       <use x="179.19921875" xlink:href="#BitstreamVeraSans-Roman-34"/>
      </g>
     </g>
    </g>
    <g id="ytick_4">
     <g id="line2d_27">
      <g>
       <use style="stroke:#000000;stroke-width:0.5;" x="72.0" xlink:href="#m2b49a8077f" y="259.2"/>
      </g>
     </g>
     <g id="line2d_28">
      <g>
       <use style="stroke:#000000;stroke-width:0.5;" x="518.4" xlink:href="#m60c0f1c422" y="259.2"/>
      </g>
     </g>
     <g id="text_12">
      <!-- −0.2 -->
      <g transform="translate(38.860625 262.51125)scale(0.12 -0.12)">
       <use xlink:href="#BitstreamVeraSans-Roman-2212"/>
       <use x="83.7890625" xlink:href="#BitstreamVeraSans-Roman-30"/>
       <use x="147.412109375" xlink:href="#BitstreamVeraSans-Roman-2e"/>
       <use x="179.19921875" xlink:href="#BitstreamVeraSans-Roman-32"/>
      </g>
     </g>
    </g>
    <g id="ytick_5">
     <g id="line2d_29">
      <g>
       <use style="stroke:#000000;stroke-width:0.5;" x="72.0" xlink:href="#m2b49a8077f" y="216.0"/>
      </g>
     </g>
     <g id="line2d_30">
      <g>
       <use style="stroke:#000000;stroke-width:0.5;" x="518.4" xlink:href="#m60c0f1c422" y="216.0"/>
      </g>
     </g>
     <g id="text_13">
      <!-- 0.0 -->
      <g transform="translate(48.91625 219.31125)scale(0.12 -0.12)">
       <use xlink:href="#BitstreamVeraSans-Roman-30"/>
       <use x="63.623046875" xlink:href="#BitstreamVeraSans-Roman-2e"/>
       <use x="95.41015625" xlink:href="#BitstreamVeraSans-Roman-30"/>
      </g>
     </g>
    </g>
    <g id="ytick_6">
     <g id="line2d_31">
      <g>
       <use style="stroke:#000000;stroke-width:0.5;" x="72.0" xlink:href="#m2b49a8077f" y="172.8"/>
      </g>
     </g>
     <g id="line2d_32">
      <g>
       <use style="stroke:#000000;stroke-width:0.5;" x="518.4" xlink:href="#m60c0f1c422" y="172.8"/>
      </g>
     </g>
     <g id="text_14">
      <!-- 0.2 -->
      <g transform="translate(48.91625 176.11125)scale(0.12 -0.12)">
       <use xlink:href="#BitstreamVeraSans-Roman-30"/>
       <use x="63.623046875" xlink:href="#BitstreamVeraSans-Roman-2e"/>
       <use x="95.41015625" xlink:href="#BitstreamVeraSans-Roman-32"/>
      </g>
     </g>
    </g>
    <g id="ytick_7">
     <g id="line2d_33">
      <g>
       <use style="stroke:#000000;stroke-width:0.5;" x="72.0" xlink:href="#m2b49a8077f" y="129.6"/>
      </g>
     </g>
     <g id="line2d_34">
      <g>
       <use style="stroke:#000000;stroke-width:0.5;" x="518.4" xlink:href="#m60c0f1c422" y="129.6"/>
      </g>
     </g>
     <g id="text_15">
      <!-- 0.4 -->
      <g transform="translate(48.91625 132.91125)scale(0.12 -0.12)">
       <use xlink:href="#BitstreamVeraSans-Roman-30"/>
       <use x="63.623046875" xlink:href="#BitstreamVeraSans-Roman-2e"/>
       <use x="95.41015625" xlink:href="#BitstreamVeraSans-Roman-34"/>
      </g>
     </g>
    </g>
    <g id="ytick_8">
     <g id="line2d_35">
      <g>
       <use style="stroke:#000000;stroke-width:0.5;" x="72.0" xlink:href="#m2b49a8077f" y="86.4"/>
      </g>
     </g>
     <g id="line2d_36">
      <g>
       <use style="stroke:#000000;stroke-width:0.5;" x="518.4" xlink:href="#m60c0f1c422" y="86.4"/>
      </g>
     </g>
     <g id="text_16">
      <!-- 0.6 -->
      <g transform="translate(48.91625 89.71125)scale(0.12 -0.12)">
       <use xlink:href="#BitstreamVeraSans-Roman-30"/>
       <use x="63.623046875" xlink:href="#BitstreamVeraSans-Roman-2e"/>
       <use x="95.41015625" xlink:href="#BitstreamVeraSans-Roman-36"/>
      </g>
     </g>
    </g>
    <g id="ytick_9">
     <g id="line2d_37">
      <g>
       <use style="stroke:#000000;stroke-width:0.5;" x="72.0" xlink:href="#m2b49a8077f" y="43.2"/>
      </g>
     </g>
     <g id="line2d_38">
      <g>
       <use style="stroke:#000000;stroke-width:0.5;" x="518.4" xlink:href="#m60c0f1c422" y="43.2"/>
      </g>
     </g>
     <g id="text_17">
      <!-- 0.8 -->
      <g transform="translate(48.91625 46.51125)scale(0.12 -0.12)">
       <use xlink:href="#BitstreamVeraSans-Roman-30"/>
       <use x="63.623046875" xlink:href="#BitstreamVeraSans-Roman-2e"/>
       <use x="95.41015625" xlink:href="#BitstreamVeraSans-Roman-38"/>
      </g>
     </g>
    </g>
   </g>
   <g id="legend_1">
    <g id="patch_7">
     <path d="M 79.2 381.6 
L 257.63175 381.6 
L 257.63175 291.132 
L 79.2 291.132 
z
" style="fill:#ffffff;stroke:#000000;stroke-linejoin:miter;"/>
    </g>
    <g id="line2d_39">
     <path d="M 89.28 302.79375 
L 109.44 302.79375 
" style="fill:none;stroke:#0000ff;stroke-linecap:square;"/>
    </g>
    <g id="line2d_40"/>
    <g id="text_18">
     <!-- commanded_torq -->
     <defs>
      <path d="M 50.984375 -16.609375 
L 50.984375 -23.578125 
L -0.984375 -23.578125 
L -0.984375 -16.609375 
z
" id="BitstreamVeraSans-Roman-5f"/>
      <path d="M 54.890625 33.015625 
L 54.890625 0 
L 45.90625 0 
L 45.90625 32.71875 
Q 45.90625 40.484375 42.875 44.328125 
Q 39.84375 48.1875 33.796875 48.1875 
Q 26.515625 48.1875 22.3125 43.546875 
Q 18.109375 38.921875 18.109375 30.90625 
L 18.109375 0 
L 9.078125 0 
L 9.078125 54.6875 
L 18.109375 54.6875 
L 18.109375 46.1875 
Q 21.34375 51.125 25.703125 53.5625 
Q 30.078125 56 35.796875 56 
Q 45.21875 56 50.046875 50.171875 
Q 54.890625 44.34375 54.890625 33.015625 
" id="BitstreamVeraSans-Roman-6e"/>
      <path d="M 52 44.1875 
Q 55.375 50.25 60.0625 53.125 
Q 64.75 56 71.09375 56 
Q 79.640625 56 84.28125 50.015625 
Q 88.921875 44.046875 88.921875 33.015625 
L 88.921875 0 
L 79.890625 0 
L 79.890625 32.71875 
Q 79.890625 40.578125 77.09375 44.375 
Q 74.3125 48.1875 68.609375 48.1875 
Q 61.625 48.1875 57.5625 43.546875 
Q 53.515625 38.921875 53.515625 30.90625 
L 53.515625 0 
L 44.484375 0 
L 44.484375 32.71875 
Q 44.484375 40.625 41.703125 44.40625 
Q 38.921875 48.1875 33.109375 48.1875 
Q 26.21875 48.1875 22.15625 43.53125 
Q 18.109375 38.875 18.109375 30.90625 
L 18.109375 0 
L 9.078125 0 
L 9.078125 54.6875 
L 18.109375 54.6875 
L 18.109375 46.1875 
Q 21.1875 51.21875 25.484375 53.609375 
Q 29.78125 56 35.6875 56 
Q 41.65625 56 45.828125 52.96875 
Q 50 49.953125 52 44.1875 
" id="BitstreamVeraSans-Roman-6d"/>
      <path d="M 30.609375 48.390625 
Q 23.390625 48.390625 19.1875 42.75 
Q 14.984375 37.109375 14.984375 27.296875 
Q 14.984375 17.484375 19.15625 11.84375 
Q 23.34375 6.203125 30.609375 6.203125 
Q 37.796875 6.203125 41.984375 11.859375 
Q 46.1875 17.53125 46.1875 27.296875 
Q 46.1875 37.015625 41.984375 42.703125 
Q 37.796875 48.390625 30.609375 48.390625 
M 30.609375 56 
Q 42.328125 56 49.015625 48.375 
Q 55.71875 40.765625 55.71875 27.296875 
Q 55.71875 13.875 49.015625 6.21875 
Q 42.328125 -1.421875 30.609375 -1.421875 
Q 18.84375 -1.421875 12.171875 6.21875 
Q 5.515625 13.875 5.515625 27.296875 
Q 5.515625 40.765625 12.171875 48.375 
Q 18.84375 56 30.609375 56 
" id="BitstreamVeraSans-Roman-6f"/>
      <path d="M 41.109375 46.296875 
Q 39.59375 47.171875 37.8125 47.578125 
Q 36.03125 48 33.890625 48 
Q 26.265625 48 22.1875 43.046875 
Q 18.109375 38.09375 18.109375 28.8125 
L 18.109375 0 
L 9.078125 0 
L 9.078125 54.6875 
L 18.109375 54.6875 
L 18.109375 46.1875 
Q 20.953125 51.171875 25.484375 53.578125 
Q 30.03125 56 36.53125 56 
Q 37.453125 56 38.578125 55.875 
Q 39.703125 55.765625 41.0625 55.515625 
z
" id="BitstreamVeraSans-Roman-72"/>
      <path d="M 56.203125 29.59375 
L 56.203125 25.203125 
L 14.890625 25.203125 
Q 15.484375 15.921875 20.484375 11.0625 
Q 25.484375 6.203125 34.421875 6.203125 
Q 39.59375 6.203125 44.453125 7.46875 
Q 49.3125 8.734375 54.109375 11.28125 
L 54.109375 2.78125 
Q 49.265625 0.734375 44.1875 -0.34375 
Q 39.109375 -1.421875 33.890625 -1.421875 
Q 20.796875 -1.421875 13.15625 6.1875 
Q 5.515625 13.8125 5.515625 26.8125 
Q 5.515625 40.234375 12.765625 48.109375 
Q 20.015625 56 32.328125 56 
Q 43.359375 56 49.78125 48.890625 
Q 56.203125 41.796875 56.203125 29.59375 
M 47.21875 32.234375 
Q 47.125 39.59375 43.09375 43.984375 
Q 39.0625 48.390625 32.421875 48.390625 
Q 24.90625 48.390625 20.390625 44.140625 
Q 15.875 39.890625 15.1875 32.171875 
z
" id="BitstreamVeraSans-Roman-65"/>
      <path d="M 45.40625 46.390625 
L 45.40625 75.984375 
L 54.390625 75.984375 
L 54.390625 0 
L 45.40625 0 
L 45.40625 8.203125 
Q 42.578125 3.328125 38.25 0.953125 
Q 33.9375 -1.421875 27.875 -1.421875 
Q 17.96875 -1.421875 11.734375 6.484375 
Q 5.515625 14.40625 5.515625 27.296875 
Q 5.515625 40.1875 11.734375 48.09375 
Q 17.96875 56 27.875 56 
Q 33.9375 56 38.25 53.625 
Q 42.578125 51.265625 45.40625 46.390625 
M 14.796875 27.296875 
Q 14.796875 17.390625 18.875 11.75 
Q 22.953125 6.109375 30.078125 6.109375 
Q 37.203125 6.109375 41.296875 11.75 
Q 45.40625 17.390625 45.40625 27.296875 
Q 45.40625 37.203125 41.296875 42.84375 
Q 37.203125 48.484375 30.078125 48.484375 
Q 22.953125 48.484375 18.875 42.84375 
Q 14.796875 37.203125 14.796875 27.296875 
" id="BitstreamVeraSans-Roman-64"/>
      <path d="M 18.3125 70.21875 
L 18.3125 54.6875 
L 36.8125 54.6875 
L 36.8125 47.703125 
L 18.3125 47.703125 
L 18.3125 18.015625 
Q 18.3125 11.328125 20.140625 9.421875 
Q 21.96875 7.515625 27.59375 7.515625 
L 36.8125 7.515625 
L 36.8125 0 
L 27.59375 0 
Q 17.1875 0 13.234375 3.875 
Q 9.28125 7.765625 9.28125 18.015625 
L 9.28125 47.703125 
L 2.6875 47.703125 
L 2.6875 54.6875 
L 9.28125 54.6875 
L 9.28125 70.21875 
z
" id="BitstreamVeraSans-Roman-74"/>
      <path d="M 34.28125 27.484375 
Q 23.390625 27.484375 19.1875 25 
Q 14.984375 22.515625 14.984375 16.5 
Q 14.984375 11.71875 18.140625 8.90625 
Q 21.296875 6.109375 26.703125 6.109375 
Q 34.1875 6.109375 38.703125 11.40625 
Q 43.21875 16.703125 43.21875 25.484375 
L 43.21875 27.484375 
z
M 52.203125 31.203125 
L 52.203125 0 
L 43.21875 0 
L 43.21875 8.296875 
Q 40.140625 3.328125 35.546875 0.953125 
Q 30.953125 -1.421875 24.3125 -1.421875 
Q 15.921875 -1.421875 10.953125 3.296875 
Q 6 8.015625 6 15.921875 
Q 6 25.140625 12.171875 29.828125 
Q 18.359375 34.515625 30.609375 34.515625 
L 43.21875 34.515625 
L 43.21875 35.40625 
Q 43.21875 41.609375 39.140625 45 
Q 35.0625 48.390625 27.6875 48.390625 
Q 23 48.390625 18.546875 47.265625 
Q 14.109375 46.140625 10.015625 43.890625 
L 10.015625 52.203125 
Q 14.9375 54.109375 19.578125 55.046875 
Q 24.21875 56 28.609375 56 
Q 40.484375 56 46.34375 49.84375 
Q 52.203125 43.703125 52.203125 31.203125 
" id="BitstreamVeraSans-Roman-61"/>
      <path d="M 48.78125 52.59375 
L 48.78125 44.1875 
Q 44.96875 46.296875 41.140625 47.34375 
Q 37.3125 48.390625 33.40625 48.390625 
Q 24.65625 48.390625 19.8125 42.84375 
Q 14.984375 37.3125 14.984375 27.296875 
Q 14.984375 17.28125 19.8125 11.734375 
Q 24.65625 6.203125 33.40625 6.203125 
Q 37.3125 6.203125 41.140625 7.25 
Q 44.96875 8.296875 48.78125 10.40625 
L 48.78125 2.09375 
Q 45.015625 0.34375 40.984375 -0.53125 
Q 36.96875 -1.421875 32.421875 -1.421875 
Q 20.0625 -1.421875 12.78125 6.34375 
Q 5.515625 14.109375 5.515625 27.296875 
Q 5.515625 40.671875 12.859375 48.328125 
Q 20.21875 56 33.015625 56 
Q 37.15625 56 41.109375 55.140625 
Q 45.0625 54.296875 48.78125 52.59375 
" id="BitstreamVeraSans-Roman-63"/>
      <path d="M 14.796875 27.296875 
Q 14.796875 17.390625 18.875 11.75 
Q 22.953125 6.109375 30.078125 6.109375 
Q 37.203125 6.109375 41.296875 11.75 
Q 45.40625 17.390625 45.40625 27.296875 
Q 45.40625 37.203125 41.296875 42.84375 
Q 37.203125 48.484375 30.078125 48.484375 
Q 22.953125 48.484375 18.875 42.84375 
Q 14.796875 37.203125 14.796875 27.296875 
M 45.40625 8.203125 
Q 42.578125 3.328125 38.25 0.953125 
Q 33.9375 -1.421875 27.875 -1.421875 
Q 17.96875 -1.421875 11.734375 6.484375 
Q 5.515625 14.40625 5.515625 27.296875 
Q 5.515625 40.1875 11.734375 48.09375 
Q 17.96875 56 27.875 56 
Q 33.9375 56 38.25 53.625 
Q 42.578125 51.265625 45.40625 46.390625 
L 45.40625 54.6875 
L 54.390625 54.6875 
L 54.390625 -20.796875 
L 45.40625 -20.796875 
z
" id="BitstreamVeraSans-Roman-71"/>
     </defs>
     <g transform="translate(125.28 307.83375)scale(0.144 -0.144)">
      <use xlink:href="#BitstreamVeraSans-Roman-63"/>
      <use x="54.98046875" xlink:href="#BitstreamVeraSans-Roman-6f"/>
      <use x="116.162109375" xlink:href="#BitstreamVeraSans-Roman-6d"/>
      <use x="213.57421875" xlink:href="#BitstreamVeraSans-Roman-6d"/>
      <use x="310.986328125" xlink:href="#BitstreamVeraSans-Roman-61"/>
      <use x="372.265625" xlink:href="#BitstreamVeraSans-Roman-6e"/>
      <use x="435.64453125" xlink:href="#BitstreamVeraSans-Roman-64"/>
      <use x="499.12109375" xlink:href="#BitstreamVeraSans-Roman-65"/>
      <use x="560.64453125" xlink:href="#BitstreamVeraSans-Roman-64"/>
      <use x="624.12109375" xlink:href="#BitstreamVeraSans-Roman-5f"/>
      <use x="674.12109375" xlink:href="#BitstreamVeraSans-Roman-74"/>
      <use x="713.330078125" xlink:href="#BitstreamVeraSans-Roman-6f"/>
      <use x="774.51171875" xlink:href="#BitstreamVeraSans-Roman-72"/>
      <use x="815.609375" xlink:href="#BitstreamVeraSans-Roman-71"/>
     </g>
    </g>
    <g id="line2d_41">
     <path d="M 89.28 324.33075 
L 109.44 324.33075 
" style="fill:none;stroke:#008000;stroke-linecap:square;"/>
    </g>
    <g id="line2d_42"/>
    <g id="text_19">
     <!-- ia_pred -->
     <defs>
      <path d="M 9.421875 54.6875 
L 18.40625 54.6875 
L 18.40625 0 
L 9.421875 0 
z
M 9.421875 75.984375 
L 18.40625 75.984375 
L 18.40625 64.59375 
L 9.421875 64.59375 
z
" id="BitstreamVeraSans-Roman-69"/>
      <path d="M 18.109375 8.203125 
L 18.109375 -20.796875 
L 9.078125 -20.796875 
L 9.078125 54.6875 
L 18.109375 54.6875 
L 18.109375 46.390625 
Q 20.953125 51.265625 25.265625 53.625 
Q 29.59375 56 35.59375 56 
Q 45.5625 56 51.78125 48.09375 
Q 58.015625 40.1875 58.015625 27.296875 
Q 58.015625 14.40625 51.78125 6.484375 
Q 45.5625 -1.421875 35.59375 -1.421875 
Q 29.59375 -1.421875 25.265625 0.953125 
Q 20.953125 3.328125 18.109375 8.203125 
M 48.6875 27.296875 
Q 48.6875 37.203125 44.609375 42.84375 
Q 40.53125 48.484375 33.40625 48.484375 
Q 26.265625 48.484375 22.1875 42.84375 
Q 18.109375 37.203125 18.109375 27.296875 
Q 18.109375 17.390625 22.1875 11.75 
Q 26.265625 6.109375 33.40625 6.109375 
Q 40.53125 6.109375 44.609375 11.75 
Q 48.6875 17.390625 48.6875 27.296875 
" id="BitstreamVeraSans-Roman-70"/>
     </defs>
     <g transform="translate(125.28 329.37075)scale(0.144 -0.144)">
      <use xlink:href="#BitstreamVeraSans-Roman-69"/>
      <use x="27.783203125" xlink:href="#BitstreamVeraSans-Roman-61"/>
      <use x="89.0625" xlink:href="#BitstreamVeraSans-Roman-5f"/>
      <use x="139.0625" xlink:href="#BitstreamVeraSans-Roman-70"/>
      <use x="202.5390625" xlink:href="#BitstreamVeraSans-Roman-72"/>
      <use x="243.62109375" xlink:href="#BitstreamVeraSans-Roman-65"/>
      <use x="305.14453125" xlink:href="#BitstreamVeraSans-Roman-64"/>
     </g>
    </g>
    <g id="line2d_43">
     <path d="M 89.28 345.86775 
L 109.44 345.86775 
" style="fill:none;stroke:#ff0000;stroke-linecap:square;"/>
    </g>
    <g id="line2d_44"/>
    <g id="text_20">
     <!-- ib_pred -->
     <defs>
      <path d="M 48.6875 27.296875 
Q 48.6875 37.203125 44.609375 42.84375 
Q 40.53125 48.484375 33.40625 48.484375 
Q 26.265625 48.484375 22.1875 42.84375 
Q 18.109375 37.203125 18.109375 27.296875 
Q 18.109375 17.390625 22.1875 11.75 
Q 26.265625 6.109375 33.40625 6.109375 
Q 40.53125 6.109375 44.609375 11.75 
Q 48.6875 17.390625 48.6875 27.296875 
M 18.109375 46.390625 
Q 20.953125 51.265625 25.265625 53.625 
Q 29.59375 56 35.59375 56 
Q 45.5625 56 51.78125 48.09375 
Q 58.015625 40.1875 58.015625 27.296875 
Q 58.015625 14.40625 51.78125 6.484375 
Q 45.5625 -1.421875 35.59375 -1.421875 
Q 29.59375 -1.421875 25.265625 0.953125 
Q 20.953125 3.328125 18.109375 8.203125 
L 18.109375 0 
L 9.078125 0 
L 9.078125 75.984375 
L 18.109375 75.984375 
z
" id="BitstreamVeraSans-Roman-62"/>
     </defs>
     <g transform="translate(125.28 350.90775)scale(0.144 -0.144)">
      <use xlink:href="#BitstreamVeraSans-Roman-69"/>
      <use x="27.783203125" xlink:href="#BitstreamVeraSans-Roman-62"/>
      <use x="91.259765625" xlink:href="#BitstreamVeraSans-Roman-5f"/>
      <use x="141.259765625" xlink:href="#BitstreamVeraSans-Roman-70"/>
      <use x="204.736328125" xlink:href="#BitstreamVeraSans-Roman-72"/>
      <use x="245.818359375" xlink:href="#BitstreamVeraSans-Roman-65"/>
      <use x="307.341796875" xlink:href="#BitstreamVeraSans-Roman-64"/>
     </g>
    </g>
    <g id="line2d_45">
     <path d="M 89.28 367.40475 
L 109.44 367.40475 
" style="fill:none;stroke:#00bfbf;stroke-linecap:square;"/>
    </g>
    <g id="line2d_46"/>
    <g id="text_21">
     <!-- actual_torque -->
     <defs>
      <path d="M 8.5 21.578125 
L 8.5 54.6875 
L 17.484375 54.6875 
L 17.484375 21.921875 
Q 17.484375 14.15625 20.5 10.265625 
Q 23.53125 6.390625 29.59375 6.390625 
Q 36.859375 6.390625 41.078125 11.03125 
Q 45.3125 15.671875 45.3125 23.6875 
L 45.3125 54.6875 
L 54.296875 54.6875 
L 54.296875 0 
L 45.3125 0 
L 45.3125 8.40625 
Q 42.046875 3.421875 37.71875 1 
Q 33.40625 -1.421875 27.6875 -1.421875 
Q 18.265625 -1.421875 13.375 4.4375 
Q 8.5 10.296875 8.5 21.578125 
" id="BitstreamVeraSans-Roman-75"/>
      <path d="M 9.421875 75.984375 
L 18.40625 75.984375 
L 18.40625 0 
L 9.421875 0 
z
" id="BitstreamVeraSans-Roman-6c"/>
     </defs>
     <g transform="translate(125.28 372.44475)scale(0.144 -0.144)">
      <use xlink:href="#BitstreamVeraSans-Roman-61"/>
      <use x="61.279296875" xlink:href="#BitstreamVeraSans-Roman-63"/>
      <use x="116.259765625" xlink:href="#BitstreamVeraSans-Roman-74"/>
      <use x="155.46875" xlink:href="#BitstreamVeraSans-Roman-75"/>
      <use x="218.84765625" xlink:href="#BitstreamVeraSans-Roman-61"/>
      <use x="280.126953125" xlink:href="#BitstreamVeraSans-Roman-6c"/>
      <use x="307.91015625" xlink:href="#BitstreamVeraSans-Roman-5f"/>
      <use x="357.91015625" xlink:href="#BitstreamVeraSans-Roman-74"/>
      <use x="397.119140625" xlink:href="#BitstreamVeraSans-Roman-6f"/>
      <use x="458.30078125" xlink:href="#BitstreamVeraSans-Roman-72"/>
      <use x="499.3984375" xlink:href="#BitstreamVeraSans-Roman-71"/>
      <use x="562.875" xlink:href="#BitstreamVeraSans-Roman-75"/>
      <use x="626.25390625" xlink:href="#BitstreamVeraSans-Roman-65"/>
     </g>
    </g>
   </g>
  </g>
 </g>
 <defs>
  <clipPath id="p936b9cbfe4">
   <rect height="345.6" width="446.4" x="72.0" y="43.2"/>
  </clipPath>
 </defs>
</svg>
