<?xml version="1.0" encoding="utf-8" standalone="no"?>
<!DOCTYPE svg PUBLIC "-//W3C//DTD SVG 1.1//EN"
  "http://www.w3.org/Graphics/SVG/1.1/DTD/svg11.dtd">
<!-- Created with matplotlib (http://matplotlib.org/) -->
<svg height="432pt" version="1.1" viewBox="0 0 576 432" width="576pt" xmlns="http://www.w3.org/2000/svg" xmlns:xlink="http://www.w3.org/1999/xlink">
 <defs>
  <style type="text/css">
*{stroke-linecap:butt;stroke-linejoin:round;stroke-miterlimit:100000;}
  </style>
 </defs>
 <g id="figure_1">
  <g id="patch_1">
   <path d="M 0 432 
L 576 432 
L 576 0 
L 0 0 
z
" style="fill:#ffffff;"/>
  </g>
  <g id="axes_1">
   <g id="patch_2">
    <path d="M 72 388.8 
L 518.4 388.8 
L 518.4 43.2 
L 72 43.2 
z
" style="fill:#ffffff;"/>
   </g>
   <g id="line2d_1">
    <path clip-path="url(#p8fb2d32b80)" d="M 72 216 
L 75.365777 254.13393 
L 77.89011 280.76331 
L 80.414442 304.887235 
L 82.097331 319.258751 
L 83.780219 332.06798 
L 85.463108 343.17493 
L 87.145995 352.464107 
L 88.828883 359.845789 
L 89.670328 362.800475 
L 90.511773 365.256633 
L 91.353216 367.210554 
L 92.194661 368.660229 
L 93.036106 369.60529 
L 93.877549 370.047076 
L 94.718994 369.988539 
L 95.560439 369.434283 
L 96.40188 368.390503 
L 97.243325 366.864932 
L 98.084768 364.866855 
L 98.926216 362.407017 
L 99.767658 359.497631 
L 101.450548 352.385676 
L 103.133437 343.654991 
L 104.816323 333.448674 
L 106.499213 321.926638 
L 109.023546 302.561477 
L 111.547875 281.267033 
L 115.755098 243.33182 
L 120.80376 197.713815 
L 123.3281 176.412398 
L 125.852433 156.914904 
L 127.535316 145.176117 
L 129.218209 134.601364 
L 130.901095 125.304622 
L 132.583981 117.380322 
L 134.266875 110.902657 
L 135.108318 108.223838 
L 135.949754 105.925059 
L 136.791204 104.009598 
L 137.632647 102.479596 
L 138.474097 101.335679 
L 139.315533 100.57732 
L 140.156976 100.202582 
L 140.998426 100.208309 
L 141.83987 100.590106 
L 142.681313 101.342322 
L 143.522756 102.458156 
L 144.364206 103.929605 
L 145.205642 105.747588 
L 146.047092 107.901978 
L 147.729985 113.174187 
L 149.412865 119.645336 
L 151.095751 127.200779 
L 152.778644 135.713878 
L 155.302973 149.977898 
L 157.82731 165.595196 
L 162.875975 198.821447 
L 167.083191 226.095473 
L 169.60752 241.281002 
L 172.131857 255.067135 
L 173.81475 263.302949 
L 175.497636 270.669818 
L 177.180522 277.094025 
L 178.863416 282.517004 
L 180.546295 286.895704 
L 181.387745 288.684392 
L 182.229195 290.203064 
L 183.070631 291.450777 
L 183.912081 292.427641 
L 184.753531 293.134626 
L 185.594967 293.573671 
L 186.436418 293.747698 
L 187.277847 293.660458 
L 188.119297 293.316626 
L 188.96074 292.721687 
L 189.80219 291.881968 
L 190.64364 290.804559 
L 191.485076 289.497328 
L 193.167962 286.228211 
L 194.850849 282.150686 
L 196.533749 277.350018 
L 198.216635 271.919227 
L 200.740957 262.809483 
L 204.106744 249.414659 
L 212.521189 214.918627 
L 215.045511 205.638557 
L 217.569834 197.343751 
L 219.252734 192.465121 
L 220.935634 188.165231 
L 222.618521 184.481291 
L 224.301393 181.439266 
L 225.984279 179.05383 
L 227.667179 177.328573 
L 228.508629 176.71167 
L 229.35008 176.256278 
L 230.191501 175.959893 
L 231.032952 175.819337 
L 231.874402 175.830912 
L 232.715838 175.990342 
L 233.557288 176.292797 
L 234.398724 176.732961 
L 236.08161 178.002752 
L 237.764511 179.748265 
L 239.447397 181.912042 
L 241.130283 184.431876 
L 243.654619 188.734774 
L 247.020392 195.089147 
L 252.910515 206.392224 
L 255.434823 210.769009 
L 257.959159 214.615701 
L 259.64206 216.820561 
L 261.324932 218.703179 
L 263.007832 220.243105 
L 264.690732 221.428106 
L 266.373604 222.254339 
L 268.056491 222.726307 
L 269.739391 222.856487 
L 271.422291 222.665002 
L 273.105163 222.179082 
L 274.78805 221.432394 
L 276.47095 220.464261 
L 278.995272 218.694368 
L 283.202481 215.309914 
L 286.568281 212.681229 
L 289.092589 211.026656 
L 290.77549 210.164012 
L 292.45839 209.543131 
L 294.141262 209.200597 
L 295.824163 209.166973 
L 297.507063 209.466002 
L 299.189935 210.11403 
L 300.872835 211.119619 
L 302.555693 212.483046 
L 304.238594 214.196381 
L 305.92148 216.243196 
L 307.60438 218.598925 
L 310.128702 222.638418 
L 312.653053 227.157241 
L 316.860247 235.269327 
L 321.067498 243.265259 
L 323.59182 247.568136 
L 325.274721 250.087977 
L 326.957593 252.251739 
L 328.640493 253.997248 
L 330.323365 255.267049 
L 331.164815 255.707198 
L 332.006237 256.009652 
L 332.847687 256.169088 
L 333.689138 256.180654 
L 334.530588 256.040107 
L 335.372038 255.743686 
L 336.213488 255.288297 
L 337.054938 254.671382 
L 337.896389 253.89108 
L 339.579261 251.835988 
L 341.262133 249.121133 
L 342.945033 245.755556 
L 344.627905 241.759746 
L 346.310805 237.165148 
L 347.993706 232.014527 
L 350.518028 223.3659 
L 353.042379 213.811586 
L 356.408151 200.134082 
L 363.139667 172.432187 
L 365.664018 163.001682 
L 367.346918 157.292614 
L 369.02979 152.164916 
L 370.712691 147.714631 
L 372.395563 144.031204 
L 374.078463 141.195432 
L 374.919942 140.118008 
L 375.761364 139.278313 
L 376.602785 138.683384 
L 377.444236 138.339537 
L 378.285686 138.252316 
L 379.127136 138.426338 
L 379.968558 138.865379 
L 380.810036 139.572402 
L 381.651458 140.549223 
L 382.492908 141.79698 
L 383.334359 143.315653 
L 384.175809 145.10435 
L 385.858681 149.483021 
L 387.541581 154.906037 
L 389.224482 161.330318 
L 390.907354 168.697125 
L 392.590254 176.932985 
L 395.114576 190.719048 
L 397.638898 205.904534 
L 401.004699 227.607284 
L 407.736216 271.729362 
L 410.260566 286.952125 
L 412.784888 300.654033 
L 414.467789 308.704856 
L 416.150689 315.733334 
L 417.833589 321.618544 
L 419.516461 326.252422 
L 420.357912 328.070429 
L 421.199333 329.541844 
L 422.040784 330.657685 
L 422.882234 331.409887 
L 423.723684 331.791687 
L 424.565106 331.797425 
L 425.406556 331.42267 
L 426.248006 330.664292 
L 427.089428 329.52044 
L 427.930907 327.990338 
L 428.772328 326.074963 
L 429.613779 323.776143 
L 430.455229 321.097278 
L 432.138129 314.619568 
L 433.82103 306.695171 
L 435.503902 297.3985 
L 437.186774 286.823869 
L 438.869646 275.085172 
L 441.394025 255.587298 
L 443.918318 234.28627 
L 448.125541 196.390623 
L 453.174242 150.732721 
L 455.698564 129.438354 
L 458.222887 110.073284 
L 459.905787 98.551196 
L 461.588659 88.344974 
L 463.271559 79.614253 
L 464.95446 72.502289 
L 465.795882 69.592966 
L 466.63736 67.133062 
L 467.478782 65.135049 
L 468.320204 63.609516 
L 469.161682 62.565707 
L 470.003104 62.011471 
L 470.844583 61.95297 
L 471.686005 62.394747 
L 472.527426 63.339761 
L 473.368905 64.78954 
L 474.210327 66.743414 
L 475.051749 69.199478 
L 475.893199 72.154192 
L 476.734649 75.60202 
L 478.417549 83.947108 
L 480.10045 94.15813 
L 481.783322 106.132116 
L 483.466222 119.741578 
L 485.149123 134.834579 
L 487.673445 159.869285 
L 490.197767 187.175802 
L 491.880667 206.272933 
L 491.880667 206.272933 
" style="fill:none;opacity:0.2;stroke:#0000ff;stroke-linecap:square;"/>
   </g>
   <g id="line2d_2">
    <path clip-path="url(#p8fb2d32b80)" d="M 72 66.350813 
L 72.841444 62.324004 
L 73.682889 58.823643 
L 74.524333 55.856937 
L 75.365777 53.429272 
L 76.207221 51.544239 
L 77.048665 50.203583 
L 77.89011 49.407283 
L 78.731554 49.153519 
L 79.572998 49.438704 
L 80.414442 50.257511 
L 81.255887 51.602918 
L 82.097331 53.466193 
L 82.938774 55.837019 
L 83.780219 58.703471 
L 84.621662 62.052076 
L 86.304552 70.134669 
L 87.987438 79.948753 
L 89.670328 91.337931 
L 91.353216 104.127683 
L 93.877549 125.519385 
L 96.40188 148.940675 
L 100.609104 190.48517 
L 105.657767 240.206805 
L 108.182103 263.336629 
L 110.706432 284.446556 
L 112.389322 297.118818 
L 114.072212 308.500627 
L 115.755098 318.468624 
L 117.437988 326.920514 
L 119.120877 333.775997 
L 119.962321 336.586157 
L 120.80376 338.977397 
L 121.64521 340.946156 
L 122.48665 342.490209 
L 123.3281 343.6089 
L 124.169536 344.30289 
L 125.010986 344.57435 
L 125.852433 344.426746 
L 126.693872 343.86499 
L 127.535316 342.895278 
L 128.376766 341.52511 
L 129.218209 339.763297 
L 130.059648 337.619825 
L 130.901095 335.10586 
L 132.583981 329.016748 
L 134.266875 321.606869 
L 135.949754 313.002557 
L 137.632647 303.343193 
L 140.156976 287.208151 
L 142.681313 269.583672 
L 147.729985 232.15555 
L 151.937201 201.459952 
L 154.46153 184.372151 
L 156.985867 168.860076 
L 158.668753 159.594742 
L 160.351639 151.309644 
L 162.034532 144.08942 
L 163.717411 138.002152 
L 165.400305 133.098524 
L 166.241755 131.101674 
L 167.083191 129.411892 
L 167.924641 128.030505 
L 168.766077 126.957939 
L 169.60752 126.193361 
L 170.44897 125.735001 
L 171.290421 125.580011 
L 172.131857 125.724537 
L 172.9733 126.163713 
L 173.81475 126.891705 
L 174.6562 127.901817 
L 175.497636 129.186346 
L 176.339072 130.736844 
L 178.021973 134.597756 
L 179.704866 139.401109 
L 181.387745 145.052669 
L 183.070631 151.449134 
L 185.594967 162.196497 
L 188.119297 173.973163 
L 193.167962 198.970727 
L 197.375199 219.361656 
L 199.899507 230.637978 
L 202.423844 240.81052 
L 204.106744 246.849878 
L 205.78963 252.221261 
L 207.472516 256.874732 
L 209.155403 260.772747 
L 210.838289 263.890381 
L 212.521189 266.215391 
L 213.362625 267.080187 
L 214.204075 267.747849 
L 215.045511 268.220237 
L 215.886962 268.500003 
L 216.728412 268.590443 
L 217.569834 268.495548 
L 218.411284 268.219972 
L 219.252734 267.768959 
L 220.094184 267.148352 
L 220.935634 266.364556 
L 222.618521 264.335568 
L 224.301393 261.74297 
L 225.984279 258.654171 
L 227.667179 255.141873 
L 230.191501 249.247565 
L 233.557288 240.637493 
L 240.288847 223.185387 
L 242.813169 217.29239 
L 245.337506 212.061916 
L 247.020392 209.01623 
L 248.703278 206.362691 
L 250.386164 204.124699 
L 252.069065 202.31676 
L 253.751951 200.944311 
L 255.434823 200.003804 
L 257.117723 199.483158 
L 258.800609 199.36221 
L 260.48351 199.613248 
L 262.166382 200.201775 
L 263.849282 201.087339 
L 265.532154 202.224486 
L 268.056491 204.292891 
L 271.422291 207.448395 
L 275.6295 211.420078 
L 278.153822 213.5056 
L 279.836722 214.674893 
L 281.519594 215.62112 
L 283.202481 216.311212 
L 284.885381 216.718725 
L 286.568281 216.824369 
L 288.251153 216.616467 
L 289.934054 216.091197 
L 291.61694 215.252766 
L 293.29984 214.113366 
L 294.982684 212.693044 
L 296.665584 211.019208 
L 299.189935 208.110441 
L 302.555693 203.718743 
L 308.445802 195.809343 
L 310.970153 192.844914 
L 312.653053 191.159563 
L 314.335925 189.773342 
L 316.018797 188.739185 
L 317.701697 188.105394 
L 318.543148 187.952155 
L 319.384598 187.914452 
L 320.226048 187.996513 
L 321.067498 188.202087 
L 321.90892 188.534441 
L 322.750399 188.996375 
L 324.433271 190.316946 
L 326.116143 192.17447 
L 327.799015 194.57002 
L 329.481915 197.494918 
L 331.164815 200.930325 
L 332.847687 204.847354 
L 334.530588 209.207491 
L 337.054938 216.470564 
L 339.579261 224.420189 
L 343.786483 238.529899 
L 347.993706 252.575921 
L 350.518028 260.381944 
L 353.042379 267.340613 
L 354.725251 271.360083 
L 356.408151 274.785885 
L 358.091023 277.540661 
L 358.932473 278.644297 
L 359.773923 279.554708 
L 360.615345 280.264539 
L 361.456824 280.767134 
L 362.298246 281.056459 
L 363.139667 281.127214 
L 363.981146 280.974768 
L 364.822568 280.595376 
L 365.664018 279.985941 
L 366.505468 279.144236 
L 367.346918 278.068896 
L 368.188369 276.759351 
L 369.02979 275.216001 
L 370.712691 271.433208 
L 372.395563 266.740819 
L 374.078463 261.172983 
L 375.761364 254.778224 
L 377.444236 247.618873 
L 379.968558 235.614304 
L 382.492908 222.367532 
L 385.858681 203.404197 
L 392.590254 164.791526 
L 395.114576 151.474297 
L 397.638898 139.507335 
L 399.321799 132.494795 
L 401.004699 126.394937 
L 402.687599 121.317295 
L 404.370471 117.359938 
L 405.211893 115.828444 
L 406.053372 114.607653 
L 406.894794 113.70599 
L 407.736216 113.130671 
L 408.577694 112.887988 
L 409.419116 112.983093 
L 410.260566 113.420082 
L 411.101988 114.201865 
L 411.943466 115.330348 
L 412.784888 116.80594 
L 413.626339 118.628235 
L 414.467789 120.795366 
L 416.150689 126.151028 
L 417.833589 132.834426 
L 419.516461 140.787657 
L 421.199333 149.934187 
L 422.882234 160.179378 
L 425.406556 177.356918 
L 427.930907 196.305381 
L 431.296679 223.426379 
L 438.869646 285.341627 
L 441.394025 304.021585 
L 443.918318 320.691196 
L 445.601219 330.406272 
L 447.284119 338.822266 
L 448.96702 345.800564 
L 449.808441 348.711682 
L 450.649863 351.219095 
L 451.491342 353.310598 
L 452.332764 354.974923 
L 453.174242 356.202541 
L 454.015664 356.985005 
L 454.857143 357.315444 
L 455.698564 357.188412 
L 456.539986 356.599919 
L 457.381465 355.547371 
L 458.222887 354.030017 
L 459.064308 352.048383 
L 459.905787 349.604366 
L 460.747209 346.702136 
L 462.430081 339.544893 
L 464.112981 330.637354 
L 465.795882 320.065135 
L 467.478782 307.937551 
L 469.161682 294.386697 
L 471.686005 271.733118 
L 474.210327 246.825736 
L 477.576099 211.298586 
L 484.307644 139.144706 
L 486.831966 114.170649 
L 489.356288 91.563336 
L 491.039189 78.169234 
L 491.880667 72.051131 
L 491.880667 72.051131 
" style="fill:none;opacity:0.2;stroke:#008000;stroke-linecap:square;"/>
   </g>
   <g id="line2d_3">
    <path clip-path="url(#p8fb2d32b80)" d="M 72 365.649197 
L 73.682889 353.830817 
L 75.365777 340.436823 
L 77.89011 317.829431 
L 80.414442 292.855269 
L 83.780219 257.228584 
L 90.511773 185.174095 
L 93.036106 160.266623 
L 95.560439 137.612974 
L 97.243325 124.062258 
L 98.926216 111.934775 
L 100.609104 101.362628 
L 102.291991 92.455169 
L 103.974877 85.297864 
L 104.816323 82.39553 
L 105.657767 79.951643 
L 106.499213 77.96994 
L 107.340656 76.452543 
L 108.182103 75.400063 
L 109.023546 74.811554 
L 109.864993 74.684524 
L 110.706432 75.014995 
L 111.547875 75.797476 
L 112.389322 77.025077 
L 113.230765 78.689435 
L 114.072212 80.780878 
L 114.913655 83.288351 
L 116.596541 89.500943 
L 118.279431 97.214395 
L 119.962321 106.298167 
L 121.64521 116.606112 
L 124.169536 134.011233 
L 126.693872 153.227149 
L 130.901095 187.589505 
L 135.949754 229.072378 
L 138.474097 248.499729 
L 140.998426 266.320675 
L 142.681313 277.074003 
L 144.364206 286.782855 
L 146.047092 295.34353 
L 147.729985 302.670262 
L 149.412865 308.695698 
L 151.095751 313.371794 
L 151.937201 315.194079 
L 152.778644 316.669706 
L 153.620087 317.798123 
L 154.46153 318.579936 
L 155.302973 319.016913 
L 156.144424 319.112036 
L 156.985867 318.869329 
L 157.82731 318.29401 
L 158.668753 317.392319 
L 159.510196 316.171556 
L 160.351639 314.640032 
L 161.193082 312.806978 
L 162.875975 308.277978 
L 164.558862 302.676232 
L 166.241755 296.105706 
L 167.924641 288.681057 
L 170.44897 276.214313 
L 172.9733 262.547849 
L 178.021973 233.46851 
L 182.229195 209.632358 
L 184.753531 196.385668 
L 187.277847 184.381134 
L 188.96074 177.221689 
L 190.64364 170.82694 
L 192.326526 165.259163 
L 194.009398 160.566763 
L 195.692299 156.783974 
L 196.533749 155.24057 
L 197.375199 153.931038 
L 198.216635 152.855727 
L 199.058071 152.014051 
L 199.899507 151.404627 
L 200.740957 151.025208 
L 201.582408 150.872784 
L 202.423844 150.943537 
L 203.265294 151.232865 
L 204.106744 151.735461 
L 204.948194 152.445309 
L 205.78963 153.3557 
L 206.631066 154.459343 
L 208.313952 157.214133 
L 209.996853 160.639946 
L 211.679739 164.65944 
L 213.362625 169.189226 
L 215.886962 176.747103 
L 219.252734 187.765917 
L 225.984279 210.291986 
L 228.508629 218.037597 
L 231.032952 225.02518 
L 232.715838 229.169197 
L 234.398724 232.849638 
L 236.08161 236.032742 
L 237.764511 238.694715 
L 239.447397 240.82174 
L 241.130283 242.410052 
L 242.813169 243.465576 
L 243.654619 243.797949 
L 244.49607 244.003526 
L 245.337506 244.085563 
L 246.178956 244.047848 
L 247.861842 243.630561 
L 249.544714 242.790895 
L 251.227614 241.574344 
L 252.910515 240.031668 
L 254.593387 238.217811 
L 257.117723 235.115754 
L 261.324932 229.429093 
L 264.690732 224.944421 
L 267.21504 221.902249 
L 268.897941 220.114198 
L 270.580841 218.563211 
L 272.263713 217.28037 
L 273.946599 216.289447 
L 275.6295 215.60657 
L 277.3124 215.239958 
L 278.995272 215.189806 
L 280.678144 215.448327 
L 282.361045 216 
L 284.043945 216.821898 
L 285.726831 217.884182 
L 288.251153 219.847795 
L 290.77549 222.125434 
L 297.507063 228.436257 
L 300.031371 230.372525 
L 301.714271 231.389832 
L 303.397172 232.132265 
L 305.080044 232.556761 
L 306.762944 232.625709 
L 308.445802 232.307941 
L 310.128702 231.579385 
L 311.811603 230.423857 
L 313.494475 228.833566 
L 315.177375 226.809362 
L 316.860247 224.361248 
L 318.543148 221.508111 
L 320.226048 218.277971 
L 322.750399 212.808468 
L 325.274721 206.733721 
L 329.481915 195.810128 
L 334.530588 182.752424 
L 337.054938 176.858076 
L 338.73781 173.345821 
L 340.420711 170.257024 
L 342.103611 167.664402 
L 343.786483 165.635431 
L 344.627905 164.851648 
L 345.469355 164.231051 
L 346.310805 163.780028 
L 347.152227 163.504443 
L 347.993706 163.409566 
L 348.835128 163.499997 
L 349.676578 163.779754 
L 350.518028 164.252168 
L 351.359478 164.919843 
L 352.200928 165.784657 
L 353.042379 166.847812 
L 354.725251 169.569842 
L 356.408151 173.080031 
L 358.091023 177.359643 
L 359.773923 182.377596 
L 361.456824 188.090011 
L 363.139667 194.440588 
L 365.664018 205.012361 
L 368.188369 216.590712 
L 372.395563 237.227946 
L 377.444236 262.041494 
L 379.968558 273.520333 
L 382.492908 283.83549 
L 384.175809 289.872969 
L 385.858681 295.112713 
L 387.541581 299.45599 
L 389.224482 302.813664 
L 390.065903 304.098199 
L 390.907354 305.1083 
L 391.748804 305.836287 
L 392.590254 306.275457 
L 393.431676 306.419994 
L 394.273098 306.265 
L 395.114576 305.80665 
L 395.955998 305.042061 
L 396.797448 303.969467 
L 397.638898 302.588074 
L 398.480349 300.898255 
L 399.321799 298.901385 
L 401.004699 293.997715 
L 402.687599 287.910327 
L 404.370471 280.690326 
L 406.053372 272.405155 
L 407.736216 263.140065 
L 410.260566 247.627908 
L 412.784888 230.539957 
L 416.150689 206.115573 
L 422.882234 156.410693 
L 425.406556 139.220553 
L 427.930907 123.704411 
L 429.613779 114.554331 
L 431.296679 106.530551 
L 432.979551 99.766342 
L 434.662451 94.380183 
L 435.503902 92.236685 
L 436.345352 90.474875 
L 437.186774 89.104732 
L 438.028224 88.13501 
L 438.869646 87.573246 
L 439.711124 87.425681 
L 440.552546 87.697079 
L 441.394025 88.391184 
L 442.235446 89.509768 
L 443.076897 91.053842 
L 443.918318 93.022611 
L 444.759769 95.4139 
L 445.601219 98.224091 
L 447.284119 105.079639 
L 448.96702 113.531621 
L 450.649863 123.499363 
L 452.332764 134.881257 
L 454.015664 147.553608 
L 456.539986 168.663234 
L 459.064308 191.79318 
L 463.271559 233.080877 
L 469.161682 291.047399 
L 471.686005 313.872172 
L 474.210327 334.430673 
L 475.893199 346.543052 
L 477.576099 357.165481 
L 479.259 366.132196 
L 480.9419 373.296656 
L 481.783322 376.162951 
L 482.6248 378.533905 
L 483.466222 380.397082 
L 484.307644 381.742499 
L 485.149123 382.561296 
L 485.990544 382.846471 
L 486.831966 382.592757 
L 487.673445 381.796336 
L 488.514867 380.455811 
L 489.356288 378.570759 
L 490.197767 376.143093 
L 491.039189 373.176357 
L 491.880667 369.675985 
L 491.880667 369.675985 
" style="fill:none;opacity:0.2;stroke:#ff0000;stroke-linecap:square;"/>
   </g>
   <g id="line2d_4">
    <path clip-path="url(#p8fb2d32b80)" d="M 72 216 
L 72.841444 228.556011 
L 73.682889 240.462243 
L 75.365777 260.766071 
L 76.207221 268.809554 
L 77.048665 275.462063 
L 77.89011 280.856368 
L 78.731554 285.167245 
L 79.572998 288.577785 
L 80.414442 291.258897 
L 81.255887 293.359386 
L 82.097331 295.003093 
L 82.938774 296.290016 
L 83.780219 297.299259 
L 84.621662 298.092539 
L 86.304552 299.211049 
L 87.987438 299.909021 
L 89.670328 300.340348 
L 92.194661 300.669984 
L 94.718994 300.737121 
L 97.243325 300.574963 
L 99.767658 300.127948 
L 101.450548 299.594539 
L 103.133437 298.769283 
L 103.974877 298.202947 
L 104.816323 297.50096 
L 105.657767 296.630561 
L 106.499213 295.551114 
L 107.340656 294.212781 
L 108.182103 292.555224 
L 109.023546 290.506808 
L 109.864993 287.984511 
L 110.706432 284.895468 
L 111.547875 281.140596 
L 112.389322 276.621543 
L 113.230765 271.251424 
L 114.072212 264.969139 
L 115.755098 249.655159 
L 117.437988 231.308837 
L 120.80376 192.810196 
L 122.48665 176.658995 
L 124.169536 163.955367 
L 125.010986 158.882127 
L 125.852433 154.57778 
L 126.693872 150.957713 
L 127.535316 147.933058 
L 128.376766 145.417864 
L 129.218209 143.333352 
L 130.059648 141.609821 
L 130.901095 140.187242 
L 131.742538 139.014985 
L 132.583981 138.050885 
L 134.266875 136.614929 
L 135.949754 135.673379 
L 137.632647 135.094237 
L 139.315533 134.79775 
L 140.998426 134.742059 
L 142.681313 134.915072 
L 144.364206 135.331156 
L 146.047092 136.031795 
L 147.729985 137.089702 
L 149.412865 138.615881 
L 150.254315 139.601975 
L 151.095751 140.76874 
L 151.937201 142.144825 
L 152.778644 143.762585 
L 153.620087 145.657973 
L 154.46153 147.869928 
L 155.302973 150.439393 
L 156.144424 153.407627 
L 156.985867 156.813847 
L 158.668753 165.067813 
L 160.351639 175.341773 
L 162.034532 187.502907 
L 164.558862 208.123005 
L 167.083191 229.024098 
L 168.766077 241.664475 
L 170.44897 252.60475 
L 172.131857 261.64709 
L 173.81475 268.856336 
L 175.497636 274.447072 
L 177.180522 278.686407 
L 178.863416 281.831998 
L 180.546295 284.102331 
L 182.229195 285.667907 
L 183.912081 286.652605 
L 185.594967 287.139284 
L 187.277847 287.17558 
L 188.96074 286.778792 
L 190.64364 285.939452 
L 192.326526 284.623951 
L 194.009398 282.776866 
L 195.692299 280.32408 
L 197.375199 277.17832 
L 199.058071 273.24835 
L 200.740957 268.453092 
L 202.423844 262.741424 
L 204.106744 256.114687 
L 205.78963 248.647692 
L 208.313952 236.242536 
L 214.204075 206.463273 
L 215.886962 199.003249 
L 217.569834 192.36444 
L 219.252734 186.622454 
L 220.935634 181.791856 
L 222.618521 177.844149 
L 224.301393 174.725983 
L 225.984279 172.373933 
L 226.825729 171.465279 
L 227.667179 170.724908 
L 228.508629 170.145984 
L 229.35008 169.722268 
L 230.191501 169.448163 
L 231.032952 169.318632 
L 231.874402 169.329289 
L 232.715838 169.476263 
L 233.557288 169.756132 
L 234.398724 170.165869 
L 236.08161 171.364053 
L 237.764511 173.050077 
L 239.447397 175.201943 
L 241.130283 177.792455 
L 242.813169 180.785418 
L 245.337506 185.920382 
L 247.861842 191.628969 
L 255.434823 209.213719 
L 257.959159 214.200671 
L 259.64206 217.066675 
L 261.324932 219.512196 
L 263.007832 221.508555 
L 264.690732 223.04089 
L 266.373604 224.106724 
L 268.056491 224.714466 
L 269.739391 224.881945 
L 271.422291 224.635573 
L 273.105163 224.009742 
L 274.78805 223.046427 
L 276.47095 221.794827 
L 278.995272 219.50076 
L 282.361045 216 
L 285.726831 212.499228 
L 288.251153 210.205175 
L 289.934054 208.953578 
L 291.61694 207.990264 
L 293.29984 207.36444 
L 294.982684 207.118055 
L 296.665584 207.285531 
L 298.348485 207.893277 
L 300.031371 208.959128 
L 301.714271 210.491465 
L 303.397172 212.487827 
L 305.080044 214.933349 
L 306.762944 217.799357 
L 308.445802 221.041794 
L 310.970153 226.477398 
L 315.177375 236.384607 
L 318.543148 244.227665 
L 321.067498 249.58173 
L 322.750399 252.758709 
L 324.433271 255.555648 
L 326.116143 257.930683 
L 327.799015 259.852602 
L 329.481915 261.297292 
L 331.164815 262.243863 
L 332.006237 262.523732 
L 332.847687 262.670711 
L 333.689138 262.681359 
L 334.530588 262.551837 
L 335.372038 262.277699 
L 336.213488 261.853986 
L 337.054938 261.27505 
L 337.896389 260.534682 
L 338.73781 259.626064 
L 339.579261 258.541746 
L 341.262133 255.814747 
L 342.945033 252.289344 
L 344.627905 247.905764 
L 346.310805 242.620803 
L 347.993706 236.425104 
L 349.676578 229.361794 
L 352.200928 217.405513 
L 359.773923 179.521623 
L 361.456824 172.460209 
L 363.139667 166.286841 
L 364.822568 161.036984 
L 366.505468 156.6831 
L 368.188369 153.156384 
L 369.871269 150.368555 
L 371.554141 148.228888 
L 373.237041 146.655774 
L 374.919942 145.583986 
L 376.602785 144.968683 
L 378.285686 144.788018 
L 379.127136 144.86072 
L 379.968558 145.045539 
L 380.810036 145.347414 
L 381.651458 145.773213 
L 382.492908 146.332113 
L 383.334359 147.035581 
L 384.175809 147.897695 
L 385.017259 148.935267 
L 385.858681 150.168016 
L 386.700159 151.618912 
L 387.541581 153.313632 
L 388.383003 155.281125 
L 389.224482 157.553024 
L 390.065903 160.162389 
L 391.748804 166.530438 
L 393.431676 174.636041 
L 395.114576 184.633214 
L 396.797448 196.468331 
L 399.321799 216.78486 
L 402.687599 244.497419 
L 404.370471 256.658372 
L 406.053372 266.932379 
L 407.736216 275.186127 
L 409.419116 281.56061 
L 410.260566 284.13009 
L 411.101988 286.342 
L 411.943466 288.23746 
L 412.784888 289.855177 
L 414.467789 292.398041 
L 416.150689 294.214442 
L 417.833589 295.489871 
L 419.516461 296.35784 
L 421.199333 296.909194 
L 422.882234 297.200308 
L 424.565106 297.258801 
L 426.248006 297.085953 
L 427.930907 296.65548 
L 429.613779 295.907954 
L 431.296679 294.739701 
L 432.138129 293.949089 
L 432.979551 292.985013 
L 433.82103 291.812696 
L 434.662451 290.390156 
L 435.503902 288.666597 
L 436.345352 286.582051 
L 437.186774 284.066936 
L 438.028224 281.042253 
L 438.869646 277.422269 
L 439.711124 273.117743 
L 440.552546 268.044675 
L 441.394025 262.132538 
L 443.076897 247.672387 
L 444.759769 230.024473 
L 448.96702 182.344544 
L 450.649863 167.030966 
L 451.491342 160.748449 
L 452.332764 155.378471 
L 453.174242 150.859265 
L 454.015664 147.1045 
L 454.857143 144.015339 
L 455.698564 141.493135 
L 456.539986 139.444776 
L 457.381465 137.787167 
L 458.222887 136.448871 
L 459.064308 135.369452 
L 459.905787 134.499021 
L 461.588659 133.230714 
L 463.271559 132.405455 
L 464.95446 131.872047 
L 466.63736 131.536865 
L 469.161682 131.290573 
L 471.686005 131.281983 
L 474.210327 131.514537 
L 475.893199 131.848679 
L 477.576099 132.398956 
L 479.259 133.282437 
L 480.10045 133.907482 
L 480.9419 134.700776 
L 481.783322 135.709997 
L 482.6248 136.996987 
L 483.466222 138.640662 
L 484.307644 140.741095 
L 485.149123 143.422335 
L 485.990544 146.832801 
L 486.831966 151.143561 
L 487.673445 156.538098 
L 488.514867 163.190438 
L 489.356288 171.233692 
L 490.197767 180.713664 
L 491.880667 203.444333 
L 491.880667 203.444333 
" style="fill:none;opacity:0.2;stroke:#00bfbf;stroke-linecap:square;"/>
   </g>
   <g id="line2d_5">
    <path clip-path="url(#p8fb2d32b80)" d="M 72 139.777221 
L 72.841444 139.086053 
L 73.682889 138.521398 
L 75.365777 137.713077 
L 77.048665 137.263497 
L 78.731554 137.12234 
L 80.414442 137.270814 
L 82.097331 137.718365 
L 83.780219 138.502588 
L 85.463108 139.691911 
L 87.145995 141.390448 
L 87.987438 142.474404 
L 88.828883 143.743798 
L 89.670328 145.224017 
L 90.511773 146.943292 
L 91.353216 148.932356 
L 92.194661 151.223847 
L 93.036106 153.851299 
L 94.718994 160.243494 
L 96.40188 168.327242 
L 98.084768 178.192149 
L 99.767658 189.70459 
L 102.291991 209.079395 
L 105.657767 235.047541 
L 107.340656 246.487714 
L 109.023546 256.320323 
L 110.706432 264.439197 
L 112.389322 270.933538 
L 114.072212 275.99991 
L 115.755098 279.869631 
L 117.437988 282.762938 
L 119.120877 284.866615 
L 120.80376 286.326921 
L 122.48665 287.250476 
L 124.169536 287.708057 
L 125.852433 287.73886 
L 127.535316 287.353833 
L 129.218209 286.537833 
L 130.901095 285.250809 
L 132.583981 283.428538 
L 134.266875 280.984027 
L 135.949754 277.811125 
L 137.632647 273.792172 
L 139.315533 268.812388 
L 140.998426 262.781787 
L 142.681313 255.66452 
L 144.364206 247.509757 
L 146.888535 233.707759 
L 152.778644 199.884039 
L 154.46153 191.39706 
L 156.144424 183.879662 
L 157.82731 177.413034 
L 159.510196 171.994513 
L 161.193082 167.565383 
L 162.875975 164.037528 
L 164.558862 161.314427 
L 166.241755 159.305053 
L 167.083191 158.54319 
L 167.924641 157.932033 
L 168.766077 157.464694 
L 169.60752 157.135366 
L 170.44897 156.939453 
L 171.290421 156.873464 
L 172.131857 156.934994 
L 172.9733 157.12266 
L 173.81475 157.436039 
L 174.6562 157.87563 
L 176.339072 159.13923 
L 178.021973 160.931606 
L 179.704866 163.278229 
L 181.387745 166.206828 
L 183.070631 169.740916 
L 184.753531 173.891889 
L 186.436418 178.650442 
L 188.119297 183.978749 
L 190.64364 192.872236 
L 194.850849 209.046472 
L 198.216635 221.771428 
L 200.740957 230.396736 
L 202.423844 235.506469 
L 204.106744 240.029864 
L 205.78963 243.937307 
L 207.472516 247.22304 
L 209.155403 249.898154 
L 210.838289 251.984137 
L 212.521189 253.507617 
L 214.204075 254.496385 
L 215.045511 254.79868 
L 215.886962 254.977152 
L 216.728412 255.034758 
L 217.569834 254.974313 
L 219.252734 254.509919 
L 220.935634 253.604402 
L 222.618521 252.278004 
L 224.301393 250.552531 
L 225.984279 248.453249 
L 227.667179 246.01087 
L 230.191501 241.788492 
L 232.715838 237.040961 
L 236.92306 228.511851 
L 241.130283 220.123336 
L 243.654619 215.573813 
L 246.178956 211.59732 
L 247.861842 209.324328 
L 249.544714 207.381263 
L 251.227614 205.781192 
L 252.910515 204.529001 
L 254.593387 203.622219 
L 256.276273 203.051918 
L 257.959159 202.803508 
L 259.64206 202.857387 
L 261.324932 203.189319 
L 263.007832 203.770793 
L 264.690732 204.569378 
L 267.21504 206.094736 
L 270.580841 208.528611 
L 276.47095 212.923069 
L 278.995272 214.492815 
L 280.678144 215.342495 
L 282.361045 216 
L 284.043945 216.441334 
L 285.726831 216.648145 
L 287.409732 216.608018 
L 289.092589 216.31474 
L 290.77549 215.768441 
L 292.45839 214.975743 
L 294.141262 213.949806 
L 295.824163 212.710222 
L 298.348485 210.508537 
L 300.872835 207.997175 
L 309.287281 199.233585 
L 311.811603 197.085801 
L 313.494475 195.914553 
L 315.177375 194.996352 
L 316.860247 194.365514 
L 318.543148 194.052928 
L 320.226048 194.086128 
L 321.90892 194.489293 
L 323.59182 195.283287 
L 325.274721 196.485056 
L 326.957593 198.106857 
L 328.640493 200.155143 
L 330.323365 202.62861 
L 332.006237 205.516534 
L 333.689138 208.79663 
L 336.213488 214.370196 
L 338.73781 220.562178 
L 347.993706 244.1911 
L 350.518028 249.633262 
L 352.200928 252.802559 
L 353.883829 255.560792 
L 355.566701 257.883213 
L 357.249573 259.75358 
L 358.932473 261.160792 
L 360.615345 262.095453 
L 361.456824 262.38237 
L 362.298246 262.546889 
L 363.139667 262.58705 
L 363.981146 262.500485 
L 364.822568 262.284479 
L 365.664018 261.935795 
L 366.505468 261.450769 
L 367.346918 260.825304 
L 369.02979 259.134529 
L 370.712691 256.823088 
L 372.395563 253.848021 
L 374.078463 250.168661 
L 375.761364 245.754752 
L 377.444236 240.596342 
L 379.127136 234.714836 
L 380.810036 228.174283 
L 383.334359 217.389432 
L 390.065903 187.507346 
L 391.748804 180.908095 
L 393.431676 174.968197 
L 395.114576 169.755277 
L 396.797448 165.289067 
L 398.480349 161.552159 
L 400.163221 158.503894 
L 401.846121 156.092431 
L 403.529021 154.265347 
L 405.211893 152.976995 
L 406.894794 152.193799 
L 407.736216 151.98538 
L 408.577694 151.897955 
L 409.419116 151.932181 
L 410.260566 152.090019 
L 411.101988 152.37476 
L 411.943466 152.791163 
L 412.784888 153.345335 
L 413.626339 154.045032 
L 414.467789 154.89946 
L 415.309239 155.919425 
L 416.992139 158.506636 
L 418.675011 161.921478 
L 420.357912 166.294893 
L 422.040784 171.759203 
L 423.723684 178.424179 
L 425.406556 186.340581 
L 427.089428 195.458877 
L 429.613779 210.941411 
L 434.662451 243.352499 
L 436.345352 252.885647 
L 438.028224 261.235546 
L 439.711124 268.295931 
L 441.394025 274.090808 
L 443.076897 278.730413 
L 444.759769 282.366694 
L 446.442669 285.158997 
L 448.125541 287.25274 
L 449.808441 288.769048 
L 451.491342 289.800732 
L 453.174242 290.412151 
L 454.857143 290.640042 
L 456.539986 290.493988 
L 458.222887 289.955465 
L 459.905787 288.975169 
L 460.747209 288.294419 
L 461.588659 287.468241 
L 462.430081 286.479471 
L 463.271559 285.307679 
L 464.112981 283.929482 
L 464.95446 282.317775 
L 465.795882 280.442589 
L 466.63736 278.270409 
L 467.478782 275.76584 
L 468.320204 272.891599 
L 470.003104 265.887983 
L 471.686005 257.009209 
L 473.368905 246.148644 
L 475.051749 233.46681 
L 477.576099 212.241242 
L 480.10045 191.045849 
L 481.783322 178.440604 
L 483.466222 167.729919 
L 485.149123 159.079066 
L 486.831966 152.363332 
L 488.514867 147.299103 
L 489.356288 145.283439 
L 490.197767 143.558335 
L 491.880667 140.836616 
L 491.880667 140.836616 
" style="fill:none;opacity:0.2;stroke:#bf00bf;stroke-linecap:square;"/>
   </g>
   <g id="line2d_6">
    <path clip-path="url(#p8fb2d32b80)" d="M 72 297.155332 
L 72.841444 296.44104 
L 73.682889 295.5703 
L 74.524333 294.509869 
L 75.365777 293.219675 
L 76.207221 291.652039 
L 77.048665 289.751163 
L 77.89011 287.453125 
L 78.731554 284.686798 
L 79.572998 281.37615 
L 80.414442 277.444294 
L 81.255887 272.819905 
L 82.097331 267.446106 
L 83.780219 254.360259 
L 85.463108 238.431733 
L 90.511773 186.418733 
L 92.194661 172.658299 
L 93.877549 161.865729 
L 94.718994 157.523484 
L 95.560439 153.808138 
L 96.40188 150.6514 
L 97.243325 147.983689 
L 98.084768 145.738585 
L 98.926216 143.855177 
L 99.767658 142.279369 
L 100.609104 140.964164 
L 101.450548 139.869454 
L 103.133437 138.212132 
L 104.816323 137.101169 
L 106.499213 136.399509 
L 108.182103 136.02141 
L 109.864993 135.919783 
L 111.547875 136.07853 
L 113.230765 136.509138 
L 114.913655 137.250874 
L 116.596541 138.37411 
L 118.279431 139.986225 
L 119.120877 141.021107 
L 119.962321 142.238977 
L 120.80376 143.666792 
L 121.64521 145.334825 
L 122.48665 147.276314 
L 123.3281 149.527027 
L 124.169536 152.12408 
L 125.010986 155.104631 
L 126.693872 162.350565 
L 128.376766 171.463581 
L 130.059648 182.450619 
L 131.742538 195.027591 
L 137.632647 241.404579 
L 139.315533 252.25714 
L 140.998426 261.309771 
L 142.681313 268.592847 
L 144.364206 274.290562 
L 146.047092 278.649109 
L 147.729985 281.914968 
L 149.412865 284.302559 
L 151.095751 285.982791 
L 152.778644 287.082484 
L 154.46153 287.688635 
L 156.144424 287.853566 
L 157.82731 287.59931 
L 159.510196 286.920746 
L 161.193082 285.787507 
L 162.875975 284.145294 
L 164.558862 281.917463 
L 166.241755 279.008243 
L 167.924641 275.309502 
L 169.60752 270.712865 
L 171.290421 265.128737 
L 172.9733 258.512244 
L 174.6562 250.891142 
L 177.180522 237.875676 
L 184.753531 196.715818 
L 186.436418 189.143351 
L 188.119297 182.54999 
L 189.80219 176.962753 
L 191.485076 172.348892 
L 193.167962 168.640108 
L 194.850849 165.753369 
L 196.533749 163.605605 
L 197.375199 162.785245 
L 198.216635 162.122961 
L 199.058071 161.611691 
L 199.899507 161.245392 
L 200.740957 161.018986 
L 201.582408 160.928387 
L 202.423844 160.970416 
L 203.265294 161.142742 
L 204.106744 161.443837 
L 204.948194 161.872876 
L 206.631066 163.114374 
L 208.313952 164.870712 
L 209.996853 167.149083 
L 211.679739 169.955411 
L 213.362625 173.288785 
L 215.045511 177.135397 
L 216.728412 181.463055 
L 219.252734 188.729781 
L 222.618521 199.392336 
L 227.667179 215.529543 
L 230.191501 222.778565 
L 231.874402 227.091129 
L 233.557288 230.918746 
L 235.240174 234.227232 
L 236.92306 237.001063 
L 238.605947 239.239446 
L 240.288847 240.952441 
L 241.971733 242.157461 
L 243.654619 242.87691 
L 245.337506 243.136422 
L 247.020392 242.964186 
L 248.703278 242.390826 
L 250.386164 241.449762 
L 252.069065 240.177892 
L 253.751951 238.616189 
L 256.276273 235.830986 
L 258.800609 232.669408 
L 266.373604 222.859127 
L 268.897941 220.111091 
L 270.580841 218.562459 
L 272.263713 217.280276 
L 273.946599 216.289446 
L 275.6295 215.606573 
L 277.3124 215.239978 
L 278.995272 215.18983 
L 280.678144 215.448334 
L 282.361045 216 
L 284.043945 216.821873 
L 285.726831 217.883883 
L 288.251153 219.845253 
L 291.61694 222.911508 
L 296.665584 227.635972 
L 299.189935 229.659971 
L 300.872835 230.766321 
L 302.555693 231.624475 
L 304.238594 232.193044 
L 305.92148 232.435138 
L 307.60438 232.318533 
L 309.287281 231.815894 
L 310.970153 230.90513 
L 312.653053 229.569937 
L 314.335925 227.801068 
L 316.018797 225.597575 
L 317.701697 222.968589 
L 319.384598 219.935348 
L 321.067498 216.532659 
L 323.59182 210.848019 
L 326.957593 202.553128 
L 332.006237 189.99092 
L 334.530588 184.301802 
L 336.213488 180.897725 
L 337.896389 177.866703 
L 339.579261 175.247174 
L 341.262133 173.066359 
L 342.945033 171.343474 
L 344.627905 170.093193 
L 346.310805 169.329177 
L 347.152227 169.13434 
L 347.993706 169.067418 
L 348.835128 169.131202 
L 349.676578 169.328982 
L 350.518028 169.66454 
L 351.359478 170.142156 
L 352.200928 170.766642 
L 353.042379 171.543363 
L 354.725251 173.577014 
L 356.408151 176.293637 
L 358.091023 179.745143 
L 359.773923 183.977943 
L 361.456824 189.021933 
L 363.139667 194.877185 
L 364.822568 201.50042 
L 367.346918 212.640164 
L 375.761364 251.678758 
L 377.444236 258.127374 
L 379.127136 263.781188 
L 380.810036 268.614065 
L 382.492908 272.647559 
L 384.175809 275.933813 
L 385.858681 278.539438 
L 387.541581 280.53289 
L 389.224482 281.974831 
L 390.907354 282.912276 
L 392.590254 283.374544 
L 393.431676 283.431116 
L 394.273098 283.370445 
L 395.114576 283.190033 
L 395.955998 282.885749 
L 396.797448 282.451806 
L 397.638898 281.880591 
L 398.480349 281.162645 
L 399.321799 280.286506 
L 400.163221 279.23879 
L 401.004699 278.003655 
L 401.846121 276.563878 
L 403.529021 272.98962 
L 405.211893 268.341574 
L 406.894794 262.435971 
L 408.577694 255.112614 
L 410.260566 246.286995 
L 411.943466 236.013607 
L 414.467789 218.49901 
L 418.675011 188.262123 
L 420.357912 177.592355 
L 422.040784 168.371535 
L 423.723684 160.724659 
L 425.406556 154.593204 
L 427.089428 149.805433 
L 428.772328 146.14463 
L 430.455229 143.395298 
L 432.138129 141.368967 
L 433.82103 139.914066 
L 435.503902 138.916795 
L 437.186774 138.298038 
L 438.869646 138.009829 
L 440.552546 138.032793 
L 442.235446 138.375812 
L 443.918318 139.078462 
L 445.601219 140.216747 
L 446.442669 140.985206 
L 447.284119 141.912501 
L 448.125541 143.023038 
L 448.96702 144.346157 
L 449.808441 145.915515 
L 450.649863 147.770729 
L 451.491342 149.956257 
L 452.332764 152.521519 
L 453.174242 155.519685 
L 454.015664 159.005759 
L 454.857143 163.033389 
L 455.698564 167.650416 
L 457.381465 178.778167 
L 459.064308 192.407285 
L 460.747209 208.04721 
L 464.95446 248.2999 
L 466.63736 261.569128 
L 468.320204 272.202469 
L 469.161682 276.537391 
L 470.003104 280.269644 
L 470.844583 283.454886 
L 471.686005 286.154078 
L 472.527426 288.428535 
L 473.368905 290.337202 
L 474.210327 291.93328 
L 475.051749 293.264892 
L 475.893199 294.373551 
L 477.576099 296.059042 
L 479.259 297.211893 
L 480.9419 297.984488 
L 482.6248 298.477172 
L 484.307644 298.752047 
L 485.990544 298.842194 
L 487.673445 298.756495 
L 489.356288 298.480442 
L 491.039189 297.972491 
L 491.880667 297.609168 
L 491.880667 297.609168 
" style="fill:none;opacity:0.2;stroke:#bfbf00;stroke-linecap:square;"/>
   </g>
   <g id="line2d_7">
    <path clip-path="url(#p8fb2d32b80)" d="M 72 201.697206 
L 72.841444 203.70581 
L 73.682889 204.938233 
L 74.524333 205.206619 
L 75.365777 204.462547 
L 76.207221 202.783344 
L 77.048665 200.33734 
L 78.731554 194.043984 
L 80.414442 187.440125 
L 81.255887 184.542642 
L 82.097331 182.133099 
L 82.938774 180.326196 
L 83.780219 179.189471 
L 84.621662 178.737762 
L 85.463108 178.930806 
L 86.304552 179.676484 
L 87.145995 180.840996 
L 90.511773 186.574185 
L 91.353216 187.654451 
L 92.194661 188.476408 
L 93.036106 189.053215 
L 93.877549 189.428484 
L 95.560439 189.834194 
L 97.243325 190.2361 
L 98.084768 190.570333 
L 99.767658 191.613322 
L 102.291991 193.808197 
L 103.974877 195.116373 
L 104.816323 195.557559 
L 105.657767 195.805693 
L 106.499213 195.846307 
L 107.340656 195.687818 
L 109.023546 194.923649 
L 110.706432 194.013742 
L 111.547875 193.722561 
L 112.389322 193.662378 
L 113.230765 193.9099 
L 114.072212 194.515097 
L 114.913655 195.488478 
L 115.755098 196.791121 
L 119.120877 202.835217 
L 119.962321 203.726263 
L 120.80376 204.085504 
L 121.64521 203.854968 
L 122.48665 203.038783 
L 123.3281 201.69661 
L 124.169536 199.930653 
L 125.852433 195.654883 
L 127.535316 191.308649 
L 128.376766 189.413899 
L 129.218209 187.824937 
L 130.059648 186.597475 
L 130.901095 185.757458 
L 131.742538 185.301696 
L 132.583981 185.200657 
L 133.425424 185.403563 
L 134.266875 185.845198 
L 135.949754 187.15858 
L 138.474097 189.292632 
L 140.156976 190.430286 
L 141.83987 191.317434 
L 150.254315 195.076632 
L 151.937201 195.534866 
L 154.46153 195.876034 
L 156.144424 196.10102 
L 157.82731 196.614747 
L 158.668753 197.0541 
L 159.510196 197.638736 
L 161.193082 199.229855 
L 164.558862 203.070086 
L 165.400305 203.812958 
L 166.241755 204.340928 
L 167.083191 204.609003 
L 167.924641 204.591736 
L 168.766077 204.285218 
L 169.60752 203.706474 
L 170.44897 202.890678 
L 172.131857 200.752586 
L 175.497636 196.089677 
L 177.180522 194.335316 
L 178.021973 193.695131 
L 178.863416 193.219058 
L 179.704866 192.900086 
L 180.546295 192.724312 
L 182.229195 192.725614 
L 183.912081 193.057186 
L 186.436418 193.859888 
L 195.692299 197.274012 
L 199.058071 198.656971 
L 201.582408 199.951125 
L 204.106744 201.607255 
L 207.472516 204.258623 
L 209.996853 206.12038 
L 211.679739 207.024982 
L 213.362625 207.524167 
L 215.045511 207.574533 
L 216.728412 207.208841 
L 218.411284 206.522174 
L 221.77707 204.707611 
L 224.301393 203.431877 
L 225.984279 202.770237 
L 227.667179 202.297737 
L 229.35008 202.01825 
L 231.032952 201.92093 
L 232.715838 201.988873 
L 235.240174 202.364339 
L 237.764511 203.029856 
L 240.288847 203.956115 
L 242.813169 205.115386 
L 246.178956 206.940088 
L 252.069065 210.263789 
L 254.593387 211.422751 
L 257.117723 212.289796 
L 259.64206 212.849688 
L 262.166382 213.149203 
L 265.532154 213.300282 
L 270.580841 213.486317 
L 273.946599 213.858444 
L 276.47095 214.333861 
L 279.836722 215.213989 
L 290.77549 218.402923 
L 293.29984 218.818082 
L 296.665584 219.098591 
L 300.872835 219.151677 
L 305.080044 219.2236 
L 307.60438 219.47859 
L 310.128702 220.019038 
L 311.811603 220.573019 
L 314.335925 221.705146 
L 316.860247 223.145106 
L 324.433271 227.792345 
L 326.957593 228.901406 
L 328.640493 229.435763 
L 330.323365 229.804442 
L 332.847687 230.068109 
L 335.372038 230.026562 
L 337.896389 229.722656 
L 340.420711 229.18134 
L 342.945033 228.410436 
L 345.469355 227.425114 
L 350.518028 225.267959 
L 352.200928 224.807036 
L 353.883829 224.688418 
L 354.725251 224.796569 
L 355.566701 225.031668 
L 356.408151 225.399654 
L 358.091023 226.529923 
L 359.773923 228.11842 
L 362.298246 231.000907 
L 364.822568 233.834876 
L 366.505468 235.372408 
L 368.188369 236.496618 
L 369.871269 237.190212 
L 371.554141 237.507269 
L 373.237041 237.541679 
L 375.761364 237.272863 
L 379.127136 236.64575 
L 387.541581 234.946339 
L 390.065903 234.426627 
L 391.748804 233.86373 
L 393.431676 232.978703 
L 395.114576 231.71433 
L 399.321799 228.058397 
L 400.163221 227.649505 
L 401.004699 227.490263 
L 401.846121 227.626442 
L 402.687599 228.084568 
L 403.529021 228.868484 
L 404.370471 229.958027 
L 406.053372 232.865573 
L 409.419116 239.55689 
L 410.260566 240.963501 
L 411.101988 242.141377 
L 411.943466 243.057044 
L 412.784888 243.694993 
L 413.626339 244.059731 
L 414.467789 244.172571 
L 415.309239 244.069245 
L 416.150689 243.795437 
L 417.833589 242.9377 
L 420.357912 241.522712 
L 422.040784 240.76656 
L 427.930907 238.478229 
L 431.296679 236.968653 
L 432.979551 236.567596 
L 434.662451 236.590252 
L 436.345352 236.97584 
L 438.028224 237.432622 
L 438.869646 237.541761 
L 439.711124 237.481396 
L 440.552546 237.188848 
L 441.394025 236.616935 
L 442.235446 235.745427 
L 443.076897 234.591503 
L 446.442669 229.052926 
L 447.284119 228.197495 
L 448.125541 227.863561 
L 448.96702 228.142431 
L 449.808441 229.062842 
L 450.649863 230.589595 
L 451.491342 232.63269 
L 453.174242 237.718662 
L 454.857143 243.068504 
L 455.698564 245.45227 
L 456.539986 247.468678 
L 457.381465 249.022372 
L 458.222887 250.054331 
L 459.064308 250.544915 
L 459.905787 250.517651 
L 460.747209 250.035143 
L 461.588659 249.195062 
L 463.271559 246.930213 
L 464.95446 244.69115 
L 465.795882 243.807455 
L 466.63736 243.135765 
L 467.478782 242.673996 
L 468.320204 242.389072 
L 472.527426 241.490078 
L 473.368905 241.017482 
L 474.210327 240.385541 
L 475.893199 238.74538 
L 477.576099 236.98509 
L 478.417549 236.249279 
L 479.259 235.710668 
L 480.10045 235.428206 
L 480.9419 235.437526 
L 481.783322 235.745269 
L 482.6248 236.326205 
L 484.307644 238.046307 
L 485.990544 239.794531 
L 486.831966 240.335274 
L 487.673445 240.458459 
L 488.514867 240.039531 
L 489.356288 239.001896 
L 490.197767 237.347149 
L 491.880667 232.728068 
L 491.880667 232.728068 
" style="fill:none;stroke:#000000;stroke-linecap:square;"/>
   </g>
   <g id="line2d_8">
    <path clip-path="url(#p8fb2d32b80)" d="M 72 312.044956 
L 74.524333 322.815862 
L 75.365777 325.885587 
L 76.207221 328.331039 
L 77.048665 330.032482 
L 77.89011 330.936965 
L 78.731554 331.045826 
L 79.572998 330.401156 
L 80.414442 329.074847 
L 81.255887 327.161131 
L 82.097331 324.771755 
L 83.780219 319.076571 
L 86.304552 310.243679 
L 87.987438 305.423848 
L 88.828883 303.488531 
L 89.670328 301.855828 
L 91.353216 299.300063 
L 93.877549 296.315072 
L 98.926216 290.712013 
L 99.767658 290.026904 
L 100.609104 289.509672 
L 101.450548 289.185685 
L 102.291991 289.066747 
L 103.133437 289.149168 
L 103.974877 289.413746 
L 105.657767 290.348512 
L 109.023546 292.586628 
L 110.706432 293.380397 
L 113.230765 294.43485 
L 114.072212 294.993385 
L 114.913655 295.791279 
L 115.755098 296.903183 
L 116.596541 298.378845 
L 117.437988 300.228963 
L 119.120877 304.853455 
L 121.64521 312.29975 
L 122.48665 314.328119 
L 123.3281 315.920346 
L 124.169536 316.998507 
L 125.010986 317.521765 
L 125.852433 317.483959 
L 126.693872 316.909313 
L 127.535316 315.846904 
L 128.376766 314.365077 
L 130.059648 310.47907 
L 134.266875 299.42704 
L 135.949754 295.782063 
L 137.632647 292.807641 
L 139.315533 290.37347 
L 140.998426 288.302445 
L 143.522756 285.647625 
L 145.205642 284.183703 
L 146.888535 283.045701 
L 148.571421 282.293021 
L 150.254315 281.919957 
L 151.937201 281.844019 
L 154.46153 282.011227 
L 157.82731 282.412823 
L 159.510196 282.879628 
L 160.351639 283.274899 
L 161.193082 283.818634 
L 162.034532 284.533698 
L 162.875975 285.431163 
L 164.558862 287.738317 
L 168.766077 294.445532 
L 169.60752 295.446009 
L 170.44897 296.198164 
L 171.290421 296.667356 
L 172.131857 296.834686 
L 172.9733 296.696911 
L 173.81475 296.2651 
L 174.6562 295.562473 
L 175.497636 294.621799 
L 177.180522 292.186616 
L 179.704866 287.784654 
L 183.070631 281.939806 
L 185.594967 278.167952 
L 187.277847 275.988059 
L 189.80219 273.163496 
L 192.326526 270.806761 
L 194.850849 268.861151 
L 197.375199 267.262411 
L 199.899507 265.951433 
L 202.423844 264.942492 
L 204.106744 264.499154 
L 205.78963 264.304524 
L 207.472516 264.402257 
L 209.155403 264.794502 
L 210.838289 265.422723 
L 215.045511 267.152879 
L 216.728412 267.490909 
L 218.411284 267.438687 
L 220.094184 266.945835 
L 221.77707 266.021045 
L 223.459971 264.71882 
L 225.142843 263.120061 
L 227.667179 260.357286 
L 238.605947 247.767626 
L 241.971733 244.406685 
L 244.49607 242.157781 
L 247.020392 240.187289 
L 249.544714 238.516278 
L 252.069065 237.123733 
L 255.434823 235.565759 
L 260.48351 233.282794 
L 263.007832 231.916546 
L 265.532154 230.312514 
L 268.056491 228.463643 
L 271.422291 225.677669 
L 277.3124 220.367743 
L 281.519594 216.692711 
L 284.885381 214.026089 
L 288.251153 211.624255 
L 298.348485 204.712886 
L 300.872835 202.653664 
L 303.397172 200.350851 
L 306.762944 196.906307 
L 316.018797 186.955691 
L 317.701697 185.505724 
L 319.384598 184.273363 
L 321.067498 183.271461 
L 322.750399 182.492379 
L 324.433271 181.909969 
L 326.957593 181.315893 
L 331.164815 180.675965 
L 334.530588 180.098527 
L 337.054938 179.46062 
L 339.579261 178.555221 
L 341.262133 177.761809 
L 342.945033 176.781723 
L 344.627905 175.57766 
L 346.310805 174.106508 
L 347.993706 172.32565 
L 349.676578 170.206304 
L 351.359478 167.752983 
L 353.883829 163.593443 
L 357.249573 157.972257 
L 358.932473 155.612519 
L 360.615345 153.823143 
L 361.456824 153.18285 
L 362.298246 152.721448 
L 363.139667 152.437476 
L 363.981146 152.323076 
L 364.822568 152.364607 
L 365.664018 152.543767 
L 367.346918 153.226005 
L 369.871269 154.702271 
L 373.237041 156.68867 
L 374.919942 157.482877 
L 376.602785 158.100287 
L 378.285686 158.53182 
L 379.968558 158.767182 
L 381.651458 158.790758 
L 383.334359 158.587975 
L 385.017259 158.156504 
L 386.700159 157.511637 
L 388.383003 156.677887 
L 390.065903 155.664645 
L 391.748804 154.433411 
L 393.431676 152.873173 
L 395.114576 150.807703 
L 396.797448 148.055273 
L 398.480349 144.538649 
L 401.004699 138.223409 
L 402.687599 134.002442 
L 404.370471 130.497883 
L 405.211893 129.190477 
L 406.053372 128.24528 
L 406.894794 127.688121 
L 407.736216 127.523966 
L 408.577694 127.738607 
L 409.419116 128.299886 
L 410.260566 129.161535 
L 411.943466 131.550509 
L 416.150689 138.518691 
L 417.833589 140.766197 
L 419.516461 142.546185 
L 421.199333 143.95593 
L 422.882234 145.119072 
L 424.565106 146.096353 
L 426.248006 146.849738 
L 427.930907 147.266724 
L 428.772328 147.309566 
L 429.613779 147.226984 
L 430.455229 147.015262 
L 432.138129 146.228303 
L 433.82103 145.069836 
L 439.711124 140.419715 
L 440.552546 139.639784 
L 441.394025 138.703834 
L 442.235446 137.53877 
L 443.076897 136.073773 
L 443.918318 134.253896 
L 444.759769 132.054126 
L 446.442669 126.635937 
L 448.96702 117.606017 
L 449.808441 114.980401 
L 450.649863 112.798143 
L 451.491342 111.165364 
L 452.332764 110.148001 
L 453.174242 109.770699 
L 454.015664 110.021625 
L 454.857143 110.857106 
L 455.698564 112.207838 
L 456.539986 113.984055 
L 458.222887 118.386226 
L 460.747209 125.417093 
L 462.430081 129.303563 
L 463.271559 130.863363 
L 464.112981 132.171234 
L 465.795882 134.183398 
L 468.320204 136.482511 
L 473.368905 140.912521 
L 474.210327 141.396232 
L 475.051749 141.690901 
L 475.893199 141.761725 
L 476.734649 141.588967 
L 477.576099 141.171784 
L 478.417549 140.529544 
L 480.10045 138.738367 
L 482.6248 135.681857 
L 484.307644 134.037248 
L 485.990544 132.871795 
L 487.673445 131.811047 
L 488.514867 131.057033 
L 489.356288 129.962291 
L 490.197767 128.379869 
L 491.039189 126.196749 
L 491.880667 123.36948 
L 491.880667 123.36948 
" style="fill:none;stroke:#0000ff;stroke-linecap:square;"/>
   </g>
   <g id="line2d_9">
    <path clip-path="url(#p8fb2d32b80)" d="M 72 312.052863 
L 74.524333 322.877963 
L 75.365777 325.929223 
L 76.207221 328.343242 
L 77.048665 330.009319 
L 77.89011 330.882536 
L 78.731554 330.969208 
L 79.572998 330.313077 
L 80.414442 328.985118 
L 81.255887 327.076958 
L 82.097331 324.697072 
L 83.780219 319.021494 
L 86.304552 310.208488 
L 87.987438 305.407095 
L 88.828883 303.483506 
L 89.670328 301.86212 
L 91.353216 299.320034 
L 93.877549 296.326344 
L 98.926216 290.671896 
L 99.767658 289.974303 
L 100.609104 289.442845 
L 101.450548 289.103341 
L 102.291991 288.96839 
L 103.133437 289.035281 
L 103.974877 289.285852 
L 105.657767 290.200747 
L 109.023546 292.440557 
L 110.706432 293.248222 
L 113.230765 294.314574 
L 114.072212 294.872894 
L 114.913655 295.670728 
L 115.755098 296.785751 
L 116.596541 298.270934 
L 117.437988 300.138916 
L 119.120877 304.819014 
L 121.64521 312.330655 
L 122.48665 314.36201 
L 123.3281 315.948522 
L 124.169536 317.015178 
L 125.010986 317.52425 
L 125.852433 317.471907 
L 126.693872 316.883537 
L 127.535316 315.808436 
L 128.376766 314.314487 
L 130.059648 310.403935 
L 134.266875 299.308298 
L 135.949754 295.67011 
L 137.632647 292.714158 
L 139.315533 290.301622 
L 140.998426 288.249076 
L 143.522756 285.610307 
L 145.205642 284.148164 
L 146.888535 283.005723 
L 148.571421 282.245746 
L 150.254315 281.86766 
L 151.937201 281.793595 
L 154.46153 281.978732 
L 157.82731 282.411385 
L 159.510196 282.887138 
L 160.351639 283.285967 
L 161.193082 283.834111 
L 162.034532 284.555717 
L 162.875975 285.462883 
L 164.558862 287.799917 
L 168.766077 294.579266 
L 169.60752 295.58023 
L 170.44897 296.326689 
L 171.290421 296.784618 
L 172.131857 296.936018 
L 172.9733 296.77868 
L 173.81475 296.324748 
L 174.6562 295.598502 
L 175.497636 294.63371 
L 177.180522 292.152887 
L 179.704866 287.703512 
L 182.229195 283.2419 
L 184.753531 279.296174 
L 186.436418 277.012781 
L 188.96074 274.050706 
L 191.485076 271.557482 
L 194.009398 269.474124 
L 196.533749 267.757198 
L 199.058071 266.355493 
L 201.582408 265.25044 
L 203.265294 264.714553 
L 204.948194 264.397096 
L 206.631066 264.353626 
L 208.313952 264.614049 
L 209.996853 265.154293 
L 215.886962 267.508435 
L 217.569834 267.664779 
L 218.411284 267.582319 
L 219.252734 267.385884 
L 220.935634 266.653824 
L 222.618521 265.506197 
L 224.301393 264.0183 
L 226.825729 261.350327 
L 231.874402 255.433331 
L 236.08161 250.63464 
L 239.447397 247.065359 
L 242.813169 243.818704 
L 245.337506 241.66023 
L 247.861842 239.783646 
L 250.386164 238.198154 
L 252.910515 236.867035 
L 257.959159 234.584062 
L 261.324932 232.942196 
L 263.849282 231.480108 
L 266.373604 229.776312 
L 268.897941 227.839587 
L 272.263713 224.971441 
L 283.202481 215.31529 
L 286.568281 212.756835 
L 290.77549 209.868095 
L 296.665584 205.867622 
L 300.031371 203.267545 
L 302.555693 201.055321 
L 305.080044 198.592791 
L 308.445802 194.978702 
L 314.335925 188.514409 
L 316.860247 186.134917 
L 318.543148 184.797632 
L 320.226048 183.686839 
L 321.90892 182.802313 
L 323.59182 182.124055 
L 326.116143 181.414351 
L 329.481915 180.810243 
L 334.530588 179.972892 
L 337.054938 179.343927 
L 339.579261 178.450826 
L 341.262133 177.664435 
L 342.945033 176.689858 
L 344.627905 175.489371 
L 346.310805 174.018555 
L 347.993706 172.232771 
L 349.676578 170.101751 
L 351.359478 167.630749 
L 353.883829 163.442162 
L 357.249573 157.80909 
L 358.932473 155.465598 
L 360.615345 153.708477 
L 361.456824 153.089338 
L 362.298246 152.651503 
L 363.139667 152.392569 
L 363.981146 152.303611 
L 364.822568 152.369833 
L 366.505468 152.886547 
L 368.188369 153.755645 
L 373.237041 156.737063 
L 374.919942 157.506398 
L 376.602785 158.105257 
L 378.285686 158.529795 
L 379.968558 158.770133 
L 381.651458 158.806434 
L 383.334359 158.617466 
L 385.017259 158.194504 
L 386.700159 157.549703 
L 388.383003 156.709032 
L 390.065903 155.686949 
L 391.748804 154.450636 
L 393.431676 152.891368 
L 395.114576 150.828789 
L 396.797448 148.0721 
L 398.480349 144.536698 
L 401.004699 138.175722 
L 402.687599 133.935131 
L 404.370471 130.434604 
L 405.211893 129.138214 
L 406.053372 128.208884 
L 406.894794 127.670942 
L 407.736216 127.528116 
L 408.577694 127.764926 
L 409.419116 128.348393 
L 410.260566 129.231282 
L 411.943466 131.656558 
L 416.150689 138.643817 
L 417.833589 140.869341 
L 419.516461 142.623017 
L 421.199333 144.012315 
L 423.723684 145.677187 
L 425.406556 146.559365 
L 427.089428 147.174621 
L 427.930907 147.341281 
L 428.772328 147.39299 
L 429.613779 147.318992 
L 430.455229 147.114997 
L 432.138129 146.338745 
L 433.82103 145.182714 
L 439.711124 140.50535 
L 440.552546 139.723733 
L 441.394025 138.786308 
L 442.235446 137.618277 
L 443.076897 136.146334 
L 443.918318 134.31315 
L 444.759769 132.092472 
L 446.442669 126.616347 
L 448.96702 117.534519 
L 449.808441 114.916669 
L 450.649863 112.753118 
L 451.491342 111.145492 
L 452.332764 110.154622 
L 453.174242 109.801342 
L 454.015664 110.071359 
L 454.857143 110.920599 
L 455.698564 112.280229 
L 456.539986 114.06195 
L 458.222887 118.469174 
L 460.747209 125.492909 
L 462.430081 129.358462 
L 463.271559 130.904573 
L 464.112981 132.199218 
L 465.795882 134.194488 
L 468.320204 136.498264 
L 473.368905 140.955889 
L 474.210327 141.445068 
L 475.051749 141.746539 
L 475.893199 141.825306 
L 476.734649 141.661129 
L 477.576099 141.252469 
L 478.417549 140.6179 
L 480.10045 138.837013 
L 482.6248 135.779465 
L 484.307644 134.126036 
L 485.990544 132.953263 
L 487.673445 131.897061 
L 488.514867 131.150983 
L 489.356288 130.06534 
L 490.197767 128.488242 
L 491.039189 126.300713 
L 491.880667 123.455518 
L 491.880667 123.455518 
" style="fill:none;stroke:#008000;stroke-linecap:square;"/>
   </g>
   <g id="patch_3">
    <path d="M 72 43.2 
L 518.4 43.2 
" style="fill:none;stroke:#000000;stroke-linecap:square;stroke-linejoin:miter;"/>
   </g>
   <g id="patch_4">
    <path d="M 518.4 388.8 
L 518.4 43.2 
" style="fill:none;stroke:#000000;stroke-linecap:square;stroke-linejoin:miter;"/>
   </g>
   <g id="patch_5">
    <path d="M 72 388.8 
L 518.4 388.8 
" style="fill:none;stroke:#000000;stroke-linecap:square;stroke-linejoin:miter;"/>
   </g>
   <g id="patch_6">
    <path d="M 72 388.8 
L 72 43.2 
" style="fill:none;stroke:#000000;stroke-linecap:square;stroke-linejoin:miter;"/>
   </g>
   <g id="matplotlib.axis_1">
    <g id="xtick_1">
     <g id="line2d_10">
      <defs>
       <path d="M 0 0 
L 0 -4 
" id="m1c128084d6" style="stroke:#000000;stroke-width:0.5;"/>
      </defs>
      <g>
       <use style="stroke:#000000;stroke-width:0.5;" x="72.0" xlink:href="#m1c128084d6" y="388.8"/>
      </g>
     </g>
     <g id="line2d_11">
      <defs>
       <path d="M 0 0 
L 0 4 
" id="md5355168c0" style="stroke:#000000;stroke-width:0.5;"/>
      </defs>
      <g>
       <use style="stroke:#000000;stroke-width:0.5;" x="72.0" xlink:href="#md5355168c0" y="43.2"/>
      </g>
     </g>
     <g id="text_1">
      <!-- 0 -->
      <defs>
       <path d="M 31.78125 66.40625 
Q 24.171875 66.40625 20.328125 58.90625 
Q 16.5 51.421875 16.5 36.375 
Q 16.5 21.390625 20.328125 13.890625 
Q 24.171875 6.390625 31.78125 6.390625 
Q 39.453125 6.390625 43.28125 13.890625 
Q 47.125 21.390625 47.125 36.375 
Q 47.125 51.421875 43.28125 58.90625 
Q 39.453125 66.40625 31.78125 66.40625 
M 31.78125 74.21875 
Q 44.046875 74.21875 50.515625 64.515625 
Q 56.984375 54.828125 56.984375 36.375 
Q 56.984375 17.96875 50.515625 8.265625 
Q 44.046875 -1.421875 31.78125 -1.421875 
Q 19.53125 -1.421875 13.0625 8.265625 
Q 6.59375 17.96875 6.59375 36.375 
Q 6.59375 54.828125 13.0625 64.515625 
Q 19.53125 74.21875 31.78125 74.21875 
" id="BitstreamVeraSans-Roman-30"/>
      </defs>
      <g transform="translate(68.1825 401.918125)scale(0.12 -0.12)">
       <use xlink:href="#BitstreamVeraSans-Roman-30"/>
      </g>
     </g>
    </g>
    <g id="xtick_2">
     <g id="line2d_12">
      <g>
       <use style="stroke:#000000;stroke-width:0.5;" x="146.4" xlink:href="#m1c128084d6" y="388.8"/>
      </g>
     </g>
     <g id="line2d_13">
      <g>
       <use style="stroke:#000000;stroke-width:0.5;" x="146.4" xlink:href="#md5355168c0" y="43.2"/>
      </g>
     </g>
     <g id="text_2">
      <!-- 5 -->
      <defs>
       <path d="M 10.796875 72.90625 
L 49.515625 72.90625 
L 49.515625 64.59375 
L 19.828125 64.59375 
L 19.828125 46.734375 
Q 21.96875 47.46875 24.109375 47.828125 
Q 26.265625 48.1875 28.421875 48.1875 
Q 40.625 48.1875 47.75 41.5 
Q 54.890625 34.8125 54.890625 23.390625 
Q 54.890625 11.625 47.5625 5.09375 
Q 40.234375 -1.421875 26.90625 -1.421875 
Q 22.3125 -1.421875 17.546875 -0.640625 
Q 12.796875 0.140625 7.71875 1.703125 
L 7.71875 11.625 
Q 12.109375 9.234375 16.796875 8.0625 
Q 21.484375 6.890625 26.703125 6.890625 
Q 35.15625 6.890625 40.078125 11.328125 
Q 45.015625 15.765625 45.015625 23.390625 
Q 45.015625 31 40.078125 35.4375 
Q 35.15625 39.890625 26.703125 39.890625 
Q 22.75 39.890625 18.8125 39.015625 
Q 14.890625 38.140625 10.796875 36.28125 
z
" id="BitstreamVeraSans-Roman-35"/>
      </defs>
      <g transform="translate(142.5825 401.918125)scale(0.12 -0.12)">
       <use xlink:href="#BitstreamVeraSans-Roman-35"/>
      </g>
     </g>
    </g>
    <g id="xtick_3">
     <g id="line2d_14">
      <g>
       <use style="stroke:#000000;stroke-width:0.5;" x="220.8" xlink:href="#m1c128084d6" y="388.8"/>
      </g>
     </g>
     <g id="line2d_15">
      <g>
       <use style="stroke:#000000;stroke-width:0.5;" x="220.8" xlink:href="#md5355168c0" y="43.2"/>
      </g>
     </g>
     <g id="text_3">
      <!-- 10 -->
      <defs>
       <path d="M 12.40625 8.296875 
L 28.515625 8.296875 
L 28.515625 63.921875 
L 10.984375 60.40625 
L 10.984375 69.390625 
L 28.421875 72.90625 
L 38.28125 72.90625 
L 38.28125 8.296875 
L 54.390625 8.296875 
L 54.390625 0 
L 12.40625 0 
z
" id="BitstreamVeraSans-Roman-31"/>
      </defs>
      <g transform="translate(213.165 401.918125)scale(0.12 -0.12)">
       <use xlink:href="#BitstreamVeraSans-Roman-31"/>
       <use x="63.623046875" xlink:href="#BitstreamVeraSans-Roman-30"/>
      </g>
     </g>
    </g>
    <g id="xtick_4">
     <g id="line2d_16">
      <g>
       <use style="stroke:#000000;stroke-width:0.5;" x="295.2" xlink:href="#m1c128084d6" y="388.8"/>
      </g>
     </g>
     <g id="line2d_17">
      <g>
       <use style="stroke:#000000;stroke-width:0.5;" x="295.2" xlink:href="#md5355168c0" y="43.2"/>
      </g>
     </g>
     <g id="text_4">
      <!-- 15 -->
      <g transform="translate(287.565 401.918125)scale(0.12 -0.12)">
       <use xlink:href="#BitstreamVeraSans-Roman-31"/>
       <use x="63.623046875" xlink:href="#BitstreamVeraSans-Roman-35"/>
      </g>
     </g>
    </g>
    <g id="xtick_5">
     <g id="line2d_18">
      <g>
       <use style="stroke:#000000;stroke-width:0.5;" x="369.6" xlink:href="#m1c128084d6" y="388.8"/>
      </g>
     </g>
     <g id="line2d_19">
      <g>
       <use style="stroke:#000000;stroke-width:0.5;" x="369.6" xlink:href="#md5355168c0" y="43.2"/>
      </g>
     </g>
     <g id="text_5">
      <!-- 20 -->
      <defs>
       <path d="M 19.1875 8.296875 
L 53.609375 8.296875 
L 53.609375 0 
L 7.328125 0 
L 7.328125 8.296875 
Q 12.9375 14.109375 22.625 23.890625 
Q 32.328125 33.6875 34.8125 36.53125 
Q 39.546875 41.84375 41.421875 45.53125 
Q 43.3125 49.21875 43.3125 52.78125 
Q 43.3125 58.59375 39.234375 62.25 
Q 35.15625 65.921875 28.609375 65.921875 
Q 23.96875 65.921875 18.8125 64.3125 
Q 13.671875 62.703125 7.8125 59.421875 
L 7.8125 69.390625 
Q 13.765625 71.78125 18.9375 73 
Q 24.125 74.21875 28.421875 74.21875 
Q 39.75 74.21875 46.484375 68.546875 
Q 53.21875 62.890625 53.21875 53.421875 
Q 53.21875 48.921875 51.53125 44.890625 
Q 49.859375 40.875 45.40625 35.40625 
Q 44.1875 33.984375 37.640625 27.21875 
Q 31.109375 20.453125 19.1875 8.296875 
" id="BitstreamVeraSans-Roman-32"/>
      </defs>
      <g transform="translate(361.965 401.918125)scale(0.12 -0.12)">
       <use xlink:href="#BitstreamVeraSans-Roman-32"/>
       <use x="63.623046875" xlink:href="#BitstreamVeraSans-Roman-30"/>
      </g>
     </g>
    </g>
    <g id="xtick_6">
     <g id="line2d_20">
      <g>
       <use style="stroke:#000000;stroke-width:0.5;" x="444.0" xlink:href="#m1c128084d6" y="388.8"/>
      </g>
     </g>
     <g id="line2d_21">
      <g>
       <use style="stroke:#000000;stroke-width:0.5;" x="444.0" xlink:href="#md5355168c0" y="43.2"/>
      </g>
     </g>
     <g id="text_6">
      <!-- 25 -->
      <g transform="translate(436.365 401.918125)scale(0.12 -0.12)">
       <use xlink:href="#BitstreamVeraSans-Roman-32"/>
       <use x="63.623046875" xlink:href="#BitstreamVeraSans-Roman-35"/>
      </g>
     </g>
    </g>
    <g id="xtick_7">
     <g id="line2d_22">
      <g>
       <use style="stroke:#000000;stroke-width:0.5;" x="518.4" xlink:href="#m1c128084d6" y="388.8"/>
      </g>
     </g>
     <g id="line2d_23">
      <g>
       <use style="stroke:#000000;stroke-width:0.5;" x="518.4" xlink:href="#md5355168c0" y="43.2"/>
      </g>
     </g>
     <g id="text_7">
      <!-- 30 -->
      <defs>
       <path d="M 40.578125 39.3125 
Q 47.65625 37.796875 51.625 33 
Q 55.609375 28.21875 55.609375 21.1875 
Q 55.609375 10.40625 48.1875 4.484375 
Q 40.765625 -1.421875 27.09375 -1.421875 
Q 22.515625 -1.421875 17.65625 -0.515625 
Q 12.796875 0.390625 7.625 2.203125 
L 7.625 11.71875 
Q 11.71875 9.328125 16.59375 8.109375 
Q 21.484375 6.890625 26.8125 6.890625 
Q 36.078125 6.890625 40.9375 10.546875 
Q 45.796875 14.203125 45.796875 21.1875 
Q 45.796875 27.640625 41.28125 31.265625 
Q 36.765625 34.90625 28.71875 34.90625 
L 20.21875 34.90625 
L 20.21875 43.015625 
L 29.109375 43.015625 
Q 36.375 43.015625 40.234375 45.921875 
Q 44.09375 48.828125 44.09375 54.296875 
Q 44.09375 59.90625 40.109375 62.90625 
Q 36.140625 65.921875 28.71875 65.921875 
Q 24.65625 65.921875 20.015625 65.03125 
Q 15.375 64.15625 9.8125 62.3125 
L 9.8125 71.09375 
Q 15.4375 72.65625 20.34375 73.4375 
Q 25.25 74.21875 29.59375 74.21875 
Q 40.828125 74.21875 47.359375 69.109375 
Q 53.90625 64.015625 53.90625 55.328125 
Q 53.90625 49.265625 50.4375 45.09375 
Q 46.96875 40.921875 40.578125 39.3125 
" id="BitstreamVeraSans-Roman-33"/>
      </defs>
      <g transform="translate(510.765 401.918125)scale(0.12 -0.12)">
       <use xlink:href="#BitstreamVeraSans-Roman-33"/>
       <use x="63.623046875" xlink:href="#BitstreamVeraSans-Roman-30"/>
      </g>
     </g>
    </g>
   </g>
   <g id="matplotlib.axis_2">
    <g id="ytick_1">
     <g id="line2d_24">
      <defs>
       <path d="M 0 0 
L 4 0 
" id="mc9a8bde435" style="stroke:#000000;stroke-width:0.5;"/>
      </defs>
      <g>
       <use style="stroke:#000000;stroke-width:0.5;" x="72.0" xlink:href="#mc9a8bde435" y="388.8"/>
      </g>
     </g>
     <g id="line2d_25">
      <defs>
       <path d="M 0 0 
L -4 0 
" id="m0351d97822" style="stroke:#000000;stroke-width:0.5;"/>
      </defs>
      <g>
       <use style="stroke:#000000;stroke-width:0.5;" x="518.4" xlink:href="#m0351d97822" y="388.8"/>
      </g>
     </g>
     <g id="text_8">
      <!-- 1.0 -->
      <defs>
       <path d="M 10.59375 35.5 
L 73.1875 35.5 
L 73.1875 27.203125 
L 10.59375 27.203125 
z
" id="BitstreamVeraSans-Roman-2212"/>
       <path d="M 10.6875 12.40625 
L 21 12.40625 
L 21 0 
L 10.6875 0 
z
" id="BitstreamVeraSans-Roman-2e"/>
      </defs>
      <g transform="translate(38.860625 392.11125)scale(0.12 -0.12)">
       <use xlink:href="#BitstreamVeraSans-Roman-2212"/>
       <use x="83.7890625" xlink:href="#BitstreamVeraSans-Roman-31"/>
       <use x="147.412109375" xlink:href="#BitstreamVeraSans-Roman-2e"/>
       <use x="179.19921875" xlink:href="#BitstreamVeraSans-Roman-30"/>
      </g>
     </g>
    </g>
    <g id="ytick_2">
     <g id="line2d_26">
      <g>
       <use style="stroke:#000000;stroke-width:0.5;" x="72.0" xlink:href="#mc9a8bde435" y="302.4"/>
      </g>
     </g>
     <g id="line2d_27">
      <g>
       <use style="stroke:#000000;stroke-width:0.5;" x="518.4" xlink:href="#m0351d97822" y="302.4"/>
      </g>
     </g>
     <g id="text_9">
      <!-- 0.5 -->
      <g transform="translate(38.860625 305.71125)scale(0.12 -0.12)">
       <use xlink:href="#BitstreamVeraSans-Roman-2212"/>
       <use x="83.7890625" xlink:href="#BitstreamVeraSans-Roman-30"/>
       <use x="147.412109375" xlink:href="#BitstreamVeraSans-Roman-2e"/>
       <use x="179.19921875" xlink:href="#BitstreamVeraSans-Roman-35"/>
      </g>
     </g>
    </g>
    <g id="ytick_3">
     <g id="line2d_28">
      <g>
       <use style="stroke:#000000;stroke-width:0.5;" x="72.0" xlink:href="#mc9a8bde435" y="216.0"/>
      </g>
     </g>
     <g id="line2d_29">
      <g>
       <use style="stroke:#000000;stroke-width:0.5;" x="518.4" xlink:href="#m0351d97822" y="216.0"/>
      </g>
     </g>
     <g id="text_10">
      <!-- 0.0 -->
      <g transform="translate(48.91625 219.31125)scale(0.12 -0.12)">
       <use xlink:href="#BitstreamVeraSans-Roman-30"/>
       <use x="63.623046875" xlink:href="#BitstreamVeraSans-Roman-2e"/>
       <use x="95.41015625" xlink:href="#BitstreamVeraSans-Roman-30"/>
      </g>
     </g>
    </g>
    <g id="ytick_4">
     <g id="line2d_30">
      <g>
       <use style="stroke:#000000;stroke-width:0.5;" x="72.0" xlink:href="#mc9a8bde435" y="129.6"/>
      </g>
     </g>
     <g id="line2d_31">
      <g>
       <use style="stroke:#000000;stroke-width:0.5;" x="518.4" xlink:href="#m0351d97822" y="129.6"/>
      </g>
     </g>
     <g id="text_11">
      <!-- 0.5 -->
      <g transform="translate(48.91625 132.91125)scale(0.12 -0.12)">
       <use xlink:href="#BitstreamVeraSans-Roman-30"/>
       <use x="63.623046875" xlink:href="#BitstreamVeraSans-Roman-2e"/>
       <use x="95.41015625" xlink:href="#BitstreamVeraSans-Roman-35"/>
      </g>
     </g>
    </g>
    <g id="ytick_5">
     <g id="line2d_32">
      <g>
       <use style="stroke:#000000;stroke-width:0.5;" x="72.0" xlink:href="#mc9a8bde435" y="43.2"/>
      </g>
     </g>
     <g id="line2d_33">
      <g>
       <use style="stroke:#000000;stroke-width:0.5;" x="518.4" xlink:href="#m0351d97822" y="43.2"/>
      </g>
     </g>
     <g id="text_12">
      <!-- 1.0 -->
      <g transform="translate(48.91625 46.51125)scale(0.12 -0.12)">
       <use xlink:href="#BitstreamVeraSans-Roman-31"/>
       <use x="63.623046875" xlink:href="#BitstreamVeraSans-Roman-2e"/>
       <use x="95.41015625" xlink:href="#BitstreamVeraSans-Roman-30"/>
      </g>
     </g>
    </g>
   </g>
   <g id="legend_1">
    <g id="patch_7">
     <path d="M 79.2 381.6 
L 207.99 381.6 
L 207.99 186.2505 
L 79.2 186.2505 
z
" style="fill:#ffffff;stroke:#000000;stroke-linejoin:miter;"/>
    </g>
    <g id="line2d_34">
     <path d="M 89.28 197.91225 
L 109.44 197.91225 
" style="fill:none;opacity:0.2;stroke:#0000ff;stroke-linecap:square;"/>
    </g>
    <g id="line2d_35"/>
    <g id="text_13">
     <!-- ia -->
     <defs>
      <path d="M 34.28125 27.484375 
Q 23.390625 27.484375 19.1875 25 
Q 14.984375 22.515625 14.984375 16.5 
Q 14.984375 11.71875 18.140625 8.90625 
Q 21.296875 6.109375 26.703125 6.109375 
Q 34.1875 6.109375 38.703125 11.40625 
Q 43.21875 16.703125 43.21875 25.484375 
L 43.21875 27.484375 
z
M 52.203125 31.203125 
L 52.203125 0 
L 43.21875 0 
L 43.21875 8.296875 
Q 40.140625 3.328125 35.546875 0.953125 
Q 30.953125 -1.421875 24.3125 -1.421875 
Q 15.921875 -1.421875 10.953125 3.296875 
Q 6 8.015625 6 15.921875 
Q 6 25.140625 12.171875 29.828125 
Q 18.359375 34.515625 30.609375 34.515625 
L 43.21875 34.515625 
L 43.21875 35.40625 
Q 43.21875 41.609375 39.140625 45 
Q 35.0625 48.390625 27.6875 48.390625 
Q 23 48.390625 18.546875 47.265625 
Q 14.109375 46.140625 10.015625 43.890625 
L 10.015625 52.203125 
Q 14.9375 54.109375 19.578125 55.046875 
Q 24.21875 56 28.609375 56 
Q 40.484375 56 46.34375 49.84375 
Q 52.203125 43.703125 52.203125 31.203125 
" id="BitstreamVeraSans-Roman-61"/>
      <path d="M 9.421875 54.6875 
L 18.40625 54.6875 
L 18.40625 0 
L 9.421875 0 
z
M 9.421875 75.984375 
L 18.40625 75.984375 
L 18.40625 64.59375 
L 9.421875 64.59375 
z
" id="BitstreamVeraSans-Roman-69"/>
     </defs>
     <g transform="translate(125.28 202.95225)scale(0.144 -0.144)">
      <use xlink:href="#BitstreamVeraSans-Roman-69"/>
      <use x="27.783203125" xlink:href="#BitstreamVeraSans-Roman-61"/>
     </g>
    </g>
    <g id="line2d_36">
     <path d="M 89.28 219.04875 
L 109.44 219.04875 
" style="fill:none;opacity:0.2;stroke:#008000;stroke-linecap:square;"/>
    </g>
    <g id="line2d_37"/>
    <g id="text_14">
     <!-- ib -->
     <defs>
      <path d="M 48.6875 27.296875 
Q 48.6875 37.203125 44.609375 42.84375 
Q 40.53125 48.484375 33.40625 48.484375 
Q 26.265625 48.484375 22.1875 42.84375 
Q 18.109375 37.203125 18.109375 27.296875 
Q 18.109375 17.390625 22.1875 11.75 
Q 26.265625 6.109375 33.40625 6.109375 
Q 40.53125 6.109375 44.609375 11.75 
Q 48.6875 17.390625 48.6875 27.296875 
M 18.109375 46.390625 
Q 20.953125 51.265625 25.265625 53.625 
Q 29.59375 56 35.59375 56 
Q 45.5625 56 51.78125 48.09375 
Q 58.015625 40.1875 58.015625 27.296875 
Q 58.015625 14.40625 51.78125 6.484375 
Q 45.5625 -1.421875 35.59375 -1.421875 
Q 29.59375 -1.421875 25.265625 0.953125 
Q 20.953125 3.328125 18.109375 8.203125 
L 18.109375 0 
L 9.078125 0 
L 9.078125 75.984375 
L 18.109375 75.984375 
z
" id="BitstreamVeraSans-Roman-62"/>
     </defs>
     <g transform="translate(125.28 224.08875)scale(0.144 -0.144)">
      <use xlink:href="#BitstreamVeraSans-Roman-69"/>
      <use x="27.783203125" xlink:href="#BitstreamVeraSans-Roman-62"/>
     </g>
    </g>
    <g id="line2d_38">
     <path d="M 89.28 240.18525 
L 109.44 240.18525 
" style="fill:none;opacity:0.2;stroke:#ff0000;stroke-linecap:square;"/>
    </g>
    <g id="line2d_39"/>
    <g id="text_15">
     <!-- ic -->
     <defs>
      <path d="M 48.78125 52.59375 
L 48.78125 44.1875 
Q 44.96875 46.296875 41.140625 47.34375 
Q 37.3125 48.390625 33.40625 48.390625 
Q 24.65625 48.390625 19.8125 42.84375 
Q 14.984375 37.3125 14.984375 27.296875 
Q 14.984375 17.28125 19.8125 11.734375 
Q 24.65625 6.203125 33.40625 6.203125 
Q 37.3125 6.203125 41.140625 7.25 
Q 44.96875 8.296875 48.78125 10.40625 
L 48.78125 2.09375 
Q 45.015625 0.34375 40.984375 -0.53125 
Q 36.96875 -1.421875 32.421875 -1.421875 
Q 20.0625 -1.421875 12.78125 6.34375 
Q 5.515625 14.109375 5.515625 27.296875 
Q 5.515625 40.671875 12.859375 48.328125 
Q 20.21875 56 33.015625 56 
Q 37.15625 56 41.109375 55.140625 
Q 45.0625 54.296875 48.78125 52.59375 
" id="BitstreamVeraSans-Roman-63"/>
     </defs>
     <g transform="translate(125.28 245.22525)scale(0.144 -0.144)">
      <use xlink:href="#BitstreamVeraSans-Roman-69"/>
      <use x="27.783203125" xlink:href="#BitstreamVeraSans-Roman-63"/>
     </g>
    </g>
    <g id="line2d_40">
     <path d="M 89.28 261.32175 
L 109.44 261.32175 
" style="fill:none;opacity:0.2;stroke:#00bfbf;stroke-linecap:square;"/>
    </g>
    <g id="line2d_41"/>
    <g id="text_16">
     <!-- fa -->
     <defs>
      <path d="M 37.109375 75.984375 
L 37.109375 68.5 
L 28.515625 68.5 
Q 23.6875 68.5 21.796875 66.546875 
Q 19.921875 64.59375 19.921875 59.515625 
L 19.921875 54.6875 
L 34.71875 54.6875 
L 34.71875 47.703125 
L 19.921875 47.703125 
L 19.921875 0 
L 10.890625 0 
L 10.890625 47.703125 
L 2.296875 47.703125 
L 2.296875 54.6875 
L 10.890625 54.6875 
L 10.890625 58.5 
Q 10.890625 67.625 15.140625 71.796875 
Q 19.390625 75.984375 28.609375 75.984375 
z
" id="BitstreamVeraSans-Roman-66"/>
     </defs>
     <g transform="translate(125.28 266.36175)scale(0.144 -0.144)">
      <use xlink:href="#BitstreamVeraSans-Roman-66"/>
      <use x="35.205078125" xlink:href="#BitstreamVeraSans-Roman-61"/>
     </g>
    </g>
    <g id="line2d_42">
     <path d="M 89.28 282.45825 
L 109.44 282.45825 
" style="fill:none;opacity:0.2;stroke:#bf00bf;stroke-linecap:square;"/>
    </g>
    <g id="line2d_43"/>
    <g id="text_17">
     <!-- fb -->
     <g transform="translate(125.28 287.49825)scale(0.144 -0.144)">
      <use xlink:href="#BitstreamVeraSans-Roman-66"/>
      <use x="35.205078125" xlink:href="#BitstreamVeraSans-Roman-62"/>
     </g>
    </g>
    <g id="line2d_44">
     <path d="M 89.28 303.59475 
L 109.44 303.59475 
" style="fill:none;opacity:0.2;stroke:#bfbf00;stroke-linecap:square;"/>
    </g>
    <g id="line2d_45"/>
    <g id="text_18">
     <!-- fc -->
     <g transform="translate(125.28 308.63475)scale(0.144 -0.144)">
      <use xlink:href="#BitstreamVeraSans-Roman-66"/>
      <use x="35.205078125" xlink:href="#BitstreamVeraSans-Roman-63"/>
     </g>
    </g>
    <g id="line2d_46">
     <path d="M 89.28 324.73125 
L 109.44 324.73125 
" style="fill:none;stroke:#000000;stroke-linecap:square;"/>
    </g>
    <g id="line2d_47"/>
    <g id="text_19">
     <!-- fd -->
     <defs>
      <path d="M 45.40625 46.390625 
L 45.40625 75.984375 
L 54.390625 75.984375 
L 54.390625 0 
L 45.40625 0 
L 45.40625 8.203125 
Q 42.578125 3.328125 38.25 0.953125 
Q 33.9375 -1.421875 27.875 -1.421875 
Q 17.96875 -1.421875 11.734375 6.484375 
Q 5.515625 14.40625 5.515625 27.296875 
Q 5.515625 40.1875 11.734375 48.09375 
Q 17.96875 56 27.875 56 
Q 33.9375 56 38.25 53.625 
Q 42.578125 51.265625 45.40625 46.390625 
M 14.796875 27.296875 
Q 14.796875 17.390625 18.875 11.75 
Q 22.953125 6.109375 30.078125 6.109375 
Q 37.203125 6.109375 41.296875 11.75 
Q 45.40625 17.390625 45.40625 27.296875 
Q 45.40625 37.203125 41.296875 42.84375 
Q 37.203125 48.484375 30.078125 48.484375 
Q 22.953125 48.484375 18.875 42.84375 
Q 14.796875 37.203125 14.796875 27.296875 
" id="BitstreamVeraSans-Roman-64"/>
     </defs>
     <g transform="translate(125.28 329.77125)scale(0.144 -0.144)">
      <use xlink:href="#BitstreamVeraSans-Roman-66"/>
      <use x="35.205078125" xlink:href="#BitstreamVeraSans-Roman-64"/>
     </g>
    </g>
    <g id="line2d_48">
     <path d="M 89.28 345.86775 
L 109.44 345.86775 
" style="fill:none;stroke:#0000ff;stroke-linecap:square;"/>
    </g>
    <g id="line2d_49"/>
    <g id="text_20">
     <!-- gt_torq(fq) -->
     <defs>
      <path d="M 50.984375 -16.609375 
L 50.984375 -23.578125 
L -0.984375 -23.578125 
L -0.984375 -16.609375 
z
" id="BitstreamVeraSans-Roman-5f"/>
      <path d="M 8.015625 75.875 
L 15.828125 75.875 
Q 23.140625 64.359375 26.78125 53.3125 
Q 30.421875 42.28125 30.421875 31.390625 
Q 30.421875 20.453125 26.78125 9.375 
Q 23.140625 -1.703125 15.828125 -13.1875 
L 8.015625 -13.1875 
Q 14.5 -2 17.703125 9.0625 
Q 20.90625 20.125 20.90625 31.390625 
Q 20.90625 42.671875 17.703125 53.65625 
Q 14.5 64.65625 8.015625 75.875 
" id="BitstreamVeraSans-Roman-29"/>
      <path d="M 31 75.875 
Q 24.46875 64.65625 21.28125 53.65625 
Q 18.109375 42.671875 18.109375 31.390625 
Q 18.109375 20.125 21.3125 9.0625 
Q 24.515625 -2 31 -13.1875 
L 23.1875 -13.1875 
Q 15.875 -1.703125 12.234375 9.375 
Q 8.59375 20.453125 8.59375 31.390625 
Q 8.59375 42.28125 12.203125 53.3125 
Q 15.828125 64.359375 23.1875 75.875 
z
" id="BitstreamVeraSans-Roman-28"/>
      <path d="M 30.609375 48.390625 
Q 23.390625 48.390625 19.1875 42.75 
Q 14.984375 37.109375 14.984375 27.296875 
Q 14.984375 17.484375 19.15625 11.84375 
Q 23.34375 6.203125 30.609375 6.203125 
Q 37.796875 6.203125 41.984375 11.859375 
Q 46.1875 17.53125 46.1875 27.296875 
Q 46.1875 37.015625 41.984375 42.703125 
Q 37.796875 48.390625 30.609375 48.390625 
M 30.609375 56 
Q 42.328125 56 49.015625 48.375 
Q 55.71875 40.765625 55.71875 27.296875 
Q 55.71875 13.875 49.015625 6.21875 
Q 42.328125 -1.421875 30.609375 -1.421875 
Q 18.84375 -1.421875 12.171875 6.21875 
Q 5.515625 13.875 5.515625 27.296875 
Q 5.515625 40.765625 12.171875 48.375 
Q 18.84375 56 30.609375 56 
" id="BitstreamVeraSans-Roman-6f"/>
      <path d="M 45.40625 27.984375 
Q 45.40625 37.75 41.375 43.109375 
Q 37.359375 48.484375 30.078125 48.484375 
Q 22.859375 48.484375 18.828125 43.109375 
Q 14.796875 37.75 14.796875 27.984375 
Q 14.796875 18.265625 18.828125 12.890625 
Q 22.859375 7.515625 30.078125 7.515625 
Q 37.359375 7.515625 41.375 12.890625 
Q 45.40625 18.265625 45.40625 27.984375 
M 54.390625 6.78125 
Q 54.390625 -7.171875 48.1875 -13.984375 
Q 42 -20.796875 29.203125 -20.796875 
Q 24.46875 -20.796875 20.265625 -20.09375 
Q 16.0625 -19.390625 12.109375 -17.921875 
L 12.109375 -9.1875 
Q 16.0625 -11.328125 19.921875 -12.34375 
Q 23.78125 -13.375 27.78125 -13.375 
Q 36.625 -13.375 41.015625 -8.765625 
Q 45.40625 -4.15625 45.40625 5.171875 
L 45.40625 9.625 
Q 42.625 4.78125 38.28125 2.390625 
Q 33.9375 0 27.875 0 
Q 17.828125 0 11.671875 7.65625 
Q 5.515625 15.328125 5.515625 27.984375 
Q 5.515625 40.671875 11.671875 48.328125 
Q 17.828125 56 27.875 56 
Q 33.9375 56 38.28125 53.609375 
Q 42.625 51.21875 45.40625 46.390625 
L 45.40625 54.6875 
L 54.390625 54.6875 
z
" id="BitstreamVeraSans-Roman-67"/>
      <path d="M 41.109375 46.296875 
Q 39.59375 47.171875 37.8125 47.578125 
Q 36.03125 48 33.890625 48 
Q 26.265625 48 22.1875 43.046875 
Q 18.109375 38.09375 18.109375 28.8125 
L 18.109375 0 
L 9.078125 0 
L 9.078125 54.6875 
L 18.109375 54.6875 
L 18.109375 46.1875 
Q 20.953125 51.171875 25.484375 53.578125 
Q 30.03125 56 36.53125 56 
Q 37.453125 56 38.578125 55.875 
Q 39.703125 55.765625 41.0625 55.515625 
z
" id="BitstreamVeraSans-Roman-72"/>
      <path d="M 18.3125 70.21875 
L 18.3125 54.6875 
L 36.8125 54.6875 
L 36.8125 47.703125 
L 18.3125 47.703125 
L 18.3125 18.015625 
Q 18.3125 11.328125 20.140625 9.421875 
Q 21.96875 7.515625 27.59375 7.515625 
L 36.8125 7.515625 
L 36.8125 0 
L 27.59375 0 
Q 17.1875 0 13.234375 3.875 
Q 9.28125 7.765625 9.28125 18.015625 
L 9.28125 47.703125 
L 2.6875 47.703125 
L 2.6875 54.6875 
L 9.28125 54.6875 
L 9.28125 70.21875 
z
" id="BitstreamVeraSans-Roman-74"/>
      <path d="M 14.796875 27.296875 
Q 14.796875 17.390625 18.875 11.75 
Q 22.953125 6.109375 30.078125 6.109375 
Q 37.203125 6.109375 41.296875 11.75 
Q 45.40625 17.390625 45.40625 27.296875 
Q 45.40625 37.203125 41.296875 42.84375 
Q 37.203125 48.484375 30.078125 48.484375 
Q 22.953125 48.484375 18.875 42.84375 
Q 14.796875 37.203125 14.796875 27.296875 
M 45.40625 8.203125 
Q 42.578125 3.328125 38.25 0.953125 
Q 33.9375 -1.421875 27.875 -1.421875 
Q 17.96875 -1.421875 11.734375 6.484375 
Q 5.515625 14.40625 5.515625 27.296875 
Q 5.515625 40.1875 11.734375 48.09375 
Q 17.96875 56 27.875 56 
Q 33.9375 56 38.25 53.625 
Q 42.578125 51.265625 45.40625 46.390625 
L 45.40625 54.6875 
L 54.390625 54.6875 
L 54.390625 -20.796875 
L 45.40625 -20.796875 
z
" id="BitstreamVeraSans-Roman-71"/>
     </defs>
     <g transform="translate(125.28 350.90775)scale(0.144 -0.144)">
      <use xlink:href="#BitstreamVeraSans-Roman-67"/>
      <use x="63.4765625" xlink:href="#BitstreamVeraSans-Roman-74"/>
      <use x="102.685546875" xlink:href="#BitstreamVeraSans-Roman-5f"/>
      <use x="152.685546875" xlink:href="#BitstreamVeraSans-Roman-74"/>
      <use x="191.89453125" xlink:href="#BitstreamVeraSans-Roman-6f"/>
      <use x="253.076171875" xlink:href="#BitstreamVeraSans-Roman-72"/>
      <use x="294.173828125" xlink:href="#BitstreamVeraSans-Roman-71"/>
      <use x="357.650390625" xlink:href="#BitstreamVeraSans-Roman-28"/>
      <use x="396.6640625" xlink:href="#BitstreamVeraSans-Roman-66"/>
      <use x="431.869140625" xlink:href="#BitstreamVeraSans-Roman-71"/>
      <use x="495.345703125" xlink:href="#BitstreamVeraSans-Roman-29"/>
     </g>
    </g>
    <g id="line2d_50">
     <path d="M 89.28 367.40475 
L 109.44 367.40475 
" style="fill:none;stroke:#008000;stroke-linecap:square;"/>
    </g>
    <g id="line2d_51"/>
    <g id="text_21">
     <!-- pred_torq -->
     <defs>
      <path d="M 56.203125 29.59375 
L 56.203125 25.203125 
L 14.890625 25.203125 
Q 15.484375 15.921875 20.484375 11.0625 
Q 25.484375 6.203125 34.421875 6.203125 
Q 39.59375 6.203125 44.453125 7.46875 
Q 49.3125 8.734375 54.109375 11.28125 
L 54.109375 2.78125 
Q 49.265625 0.734375 44.1875 -0.34375 
Q 39.109375 -1.421875 33.890625 -1.421875 
Q 20.796875 -1.421875 13.15625 6.1875 
Q 5.515625 13.8125 5.515625 26.8125 
Q 5.515625 40.234375 12.765625 48.109375 
Q 20.015625 56 32.328125 56 
Q 43.359375 56 49.78125 48.890625 
Q 56.203125 41.796875 56.203125 29.59375 
M 47.21875 32.234375 
Q 47.125 39.59375 43.09375 43.984375 
Q 39.0625 48.390625 32.421875 48.390625 
Q 24.90625 48.390625 20.390625 44.140625 
Q 15.875 39.890625 15.1875 32.171875 
z
" id="BitstreamVeraSans-Roman-65"/>
      <path d="M 18.109375 8.203125 
L 18.109375 -20.796875 
L 9.078125 -20.796875 
L 9.078125 54.6875 
L 18.109375 54.6875 
L 18.109375 46.390625 
Q 20.953125 51.265625 25.265625 53.625 
Q 29.59375 56 35.59375 56 
Q 45.5625 56 51.78125 48.09375 
Q 58.015625 40.1875 58.015625 27.296875 
Q 58.015625 14.40625 51.78125 6.484375 
Q 45.5625 -1.421875 35.59375 -1.421875 
Q 29.59375 -1.421875 25.265625 0.953125 
Q 20.953125 3.328125 18.109375 8.203125 
M 48.6875 27.296875 
Q 48.6875 37.203125 44.609375 42.84375 
Q 40.53125 48.484375 33.40625 48.484375 
Q 26.265625 48.484375 22.1875 42.84375 
Q 18.109375 37.203125 18.109375 27.296875 
Q 18.109375 17.390625 22.1875 11.75 
Q 26.265625 6.109375 33.40625 6.109375 
Q 40.53125 6.109375 44.609375 11.75 
Q 48.6875 17.390625 48.6875 27.296875 
" id="BitstreamVeraSans-Roman-70"/>
     </defs>
     <g transform="translate(125.28 372.44475)scale(0.144 -0.144)">
      <use xlink:href="#BitstreamVeraSans-Roman-70"/>
      <use x="63.4765625" xlink:href="#BitstreamVeraSans-Roman-72"/>
      <use x="104.55859375" xlink:href="#BitstreamVeraSans-Roman-65"/>
      <use x="166.08203125" xlink:href="#BitstreamVeraSans-Roman-64"/>
      <use x="229.55859375" xlink:href="#BitstreamVeraSans-Roman-5f"/>
      <use x="279.55859375" xlink:href="#BitstreamVeraSans-Roman-74"/>
      <use x="318.767578125" xlink:href="#BitstreamVeraSans-Roman-6f"/>
      <use x="379.94921875" xlink:href="#BitstreamVeraSans-Roman-72"/>
      <use x="421.046875" xlink:href="#BitstreamVeraSans-Roman-71"/>
     </g>
    </g>
   </g>
  </g>
 </g>
 <defs>
  <clipPath id="p8fb2d32b80">
   <rect height="345.6" width="446.4" x="72.0" y="43.2"/>
  </clipPath>
 </defs>
</svg>
