<?xml version="1.0" encoding="UTF-8" standalone="no"?>
<!DOCTYPE svg PUBLIC "-//W3C//DTD SVG 1.1//EN"
 "http://www.w3.org/Graphics/SVG/1.1/DTD/svg11.dtd">
<!-- Generated by graphviz version 2.38.0 (20140413.2041)
 -->
<!-- Title: %3 Pages: 1 -->
<svg width="72pt" height="188pt"
 viewBox="0.00 0.00 71.69 188.00" xmlns="http://www.w3.org/2000/svg" xmlns:xlink="http://www.w3.org/1999/xlink">
<g id="graph0" class="graph" transform="scale(1 1) rotate(0) translate(4 184)">
<title>%3</title>
<polygon fill="white" stroke="none" points="-4,4 -4,-184 67.6943,-184 67.6943,4 -4,4"/>
<!-- main -->
<g id="node1" class="node"><title>main</title>
<ellipse fill="none" stroke="black" cx="31.8472" cy="-162" rx="27.8951" ry="18"/>
<text text-anchor="middle" x="31.8472" y="-158.3" font-family="Times New Roman,serif" font-size="14.00">main</text>
</g>
<!-- print -->
<g id="node2" class="node"><title>print</title>
<ellipse fill="none" stroke="black" cx="31.8472" cy="-90" rx="27.0966" ry="18"/>
<text text-anchor="middle" x="31.8472" y="-86.3" font-family="Times New Roman,serif" font-size="14.00">print</text>
</g>
<!-- main&#45;&gt;print -->
<g id="edge1" class="edge"><title>main&#45;&gt;print</title>
<path fill="none" stroke="black" d="M31.8472,-143.697C31.8472,-135.983 31.8472,-126.712 31.8472,-118.112"/>
<polygon fill="black" stroke="black" points="35.3473,-118.104 31.8472,-108.104 28.3473,-118.104 35.3473,-118.104"/>
</g>
<!-- return -->
<g id="node3" class="node"><title>return</title>
<ellipse fill="none" stroke="black" cx="31.8472" cy="-18" rx="31.6951" ry="18"/>
<text text-anchor="middle" x="31.8472" y="-14.3" font-family="Times New Roman,serif" font-size="14.00">return</text>
</g>
<!-- print&#45;&gt;return -->
<g id="edge2" class="edge"><title>print&#45;&gt;return</title>
<path fill="none" stroke="black" d="M31.8472,-71.6966C31.8472,-63.9827 31.8472,-54.7125 31.8472,-46.1124"/>
<polygon fill="black" stroke="black" points="35.3473,-46.1043 31.8472,-36.1043 28.3473,-46.1044 35.3473,-46.1043"/>
</g>
</g>
</svg>
